<?xml version="1.0" encoding="utf-8"?>
<!-- Generator: Adobe Illustrator 16.0.0, SVG Export Plug-In . SVG Version: 6.00 Build 0)  -->
<!DOCTYPE svg PUBLIC "-//W3C//DTD SVG 1.1//EN" "http://www.w3.org/Graphics/SVG/1.1/DTD/svg11.dtd">
<svg version="1.1"
	 id="svg28" xmlns:dc="http://purl.org/dc/elements/1.1/" xmlns:cc="http://creativecommons.org/ns#" xmlns:rdf="http://www.w3.org/1999/02/22-rdf-syntax-ns#" xmlns:svg="http://www.w3.org/2000/svg"
	 xmlns="http://www.w3.org/2000/svg" xmlns:xlink="http://www.w3.org/1999/xlink" x="0px" y="0px" width="115" height="148" viewBox="0 0 94.064 118.461" enable-background="new 0 0 94.064 118.461" xml:space="preserve">
<path id="Layer1000" fill="#103884" d="M29.909,118.659v-0.812l0.778-0.095c0.413-0.05,0.696-0.204,0.854-0.463
	s0.236-0.793,0.236-1.601v-9.342c0-0.963-0.126-1.552-0.377-1.771c-0.255-0.216-0.785-0.345-1.601-0.388v-0.736
	c0.28,0.007,0.71,0.02,1.295,0.031c1.199,0.029,2.096,0.045,2.699,0.045c0.232,0,1.127-0.012,2.682-0.033
	c1.559-0.021,3.011-0.036,4.364-0.043v0.736c0,0.373,0.004,0.75,0.016,1.141c0.011,0.389,0.027,0.79,0.049,1.201l-0.821,0.044
	v-0.063c0-0.832-0.208-1.404-0.624-1.712c-0.417-0.31-1.256-0.464-2.517-0.464c-1.123,0-1.805,0.09-2.046,0.27
	c-0.239,0.181-0.361,0.649-0.361,1.414v4.226h0.262h0.431h0.233c1.188,0,1.956-0.072,2.301-0.212
	c0.341-0.141,0.561-0.389,0.649-0.747l0.232-0.851h0.693c-0.007,0.397-0.015,0.869-0.025,1.41c-0.011,0.539-0.018,0.857-0.018,0.954
	c0,0.087,0.011,0.316,0.032,0.696c0.021,0.378,0.031,0.715,0.031,1.009c0,0.063-0.004,0.158-0.01,0.291
	c-0.008,0.129-0.011,0.233-0.011,0.31l-0.757-0.084v-0.158c0-0.674-0.161-1.145-0.488-1.409s-0.916-0.397-1.77-0.397
	c-0.272,0-0.561,0.002-0.852,0.014c-0.294,0.012-0.605,0.033-0.937,0.059v4.239c0,0.925,0.114,1.524,0.348,1.801
	c0.229,0.276,0.725,0.417,1.479,0.417h2.589c0.384,0,0.718-0.072,1.001-0.216c0.289-0.144,0.517-0.358,0.7-0.646l0.99-1.568
	l0.84,0.25c-0.184,0.521-0.348,1.027-0.496,1.521c-0.146,0.491-0.274,0.98-0.387,1.454c-0.412,0.043-0.783,0.075-1.104,0.097
	c-0.319,0.021-0.607,0.033-0.862,0.033c-0.406,0-1.156-0.012-2.25-0.033c-1.091-0.021-1.974-0.031-2.648-0.031
	c-1.037,0-2.412,0.058-4.131,0.169C30.293,118.639,30.063,118.652,29.909,118.659z M17.714,117.754
	c-0.764,0.338-1.568,0.586-2.416,0.751c-0.843,0.164-1.733,0.247-2.663,0.247c-2.685,0-4.834-0.71-6.454-2.128
	c-1.615-1.422-2.422-3.306-2.422-5.653c0-1.098,0.19-2.109,0.574-3.029c0.38-0.914,0.943-1.723,1.687-2.414
	c0.826-0.758,1.781-1.328,2.865-1.709c1.084-0.385,2.29-0.574,3.625-0.574c0.875,0,1.726,0.094,2.551,0.283
	c0.83,0.189,1.647,0.479,2.463,0.861c0.051,0.365,0.137,0.9,0.259,1.604c0.121,0.702,0.187,1.194,0.192,1.468l-0.8,0.094
	c-0.362-1.074-0.958-1.91-1.787-2.51c-0.826-0.6-1.795-0.896-2.904-0.896c-1.61,0-2.933,0.625-3.962,1.869
	c-1.029,1.25-1.547,2.852-1.547,4.808c0,2.034,0.57,3.692,1.716,4.978c1.142,1.289,2.613,1.932,4.415,1.932
	c1.13,0,2.049-0.258,2.756-0.778c0.707-0.517,1.289-1.356,1.745-2.513l0.821,0.189c-0.071,0.377-0.194,0.912-0.373,1.604
	C17.875,116.925,17.761,117.432,17.714,117.754L17.714,117.754z M83.539,118.469v-0.779h0.168c0.639,0,1.102-0.125,1.393-0.383
	c0.291-0.256,0.438-0.658,0.438-1.203V106c0-0.652-0.121-1.088-0.369-1.303c-0.244-0.221-0.781-0.385-1.607-0.506v-0.736
	c0.531,0,1.174,0.02,1.92,0.05c0.746,0.033,1.226,0.048,1.437,0.048c0.266,0,0.774-0.015,1.528-0.039
	c0.755-0.025,1.378-0.037,1.878-0.037v0.758c-0.779,0-1.296,0.107-1.552,0.32c-0.254,0.215-0.385,0.643-0.385,1.276v10.071
	c0,0.771,0.123,1.26,0.363,1.461c0.24,0.203,0.764,0.318,1.571,0.348v0.758c-0.059,0-0.146,0.004-0.27,0.012
	c-0.121,0.006-0.211,0.011-0.266,0.011c-0.365,0-0.879-0.011-1.535-0.028c-0.662-0.021-1.135-0.033-1.422-0.033
	c-0.125,0-0.445,0.016-0.963,0.041c-0.517,0.027-0.962,0.043-1.343,0.043c-0.104,0-0.227-0.004-0.362-0.012
	C84.027,118.493,83.818,118.484,83.539,118.469L83.539,118.469z M57.705,103.477l4.459,10.41l2.69-6.486
	c0.338-0.801,0.621-1.5,0.857-2.104c0.233-0.604,0.449-1.199,0.646-1.787c0.134-0.015,0.275-0.025,0.429-0.029
	c0.149-0.004,0.377-0.004,0.678-0.004s0.768,0.008,1.406,0.024c0.639,0.019,1.131,0.028,1.473,0.028c0.27,0,0.467-0.004,0.596-0.006
	c0.129-0.004,0.254-0.008,0.373-0.016v0.747h-0.367c-0.577,0-0.952,0.082-1.131,0.251c-0.178,0.169-0.268,0.527-0.268,1.084v9.26
	c0,1.354,0.129,2.18,0.387,2.473c0.262,0.296,0.769,0.445,1.525,0.453v0.715h-0.377c-0.373,0-0.875-0.012-1.504-0.028
	c-0.632-0.021-1.08-0.032-1.347-0.032c-0.137,0-0.506,0.014-1.112,0.039c-0.605,0.028-1.146,0.043-1.621,0.043h-0.644v-0.758
	l0.726-0.064c0.553-0.039,0.92-0.187,1.096-0.434c0.176-0.248,0.262-0.908,0.262-1.971v-6.637c0-0.377-0.008-0.822-0.021-1.336
	c-0.017-0.51-0.043-1.154-0.084-1.935c-1.543,3.485-2.763,6.363-3.664,8.64c-0.9,2.274-1.433,3.821-1.594,4.642l-0.556,0.063
	c-0.485-1.564-1.147-3.396-1.992-5.498c-0.848-2.104-1.854-4.427-3.024-6.963l-0.242,9.661v0.244c0,0.61,0.133,1.019,0.395,1.233
	c0.265,0.213,0.753,0.324,1.46,0.33v0.736c-0.085,0.008-0.177,0.016-0.281,0.018c-0.101,0.004-0.25,0.004-0.445,0.004
	c-0.279,0-0.609-0.012-0.981-0.028c-0.378-0.021-0.611-0.032-0.699-0.032c-0.213,0-0.535,0.012-0.972,0.032
	c-0.434,0.019-0.764,0.028-0.985,0.028c-0.051,0-0.129-0.004-0.244-0.012c-0.111-0.006-0.193-0.011-0.252-0.011v-0.702
	c0.406-0.016,0.736-0.043,0.988-0.091c0.254-0.047,0.424-0.11,0.516-0.194c0.162-0.152,0.285-0.479,0.375-0.979
	c0.086-0.495,0.146-1.23,0.182-2.207l0.263-7.559v-0.567c0-0.646-0.093-1.084-0.283-1.319c-0.189-0.234-0.531-0.398-1.029-0.488
	l-0.861-0.147v-0.704c0.267,0.008,0.531,0.012,0.789,0.016c0.259,0.002,0.564,0.006,0.916,0.006c0.498,0,1-0.004,1.507-0.01
	C56.621,103.512,57.152,103.497,57.705,103.477L57.705,103.477z"/>
<path id="path13" fill="#8AA1B3" d="M47.041,94.083C21.132,94.083,0,72.951,0,47.041C0,21.132,21.132,0,47.041,0
	c25.91,0,47.041,21.132,47.041,47.041C94.082,72.951,72.951,94.083,47.041,94.083z M47.041,82.449
	c-19.501,0-35.407-15.905-35.407-35.408c0-19.501,15.906-35.407,35.407-35.407c19.502,0,35.408,15.906,35.408,35.407
	C82.449,66.544,66.542,82.449,47.041,82.449z"/>
<path id="path11_1_" fill="#FFFFFF" d="M53.765,12.929c18.84,3.714,31.102,21.997,27.388,40.836
	c-3.712,18.84-21.997,31.102-40.835,27.387c-18.84-3.713-31.103-21.996-27.389-40.835C16.643,21.478,34.925,9.215,53.765,12.929
	L53.765,12.929z"/>
<path id="path11" fill="#103884" d="M53.185,15.872C70.4,19.265,81.603,35.97,78.21,53.185C74.817,70.4,58.11,81.604,40.897,78.21
	c-17.216-3.394-28.42-20.099-25.025-37.313C19.264,23.683,35.97,12.478,53.185,15.872L53.185,15.872z"/>
<path id="path15" fill="none" stroke="#FFFFFF" stroke-width="0.4117" d="M47.041,92.98c-25.303,0-45.939-20.637-45.939-45.939
	c0-25.302,20.637-45.938,45.939-45.938S92.98,21.74,92.98,47.041C92.98,72.344,72.343,92.98,47.041,92.98z"/>
<path id="path17" fill="none" stroke="#FFFFFF" stroke-width="0.4102" d="M47.041,83.611c-20.143,0-36.57-16.428-36.57-36.569
	c0-20.142,16.427-36.572,36.57-36.572c20.143,0,36.569,16.429,36.569,36.571C83.611,67.184,67.183,83.611,47.041,83.611z"/>
<path fill="#FFFFFF" d="M83.029,59.237l0.283,0.107l-0.022,0.061c-0.09,0.231-0.107,0.416-0.056,0.556s0.177,0.25,0.373,0.326
	l3.648,1.4c0.236,0.09,0.41,0.105,0.521,0.047c0.113-0.059,0.248-0.229,0.406-0.512l0.267,0.103
	c-0.074,0.192-0.169,0.422-0.283,0.688c-0.115,0.264-0.188,0.434-0.217,0.512c-0.037,0.096-0.103,0.281-0.197,0.558
	c-0.096,0.276-0.181,0.503-0.248,0.683l-0.273-0.104c0.107-0.28,0.142-0.481,0.101-0.604c-0.041-0.121-0.179-0.228-0.408-0.316
	l-3.637-1.395c-0.279-0.107-0.474-0.132-0.578-0.072c-0.107,0.06-0.222,0.231-0.345,0.52l-0.272-0.104
	c0.008-0.021,0.02-0.055,0.033-0.1c0.013-0.045,0.024-0.078,0.032-0.098c0.052-0.133,0.128-0.314,0.224-0.551
	c0.1-0.235,0.17-0.405,0.209-0.51c0.018-0.045,0.057-0.162,0.119-0.354c0.063-0.189,0.117-0.353,0.172-0.49
	c0.014-0.037,0.031-0.081,0.053-0.129C82.953,59.408,82.986,59.335,83.029,59.237L83.029,59.237z M84.826,50.523l0.299,0.036
	c-0.029,0.284-0.002,0.488,0.088,0.615c0.086,0.127,0.248,0.206,0.488,0.235l3.811,0.468c0.271,0.033,0.441,0.023,0.518-0.03
	c0.077-0.053,0.13-0.192,0.156-0.416c0.004-0.027,0.006-0.064,0.01-0.112c0.002-0.047,0.007-0.081,0.009-0.104l0.266,0.032
	c0.021,0.343,0.025,0.694,0.016,1.057c-0.014,0.361-0.041,0.726-0.086,1.092c-0.09,0.731-0.325,1.298-0.707,1.696
	c-0.385,0.398-0.844,0.564-1.383,0.498c-0.457-0.056-0.813-0.272-1.063-0.651c-0.252-0.377-0.343-0.839-0.275-1.386
	c0.012-0.067,0.025-0.136,0.043-0.207c0.016-0.068,0.039-0.147,0.072-0.237l0.271,0.032l-0.012,0.09
	c-0.045,0.359,0.02,0.636,0.193,0.826c0.174,0.189,0.467,0.312,0.877,0.361c0.475,0.059,0.85,0.013,1.127-0.138
	c0.276-0.149,0.436-0.394,0.477-0.729c0.023-0.188-0.012-0.328-0.104-0.423c-0.095-0.097-0.254-0.159-0.482-0.187l-3.844-0.472
	c-0.299-0.037-0.492-0.012-0.586,0.073c-0.09,0.086-0.158,0.28-0.207,0.583l-0.283-0.035c0.004-0.048,0.008-0.102,0.014-0.156
	c0.004-0.056,0.015-0.135,0.027-0.24c0.016-0.135,0.041-0.305,0.074-0.511c0.033-0.207,0.055-0.345,0.063-0.41
	c0.008-0.07,0.021-0.208,0.037-0.413c0.021-0.203,0.035-0.371,0.053-0.504c0.011-0.089,0.019-0.157,0.025-0.204
	C84.808,50.606,84.818,50.563,84.826,50.523L84.826,50.523z M84.5,40.29l0.293-0.025l0.004,0.048c0.02,0.217,0.08,0.379,0.182,0.485
	c0.103,0.106,0.32,0.205,0.654,0.295l1.586,0.431c0.672,0.182,1.281,0.337,1.83,0.464c0.549,0.126,0.975,0.21,1.275,0.252
	l0.479,0.509l0.008,0.088c-0.092,0.045-0.194,0.094-0.313,0.149c-0.117,0.055-0.244,0.118-0.386,0.19l-4.346,2.222
	c-0.178,0.089-0.295,0.165-0.354,0.229c-0.06,0.064-0.09,0.137-0.095,0.219l-0.02,0.336l-0.283,0.025l-0.021-0.235
	c-0.013-0.133-0.023-0.313-0.035-0.542c-0.015-0.229-0.023-0.391-0.031-0.485c-0.004-0.054-0.02-0.184-0.047-0.388
	c-0.023-0.204-0.045-0.386-0.059-0.542l-0.021-0.255l0.283-0.024l0.051,0.297c0.018,0.108,0.062,0.191,0.129,0.247
	c0.07,0.059,0.156,0.083,0.26,0.074c0.025-0.002,0.056-0.008,0.084-0.016c0.029-0.008,0.064-0.021,0.109-0.042l1.232-0.635
	l-0.162-1.839l-1.095-0.269c-0.1-0.023-0.18-0.04-0.241-0.047c-0.06-0.008-0.109-0.012-0.146-0.008
	c-0.146,0.013-0.244,0.065-0.293,0.161c-0.051,0.093-0.074,0.285-0.072,0.573l-0.27,0.023l-0.014-0.157
	c-0.015-0.149-0.025-0.334-0.037-0.553c-0.013-0.22-0.021-0.364-0.025-0.43c-0.004-0.052-0.02-0.17-0.045-0.354
	C84.53,40.577,84.512,40.42,84.5,40.29L84.5,40.29z M87.15,41.921l0.136,1.543l2.047-1.032c-0.179-0.029-0.365-0.069-0.564-0.113
	c-0.199-0.045-0.444-0.106-0.735-0.181L87.15,41.921z M82.376,32.783c0.178-0.067,0.352-0.136,0.52-0.208
	c0.166-0.073,0.33-0.149,0.492-0.229l0.107,0.314c-0.302,0.218-0.5,0.463-0.601,0.734c-0.102,0.271-0.098,0.559,0.006,0.863
	c0.107,0.313,0.291,0.542,0.552,0.686c0.258,0.146,0.526,0.17,0.805,0.075c0.225-0.078,0.393-0.216,0.504-0.413
	c0.111-0.197,0.207-0.585,0.281-1.161c0.084-0.648,0.219-1.12,0.401-1.414c0.187-0.294,0.457-0.504,0.818-0.629
	c0.465-0.159,0.904-0.124,1.314,0.108c0.414,0.232,0.711,0.613,0.893,1.141c0.074,0.216,0.119,0.438,0.133,0.663
	c0.012,0.226-0.008,0.469-0.059,0.728l-0.279,0.097c-0.092,0.031-0.193,0.067-0.301,0.107c-0.105,0.039-0.246,0.092-0.422,0.158
	l-0.101-0.289c0.316-0.181,0.531-0.396,0.648-0.644c0.115-0.25,0.121-0.52,0.021-0.813c-0.094-0.27-0.25-0.46-0.473-0.574
	c-0.221-0.115-0.461-0.128-0.717-0.04c-0.185,0.063-0.334,0.178-0.447,0.344c-0.113,0.165-0.188,0.376-0.219,0.631
	c-0.014,0.086-0.029,0.214-0.051,0.382c-0.099,0.796-0.207,1.291-0.332,1.482c-0.129,0.202-0.271,0.365-0.42,0.491
	c-0.152,0.125-0.324,0.222-0.517,0.287c-0.5,0.173-0.975,0.131-1.426-0.125c-0.447-0.254-0.773-0.673-0.973-1.252
	c-0.076-0.223-0.129-0.459-0.156-0.71C82.357,33.324,82.355,33.061,82.376,32.783z M80.134,65.572L80.4,65.74l-0.129,0.273
	c-0.067,0.146-0.076,0.271-0.022,0.375c0.053,0.104,0.211,0.24,0.477,0.405l3.064,1.915c0.315,0.197,0.535,0.277,0.657,0.238
	c0.123-0.038,0.273-0.188,0.455-0.444l0.242,0.151c-0.061,0.09-0.151,0.229-0.276,0.418c-0.257,0.387-0.443,0.679-0.566,0.877
	c-0.049,0.076-0.229,0.371-0.539,0.886c-0.313,0.517-0.604,0.995-0.881,1.44l-0.242-0.15c-0.121-0.076-0.246-0.152-0.377-0.229
	c-0.129-0.076-0.266-0.152-0.404-0.229l0.154-0.278l0.021,0.014c0.271,0.17,0.502,0.22,0.688,0.146
	c0.187-0.071,0.41-0.315,0.668-0.729c0.23-0.368,0.34-0.61,0.33-0.727c-0.01-0.115-0.139-0.253-0.389-0.408l-1.388-0.867
	l-0.053,0.086l-0.088,0.143l-0.049,0.077c-0.244,0.39-0.377,0.655-0.402,0.798c-0.022,0.141,0.012,0.264,0.111,0.366l0.231,0.251
	l-0.143,0.227c-0.129-0.084-0.281-0.183-0.457-0.297c-0.176-0.113-0.277-0.182-0.311-0.201c-0.027-0.019-0.105-0.063-0.234-0.133
	s-0.242-0.136-0.338-0.195c-0.021-0.015-0.051-0.033-0.094-0.063c-0.041-0.028-0.074-0.052-0.099-0.067l0.183-0.23l0.051,0.031
	c0.223,0.14,0.41,0.184,0.563,0.129c0.154-0.053,0.318-0.217,0.492-0.498c0.058-0.09,0.113-0.184,0.17-0.281
	c0.058-0.1,0.113-0.206,0.174-0.318l-1.391-0.869c-0.305-0.189-0.525-0.274-0.662-0.256c-0.139,0.02-0.285,0.152-0.44,0.399
	l-0.529,0.851c-0.078,0.125-0.123,0.25-0.135,0.371c-0.013,0.125,0.012,0.243,0.067,0.362l0.312,0.646l-0.254,0.226
	c-0.134-0.167-0.267-0.325-0.398-0.476c-0.131-0.148-0.264-0.291-0.396-0.426c0.069-0.145,0.137-0.271,0.194-0.382
	c0.06-0.108,0.113-0.206,0.166-0.29c0.082-0.133,0.24-0.377,0.472-0.73c0.231-0.354,0.416-0.643,0.555-0.862
	c0.213-0.341,0.475-0.804,0.791-1.392C80.062,65.704,80.103,65.625,80.134,65.572L80.134,65.572z M75.056,72.809l0.199,0.207
	c-0.246,0.239-0.361,0.451-0.344,0.633c0.018,0.184,0.241,0.498,0.676,0.947l1.988,2.059c0.264,0.271,0.487,0.406,0.676,0.402
	c0.188-0.002,0.432-0.134,0.733-0.396l0.201,0.208c-0.02,0.027-0.039,0.053-0.061,0.074c-0.023,0.022-0.058,0.058-0.105,0.104
	c-0.088,0.085-0.233,0.217-0.438,0.393c-0.203,0.176-0.359,0.313-0.465,0.416c-0.054,0.051-0.148,0.148-0.285,0.293
	c-0.039,0.039-0.066,0.07-0.086,0.088c-0.297-0.029-0.734-0.076-1.313-0.139c-1.965-0.216-3.377-0.353-4.24-0.41l2.291,2.371
	c0.181,0.188,0.328,0.289,0.445,0.307c0.113,0.017,0.252-0.043,0.412-0.174l0.195-0.154l0.192,0.199l-0.086,0.082
	c-0.104,0.103-0.24,0.222-0.399,0.359c-0.16,0.137-0.265,0.23-0.314,0.277c-0.037,0.035-0.115,0.119-0.234,0.248
	c-0.118,0.13-0.225,0.236-0.313,0.322l-0.098,0.095l-0.209-0.218c0.213-0.205,0.319-0.383,0.323-0.531
	c0.002-0.148-0.102-0.333-0.311-0.551L72.23,78.4c-0.307-0.319-0.594-0.613-0.854-0.881c-0.265-0.267-0.5-0.502-0.713-0.709
	l0.323-0.312c1.201,0.157,2.992,0.336,5.377,0.532c0.449,0.037,0.787,0.064,1.009,0.084l-2.318-2.401
	c-0.203-0.21-0.355-0.354-0.457-0.437c-0.1-0.082-0.178-0.123-0.238-0.131c-0.069-0.006-0.153,0.016-0.25,0.066
	c-0.096,0.051-0.219,0.139-0.371,0.264l-0.207-0.215l0.093-0.088c0.104-0.104,0.244-0.229,0.416-0.38s0.284-0.254,0.34-0.308
	c0.037-0.035,0.108-0.112,0.219-0.232c0.11-0.119,0.203-0.219,0.283-0.296c0.043-0.041,0.076-0.073,0.102-0.095
	C75.005,72.844,75.031,72.824,75.056,72.809L75.056,72.809z M66.605,79.984c0.095,0.164,0.189,0.326,0.287,0.479
	c0.099,0.154,0.199,0.304,0.303,0.449l-0.293,0.155c-0.262-0.262-0.534-0.42-0.817-0.478c-0.285-0.057-0.568-0.01-0.854,0.144
	c-0.291,0.154-0.487,0.371-0.59,0.65c-0.104,0.276-0.086,0.545,0.051,0.805c0.113,0.211,0.275,0.355,0.488,0.435
	c0.211,0.08,0.609,0.112,1.189,0.097c0.653-0.019,1.141,0.041,1.459,0.176c0.319,0.138,0.569,0.373,0.75,0.711
	c0.229,0.435,0.264,0.873,0.098,1.314c-0.164,0.445-0.494,0.799-0.986,1.061c-0.201,0.106-0.412,0.186-0.635,0.233
	c-0.221,0.048-0.463,0.067-0.727,0.058l-0.14-0.262c-0.047-0.087-0.098-0.181-0.153-0.279c-0.056-0.1-0.13-0.229-0.224-0.393
	l0.271-0.145c0.229,0.285,0.475,0.464,0.737,0.539c0.267,0.074,0.533,0.039,0.808-0.105c0.25-0.134,0.414-0.318,0.492-0.557
	c0.08-0.235,0.055-0.475-0.072-0.713c-0.092-0.174-0.229-0.303-0.408-0.389c-0.182-0.088-0.402-0.127-0.658-0.119
	c-0.088,0.002-0.217,0.006-0.385,0.012c-0.803,0.027-1.309-0.004-1.516-0.096c-0.222-0.097-0.404-0.209-0.552-0.34
	c-0.147-0.13-0.271-0.285-0.364-0.464c-0.248-0.467-0.281-0.942-0.101-1.427c0.182-0.484,0.543-0.87,1.084-1.157
	c0.209-0.11,0.435-0.198,0.677-0.267C66.068,80.049,66.328,80.005,66.605,79.984L66.605,79.984z M72.003,14.297
	c0.33,0.261,0.641,0.388,0.936,0.38c0.291-0.007,0.547-0.148,0.765-0.423c0.213-0.268,0.303-0.545,0.271-0.833
	c-0.033-0.285-0.184-0.535-0.451-0.747c-0.146-0.116-0.268-0.168-0.36-0.154c-0.095,0.015-0.22,0.12-0.375,0.318l-1.013,1.278
	L72.003,14.297z M68.291,15.545l0.188-0.236l0.056,0.043c0.19,0.151,0.362,0.224,0.514,0.217c0.147-0.007,0.291-0.093,0.422-0.258
	l2.314-2.922c0.229-0.293,0.35-0.49,0.356-0.593c0.006-0.102-0.055-0.218-0.184-0.343l-0.248-0.237l0.174-0.221
	c0.041,0.025,0.08,0.053,0.119,0.081c0.039,0.029,0.094,0.072,0.162,0.128c0.106,0.084,0.233,0.189,0.381,0.319
	c0.146,0.128,0.246,0.213,0.299,0.253c0.113,0.091,0.287,0.22,0.521,0.385c0.233,0.166,0.405,0.293,0.516,0.381
	c0.484,0.384,0.793,0.789,0.922,1.215c0.129,0.427,0.066,0.802-0.191,1.127c-0.194,0.247-0.442,0.383-0.741,0.41
	c-0.3,0.025-0.646-0.062-1.039-0.259c0.112,0.421,0.098,1.073-0.045,1.958c-0.064,0.395-0.104,0.694-0.121,0.899
	c-0.021,0.233,0,0.434,0.061,0.601c0.062,0.166,0.16,0.306,0.301,0.417l0.039,0.03l-0.182,0.229
	c-0.023-0.015-0.049-0.031-0.078-0.052c-0.024-0.02-0.065-0.051-0.117-0.091c-0.063-0.05-0.151-0.128-0.271-0.229
	c-0.115-0.104-0.205-0.179-0.262-0.224c-0.063-0.05-0.132-0.103-0.205-0.154c-0.074-0.055-0.185-0.131-0.33-0.229
	c0.004-0.426,0.057-0.924,0.16-1.494c0.104-0.572,0.159-0.896,0.17-0.975c0-0.004,0-0.009,0-0.015
	c0.08-0.608,0.012-0.997-0.205-1.169l-0.188-0.148l-1.203,1.521c-0.186,0.234-0.266,0.412-0.237,0.532
	c0.024,0.122,0.155,0.281,0.389,0.481l-0.176,0.223c-0.027-0.021-0.07-0.053-0.127-0.095c-0.058-0.042-0.099-0.073-0.125-0.094
	c-0.115-0.092-0.261-0.212-0.435-0.358c-0.174-0.147-0.289-0.244-0.348-0.291c-0.051-0.04-0.174-0.132-0.365-0.273
	c-0.19-0.143-0.354-0.268-0.492-0.375L68.291,15.545z M60.75,5.678l0.102-0.257l0.191,0.075c0.137,0.054,0.313,0.128,0.526,0.227
	c0.218,0.097,0.363,0.16,0.445,0.192c0.086,0.033,0.262,0.096,0.525,0.183c0.263,0.087,0.479,0.164,0.653,0.231l0.117,0.046
	l-0.104,0.256c-0.289-0.104-0.494-0.134-0.617-0.088c-0.125,0.044-0.238,0.201-0.346,0.472l-0.888,2.264
	c-0.168,0.432-0.271,0.74-0.313,0.921c-0.039,0.184-0.045,0.34-0.021,0.469c0.043,0.224,0.154,0.428,0.332,0.612
	c0.179,0.184,0.406,0.332,0.685,0.44c0.561,0.22,1.039,0.235,1.438,0.05c0.398-0.187,0.713-0.575,0.943-1.166l0.834-2.132
	c0.149-0.383,0.199-0.642,0.147-0.777c-0.053-0.137-0.219-0.269-0.5-0.399L65,7.038l0.108,0.043c0.134,0.052,0.291,0.12,0.478,0.21
	c0.184,0.089,0.307,0.144,0.367,0.168c0.049,0.019,0.151,0.055,0.313,0.109c0.16,0.055,0.295,0.104,0.402,0.146l0.156,0.061
	l-0.107,0.26c-0.168-0.051-0.305-0.084-0.41-0.095c-0.104-0.013-0.184-0.005-0.236,0.021c-0.055,0.027-0.11,0.094-0.168,0.196
	c-0.059,0.104-0.135,0.274-0.229,0.518l-0.648,1.659c-0.229,0.588-0.428,0.998-0.59,1.231c-0.162,0.232-0.354,0.415-0.578,0.547
	c-0.305,0.181-0.647,0.271-1.03,0.273c-0.384,0.001-0.806-0.088-1.267-0.27c-0.729-0.286-1.221-0.656-1.463-1.109
	c-0.244-0.453-0.242-0.994,0.004-1.62c0.023-0.061,0.152-0.368,0.385-0.921c0.236-0.554,0.449-1.076,0.644-1.572l0.031-0.08
	c0.147-0.38,0.19-0.633,0.127-0.755C61.224,5.937,61.044,5.809,60.75,5.678L60.75,5.678z M50.699,9.117l0.038-0.29
	c0.31,0.037,0.521,0.001,0.636-0.11c0.112-0.112,0.203-0.409,0.266-0.897l0.519-3.997L51.77,3.772
	c-0.379-0.049-0.651-0.053-0.821-0.014c-0.171,0.04-0.308,0.13-0.414,0.273l-0.293,0.38l-0.246-0.105
	c0.098-0.292,0.182-0.563,0.248-0.815c0.069-0.253,0.12-0.479,0.153-0.684l0.289,0.058c0.053,0.15,0.125,0.258,0.224,0.324
	c0.1,0.068,0.282,0.12,0.557,0.155l2.586,0.335c0.271,0.035,0.492,0.028,0.66-0.021c0.168-0.049,0.305-0.146,0.404-0.293l0.282,0.07
	c-0.075,0.162-0.194,0.579-0.358,1.252c-0.027,0.11-0.049,0.191-0.064,0.247l-0.299-0.071c0-0.005,0.004-0.014,0.008-0.024
	c0.019-0.078,0.029-0.139,0.035-0.18c0.025-0.192-0.027-0.333-0.156-0.419c-0.127-0.087-0.432-0.161-0.908-0.224l-0.407-0.053
	L52.74,7.884c-0.066,0.511-0.06,0.84,0.021,0.985c0.082,0.146,0.271,0.238,0.574,0.277l-0.037,0.282l-0.023-0.004
	c-0.151-0.008-0.264-0.017-0.334-0.026c-0.135-0.018-0.305-0.046-0.512-0.085c-0.207-0.041-0.346-0.066-0.42-0.075
	c-0.078-0.011-0.24-0.021-0.482-0.035c-0.241-0.012-0.442-0.028-0.604-0.049c-0.021-0.003-0.057-0.009-0.107-0.019
	C50.761,9.127,50.724,9.12,50.699,9.117L50.699,9.117z M42.732,9.083l-0.02-0.301l0.063-0.004c0.248-0.016,0.423-0.075,0.529-0.183
	c0.105-0.105,0.152-0.264,0.139-0.475l-0.245-3.9c-0.017-0.253-0.074-0.417-0.175-0.494c-0.102-0.078-0.313-0.129-0.635-0.156
	l-0.018-0.284c0.205-0.013,0.453-0.021,0.741-0.027c0.289-0.006,0.476-0.012,0.558-0.018c0.102-0.007,0.299-0.024,0.59-0.052
	c0.289-0.028,0.529-0.048,0.723-0.061l0.019,0.293c-0.301,0.02-0.496,0.073-0.59,0.161c-0.095,0.09-0.134,0.258-0.117,0.503
	l0.246,3.888c0.02,0.298,0.078,0.484,0.176,0.556c0.098,0.072,0.303,0.104,0.615,0.096l0.02,0.293
	c-0.022,0.001-0.059,0.005-0.104,0.01c-0.047,0.006-0.082,0.01-0.104,0.011c-0.141,0.01-0.34,0.018-0.594,0.026
	C44.293,8.973,44.11,8.981,44,8.987c-0.049,0.004-0.172,0.017-0.371,0.039c-0.199,0.023-0.371,0.04-0.519,0.05
	C43.072,9.078,43.025,9.08,42.97,9.08C42.921,9.081,42.839,9.082,42.732,9.083L42.732,9.083z M37.918,9.585
	c-0.242,0.214-0.51,0.399-0.803,0.56c-0.292,0.159-0.61,0.294-0.953,0.403c-0.99,0.313-1.866,0.304-2.629-0.029
	c-0.762-0.335-1.28-0.935-1.556-1.8c-0.129-0.405-0.178-0.801-0.143-1.185c0.032-0.382,0.146-0.746,0.338-1.088
	c0.216-0.376,0.501-0.698,0.855-0.966c0.354-0.269,0.777-0.479,1.271-0.637c0.323-0.104,0.646-0.167,0.975-0.193
	c0.327-0.027,0.662-0.017,1.009,0.029c0.062,0.129,0.155,0.316,0.282,0.562c0.127,0.244,0.209,0.418,0.243,0.519l-0.284,0.127
	c-0.259-0.353-0.576-0.592-0.952-0.715c-0.375-0.124-0.767-0.121-1.176,0.009c-0.595,0.188-1.008,0.573-1.242,1.153
	c-0.232,0.581-0.235,1.231-0.007,1.953c0.238,0.75,0.644,1.295,1.215,1.634c0.572,0.342,1.19,0.406,1.854,0.195
	c0.417-0.133,0.726-0.335,0.925-0.609c0.2-0.273,0.316-0.651,0.35-1.131l0.324-0.026c0.02,0.147,0.036,0.359,0.052,0.635
	C37.881,9.261,37.898,9.46,37.918,9.585L37.918,9.585z M25.445,15.274c-0.104-0.16-0.209-0.313-0.315-0.461
	s-0.218-0.291-0.331-0.431l0.283-0.175c0.277,0.246,0.562,0.387,0.848,0.426c0.286,0.038,0.567-0.026,0.842-0.195
	c0.281-0.173,0.465-0.402,0.549-0.687c0.085-0.284,0.051-0.552-0.104-0.801c-0.125-0.203-0.296-0.338-0.514-0.403
	s-0.615-0.072-1.193-0.021c-0.651,0.061-1.142,0.032-1.468-0.082c-0.328-0.116-0.593-0.337-0.792-0.662
	c-0.258-0.419-0.319-0.854-0.183-1.307c0.137-0.454,0.442-0.827,0.917-1.12c0.194-0.119,0.4-0.21,0.618-0.272
	s0.46-0.097,0.724-0.104l0.154,0.253c0.053,0.083,0.108,0.173,0.171,0.269c0.063,0.095,0.145,0.221,0.247,0.377l-0.261,0.16
	c-0.245-0.269-0.502-0.433-0.771-0.49c-0.27-0.057-0.533-0.005-0.798,0.156c-0.241,0.149-0.395,0.344-0.458,0.585
	c-0.063,0.241-0.022,0.479,0.118,0.709c0.104,0.167,0.247,0.287,0.434,0.361c0.188,0.075,0.407,0.101,0.664,0.077
	c0.088-0.007,0.215-0.02,0.384-0.036c0.799-0.078,1.306-0.078,1.519,0.001c0.228,0.081,0.416,0.183,0.571,0.302
	c0.156,0.121,0.287,0.269,0.394,0.441c0.277,0.45,0.342,0.924,0.189,1.417c-0.15,0.494-0.488,0.902-1.009,1.224
	c-0.201,0.124-0.42,0.227-0.659,0.308C25.977,15.173,25.72,15.234,25.445,15.274L25.445,15.274z M17.661,22.383l-0.209-0.205
	l0.033-0.034c0.151-0.155,0.235-0.306,0.249-0.454c0.016-0.146-0.053-0.375-0.201-0.688l-0.705-1.482
	c-0.301-0.63-0.578-1.193-0.841-1.692c-0.261-0.498-0.475-0.876-0.638-1.132l0.072-0.695l0.063-0.063
	c0.094,0.04,0.198,0.087,0.315,0.14c0.118,0.053,0.249,0.108,0.396,0.167l4.517,1.853c0.183,0.077,0.316,0.117,0.403,0.12
	c0.087,0.003,0.161-0.021,0.228-0.071l0.268-0.204l0.203,0.199l-0.165,0.168c-0.093,0.096-0.222,0.223-0.388,0.381
	c-0.166,0.157-0.282,0.271-0.349,0.339c-0.037,0.039-0.126,0.135-0.265,0.287c-0.14,0.153-0.264,0.286-0.374,0.398l-0.178,0.182
	l-0.204-0.199l0.192-0.231c0.069-0.084,0.104-0.17,0.104-0.259c-0.001-0.091-0.038-0.172-0.111-0.245
	c-0.02-0.018-0.042-0.036-0.066-0.053c-0.026-0.018-0.06-0.037-0.104-0.057l-1.282-0.521l-1.292,1.32l0.509,1.004
	c0.047,0.091,0.088,0.164,0.121,0.214c0.033,0.052,0.063,0.092,0.09,0.117c0.104,0.104,0.209,0.143,0.313,0.118
	c0.104-0.022,0.266-0.129,0.481-0.319l0.194,0.19l-0.11,0.113c-0.104,0.107-0.237,0.236-0.396,0.388
	c-0.159,0.151-0.265,0.251-0.311,0.3c-0.036,0.036-0.117,0.124-0.241,0.264C17.86,22.174,17.752,22.289,17.661,22.383L17.661,22.383
	z M17.173,19.311l1.083-1.108l-2.114-0.88c0.092,0.154,0.185,0.322,0.28,0.502c0.095,0.18,0.209,0.405,0.343,0.677L17.173,19.311z
	 M11.792,31.51l-0.254-0.138c0.163-0.303,0.209-0.539,0.138-0.707c-0.073-0.169-0.384-0.401-0.932-0.697l-2.521-1.36
	c-0.332-0.18-0.587-0.24-0.765-0.18c-0.18,0.059-0.372,0.258-0.581,0.6l-0.255-0.137c0.012-0.032,0.022-0.063,0.036-0.091
	c0.014-0.028,0.036-0.071,0.068-0.131c0.06-0.107,0.157-0.276,0.298-0.505c0.143-0.229,0.248-0.408,0.317-0.536
	c0.034-0.065,0.097-0.188,0.184-0.367c0.023-0.05,0.042-0.086,0.056-0.11c0.292-0.062,0.723-0.148,1.293-0.264
	c1.938-0.39,3.325-0.688,4.166-0.894l-2.901-1.566c-0.229-0.124-0.399-0.176-0.517-0.156c-0.114,0.019-0.229,0.116-0.341,0.289
	l-0.141,0.208l-0.244-0.132l0.057-0.105c0.069-0.129,0.162-0.283,0.271-0.463c0.112-0.18,0.185-0.3,0.216-0.36
	c0.024-0.045,0.073-0.147,0.148-0.308s0.144-0.293,0.203-0.403l0.063-0.119l0.266,0.144c-0.141,0.26-0.189,0.462-0.146,0.605
	c0.042,0.144,0.197,0.286,0.462,0.43l2.352,1.271c0.391,0.21,0.752,0.403,1.083,0.578c0.331,0.174,0.629,0.327,0.894,0.46
	l-0.214,0.396c-1.192,0.213-2.955,0.586-5.286,1.119c-0.439,0.102-0.77,0.178-0.987,0.227l2.938,1.587
	c0.257,0.139,0.446,0.231,0.566,0.277c0.118,0.048,0.208,0.064,0.267,0.053c0.069-0.015,0.144-0.062,0.219-0.139
	c0.076-0.077,0.167-0.199,0.275-0.363l0.261,0.142l-0.061,0.111c-0.069,0.129-0.163,0.291-0.282,0.487
	c-0.117,0.197-0.194,0.329-0.23,0.396c-0.024,0.045-0.069,0.141-0.14,0.288c-0.065,0.147-0.126,0.269-0.179,0.366
	c-0.028,0.054-0.051,0.094-0.067,0.122C11.83,31.46,11.81,31.487,11.792,31.51L11.792,31.51z M9.416,53.893
	c0.064,0.36,0.07,0.715,0.018,1.064s-0.165,0.678-0.333,0.98c-0.232,0.431-0.529,0.777-0.887,1.041
	c-0.358,0.264-0.77,0.438-1.236,0.522c-0.392,0.07-0.781,0.063-1.167-0.021c-0.385-0.084-0.751-0.243-1.097-0.476
	c-0.38-0.256-0.684-0.563-0.908-0.918C3.58,55.73,3.424,55.31,3.337,54.831c-0.077-0.429-0.088-0.836-0.031-1.223
	c0.057-0.389,0.175-0.739,0.357-1.058c0.22-0.384,0.503-0.704,0.85-0.957c0.348-0.255,0.72-0.418,1.121-0.49
	c0.395-0.072,0.777-0.065,1.15,0.018c0.371,0.086,0.739,0.25,1.104,0.495c0.412,0.281,0.749,0.616,1.01,1.004
	C9.16,53.01,9.333,53.434,9.416,53.893L9.416,53.893z M6.336,52.139c-0.404,0.073-0.79,0.205-1.154,0.396
	c-0.366,0.192-0.669,0.422-0.909,0.688c-0.238,0.264-0.402,0.535-0.494,0.811c-0.089,0.277-0.106,0.567-0.053,0.872
	c0.108,0.593,0.4,1.029,0.876,1.313c0.478,0.282,1.061,0.359,1.748,0.234c0.29-0.052,0.569-0.132,0.835-0.241
	c0.269-0.109,0.511-0.242,0.731-0.398c0.397-0.276,0.688-0.602,0.871-0.976c0.184-0.375,0.238-0.762,0.167-1.159
	c-0.101-0.555-0.4-0.979-0.898-1.273C7.558,52.11,6.985,52.022,6.336,52.139L6.336,52.139z M8.371,68.639l2.788-3.377l-2.707,0.223
	c-0.335,0.027-0.626,0.054-0.875,0.078c-0.249,0.026-0.491,0.06-0.729,0.096c-0.029-0.043-0.059-0.092-0.086-0.143
	c-0.027-0.052-0.068-0.129-0.121-0.232C6.587,65.18,6.507,65.018,6.4,64.795C6.294,64.57,6.21,64.4,6.149,64.283
	c-0.048-0.094-0.084-0.159-0.106-0.204c-0.024-0.043-0.048-0.086-0.071-0.125l0.256-0.132l0.065,0.125
	c0.103,0.199,0.196,0.314,0.287,0.345c0.09,0.03,0.229-0.001,0.42-0.101l3.185-1.641c0.465-0.24,0.727-0.431,0.781-0.572
	c0.055-0.143,0.017-0.342-0.114-0.604l0.245-0.127l0.066,0.13c0.065,0.128,0.15,0.304,0.257,0.522
	c0.104,0.221,0.181,0.377,0.228,0.468c0.024,0.048,0.096,0.172,0.211,0.376c0.117,0.203,0.219,0.386,0.303,0.551l0.113,0.221
	l-0.261,0.135l-0.15-0.237c-0.11-0.183-0.227-0.283-0.344-0.3c-0.116-0.018-0.357,0.07-0.724,0.259l-2.281,1.176
	c-0.131,0.067-0.282,0.147-0.456,0.245c-0.173,0.096-0.39,0.221-0.649,0.371c1.472-0.087,2.679-0.178,3.619-0.271
	c0.942-0.093,1.568-0.185,1.878-0.273l0.121,0.18c-0.451,0.444-0.964,0.997-1.538,1.659c-0.571,0.664-1.191,1.423-1.856,2.274
	l3.364-1.629l0.084-0.045c0.21-0.106,0.327-0.226,0.354-0.354s-0.021-0.314-0.145-0.561l0.254-0.131
	c0.017,0.027,0.035,0.059,0.055,0.094c0.021,0.033,0.046,0.086,0.081,0.152c0.049,0.096,0.104,0.211,0.164,0.344
	s0.097,0.215,0.113,0.246c0.037,0.072,0.098,0.182,0.183,0.326c0.083,0.146,0.146,0.258,0.186,0.336
	c0.009,0.018,0.021,0.045,0.039,0.084c0.018,0.041,0.03,0.069,0.041,0.09l-0.241,0.123c-0.077-0.136-0.146-0.244-0.206-0.322
	c-0.063-0.08-0.113-0.127-0.158-0.143c-0.082-0.029-0.216-0.014-0.403,0.045c-0.186,0.059-0.449,0.168-0.791,0.327l-2.646,1.25
	l-0.195,0.101c-0.223,0.115-0.355,0.225-0.404,0.332c-0.047,0.106-0.042,0.252,0.016,0.44l0.103,0.321l-0.242,0.125
	c-0.044-0.094-0.091-0.186-0.135-0.273c-0.045-0.09-0.098-0.195-0.16-0.316c-0.088-0.172-0.179-0.344-0.271-0.516
	C8.575,69.005,8.475,68.825,8.371,68.639L8.371,68.639z M20.052,74.375l-0.236,0.207L19.59,74.38
	c-0.12-0.106-0.237-0.149-0.354-0.131c-0.115,0.021-0.291,0.134-0.525,0.34l-2.716,2.384c-0.28,0.246-0.42,0.434-0.419,0.562
	c0.003,0.13,0.101,0.315,0.296,0.565l-0.214,0.188c-0.069-0.084-0.178-0.212-0.321-0.385c-0.298-0.356-0.522-0.621-0.676-0.797
	c-0.062-0.067-0.291-0.326-0.694-0.771s-0.778-0.865-1.126-1.258l0.214-0.188c0.109-0.096,0.218-0.193,0.329-0.295
	c0.109-0.104,0.222-0.211,0.336-0.322l0.223,0.229l-0.019,0.018c-0.242,0.213-0.355,0.418-0.339,0.617
	c0.016,0.2,0.186,0.483,0.507,0.85c0.287,0.326,0.487,0.504,0.601,0.527s0.281-0.062,0.504-0.257l1.229-1.077L16.358,75.1
	l-0.108-0.125l-0.061-0.066c-0.303-0.346-0.52-0.551-0.647-0.615c-0.128-0.063-0.256-0.063-0.383,0.003l-0.308,0.147l-0.178-0.2
	c0.118-0.101,0.257-0.218,0.417-0.353c0.159-0.135,0.255-0.215,0.282-0.238c0.024-0.022,0.089-0.084,0.193-0.188
	c0.104-0.103,0.199-0.19,0.285-0.267c0.02-0.018,0.047-0.039,0.087-0.071c0.04-0.03,0.071-0.058,0.093-0.075l0.17,0.241l-0.047,0.04
	c-0.195,0.173-0.291,0.339-0.284,0.502c0.006,0.163,0.116,0.367,0.336,0.616c0.068,0.079,0.144,0.161,0.221,0.243
	c0.078,0.082,0.164,0.168,0.256,0.258l1.232-1.081c0.27-0.235,0.414-0.423,0.436-0.562c0.022-0.138-0.063-0.316-0.257-0.537
	l-0.66-0.752c-0.098-0.11-0.204-0.189-0.317-0.235c-0.114-0.048-0.236-0.06-0.366-0.039l-0.709,0.112l-0.143-0.31
	c0.198-0.079,0.389-0.159,0.569-0.243c0.181-0.082,0.354-0.17,0.521-0.259c0.118,0.108,0.223,0.208,0.312,0.298
	c0.088,0.086,0.164,0.168,0.229,0.241c0.104,0.118,0.291,0.339,0.564,0.663c0.271,0.322,0.494,0.582,0.666,0.777
	c0.265,0.302,0.633,0.688,1.104,1.158C19.948,74.27,20.01,74.332,20.052,74.375L20.052,74.375z M28.794,80.9l-0.156,0.244
	c-0.29-0.188-0.521-0.25-0.695-0.191c-0.173,0.061-0.429,0.354-0.766,0.877l-1.548,2.408c-0.204,0.316-0.283,0.566-0.237,0.748
	c0.046,0.184,0.229,0.391,0.555,0.625l-0.156,0.242c-0.03-0.014-0.061-0.026-0.086-0.041c-0.028-0.018-0.068-0.043-0.126-0.08
	c-0.104-0.065-0.265-0.178-0.48-0.336c-0.217-0.158-0.389-0.276-0.511-0.355c-0.063-0.04-0.18-0.109-0.354-0.211
	c-0.047-0.027-0.083-0.049-0.104-0.063c-0.039-0.295-0.093-0.731-0.165-1.31c-0.241-1.961-0.434-3.368-0.574-4.222l-1.782,2.772
	c-0.141,0.22-0.206,0.388-0.194,0.503c0.01,0.116,0.099,0.237,0.263,0.362l0.196,0.153l-0.15,0.234l-0.1-0.064
	c-0.123-0.079-0.271-0.182-0.441-0.307c-0.171-0.125-0.285-0.205-0.343-0.242c-0.043-0.026-0.144-0.084-0.296-0.172
	c-0.153-0.086-0.282-0.164-0.388-0.231l-0.112-0.072l0.163-0.254c0.248,0.16,0.445,0.226,0.592,0.192
	c0.146-0.031,0.301-0.174,0.464-0.428l1.444-2.248c0.24-0.373,0.461-0.719,0.66-1.037c0.197-0.315,0.372-0.602,0.525-0.854
	l0.377,0.242c0.121,1.206,0.36,2.99,0.715,5.355c0.068,0.446,0.118,0.781,0.15,1.002l1.806-2.81
	c0.158-0.246,0.266-0.427,0.319-0.544c0.057-0.115,0.08-0.203,0.073-0.262c-0.011-0.07-0.051-0.147-0.122-0.229
	c-0.072-0.079-0.187-0.18-0.341-0.3l0.159-0.25l0.106,0.068c0.124,0.08,0.278,0.186,0.465,0.318c0.188,0.133,0.313,0.219,0.378,0.26
	c0.043,0.028,0.135,0.08,0.276,0.16c0.142,0.078,0.259,0.146,0.353,0.207c0.05,0.031,0.089,0.057,0.116,0.076
	S28.773,80.88,28.794,80.9L28.794,80.9z"/>
<path fill="#FFFFFF" d="M61.495,70.784c4.192-2.815,8.68-5.185,13.389-7.21c-1.296,2.076-2.825,3.98-4.537,5.682
	c-3.696,1.54-6.035,2.46-11.799,5.702c-1.479,1.073-2.805,2.045-3.989,2.937c-0.851,0.192-1.702,0.344-2.572,0.467
	C54.984,75.574,58.143,73.042,61.495,70.784z M44.978,78.542c0.264,0.021,0.526,0.041,0.789,0.05
	c2.462-2.105,5.702-4.566,10.727-8.162c5.983-3.353,8.313-4.213,12.436-5.904c1.753-0.729,3.879-1.529,6.888-2.521
	c0.829-1.509,1.539-3.088,2.126-4.75c-6.836,2.48-13.287,5.54-19.149,9.489C53.798,70.105,49.232,74.096,44.978,78.542z
	 M39.417,77.579c0.091,0.03,0.192,0.062,0.284,0.081c0.304-0.314,0.606-0.618,0.922-0.922c3.018-2.946,6.732-5.854,13.803-10.836
	c5.854-3.271,8.265-4.162,12.376-5.822c2.572-1.033,5.883-2.229,11.484-3.89c0.363-1.134,0.668-2.299,0.899-3.493
	c0.063-0.294,0.112-0.598,0.152-0.891c-8.375,2.704-16.234,6.167-23.262,10.896C49.951,66.824,44.471,71.889,39.417,77.579z
	 M43.56,14.557h-0.011c-5.154,2.126-10.036,4.659-14.583,7.717c-2.814,1.894-5.489,3.98-8.05,6.249
	c-0.314,0.466-0.618,0.942-0.902,1.428c4.284-3.454,8.952-6.421,13.834-9.307c4.457-2.411,7.667-3.676,11.738-4.983
	c1.315-0.425,2.754-0.84,4.365-1.276C47.783,14.223,45.646,14.294,43.56,14.557z M55.409,15.266
	C46.861,18,38.84,21.505,31.681,26.315c-5.69,3.829-10.827,8.467-15.565,13.672v0.011c-0.021,0.05-0.03,0.091-0.041,0.142
	c1.185-1.236,2.399-2.42,3.667-3.544c4.77-4.264,10.156-7.788,16.162-11.424c4.599-2.501,7.728-3.727,11.81-5.063
	c3.079-1.013,6.744-2.005,12.213-3.362C58.478,16.147,56.968,15.651,55.409,15.266z M62.539,17.97
	c-10.198,2.906-19.771,6.745-28.154,12.385c-7.049,4.75-13.237,10.745-18.908,17.5v0.031c2.106-2.471,4.253-4.74,6.583-6.836
	c4.577-4.112,9.782-7.565,15.91-11.353c4.729-2.583,7.778-3.778,11.859-5.155c3.687-1.246,8.305-2.491,16.204-4.456
	C64.917,19.307,63.754,18.598,62.539,17.97z M67.703,21.332C56.584,24.32,46.153,28.31,37.099,34.396
	c-7.808,5.257-14.553,12.042-20.721,19.698l-0.01,0.01c0,0.01,0.01,0.02,0.01,0.02c2.603-3.21,5.155-6.036,8.001-8.608
	c4.385-3.97,9.396-7.362,15.646-11.292c4.872-2.673,7.85-3.818,11.932-5.236c3.948-1.367,9.054-2.785,18.531-5.145
	C69.618,22.953,68.686,22.112,67.703,21.332z M71.643,25.059c-11.576,3.008-22.441,7.069-31.831,13.378
	c-8.224,5.53-15.261,12.761-21.672,20.903c0,0.01,0,0.01,0.01,0.02c2.846-3.595,5.521-6.623,8.548-9.388
	c4.192-3.818,9.022-7.14,15.383-11.221c5.014-2.755,7.91-3.869,11.99-5.328c4.041-1.427,9.367-2.947,19.778-5.58
	C73.163,26.872,72.422,25.95,71.643,25.059z M74.641,29.029c-11.697,3.028-22.665,7.1-32.125,13.459
	c-8.354,5.61-15.483,12.993-21.996,21.308c0,0.011,0.01,0.021,0.021,0.03c2.886-3.666,5.499-6.653,8.477-9.388
	c4-3.676,8.647-6.927,15.12-11.16c5.154-2.845,7.971-3.919,12.063-5.408c4-1.448,9.378-3.059,20.192-5.803
	C75.866,31.025,75.289,30.011,74.641,29.029z M76.919,33.181c-11.536,3.018-22.342,7.069-31.688,13.348
	c-8.285,5.57-15.374,12.872-21.835,21.106c0,0.01,0.012,0.02,0.031,0.029c2.725-3.453,5.145-6.198,7.909-8.77
	c3.809-3.524,8.264-6.715,14.868-11.1c5.286-2.917,8.021-3.959,12.11-5.479c3.899-1.448,9.165-3.079,19.892-5.843
	C77.841,35.349,77.415,34.255,76.919,33.181z M78.52,37.516C67.41,40.504,56.988,44.494,47.945,50.57
	c-8.03,5.408-14.938,12.426-21.236,20.346c0.01,0.02,0.03,0.041,0.041,0.029c2.39-2.967,4.507-5.336,6.905-7.584
	c3.606-3.383,7.891-6.501,14.604-11.04c5.428-3.008,8.081-4.01,12.183-5.57c3.707-1.408,8.75-3.018,18.907-5.691
	C79.148,39.855,78.874,38.671,78.52,37.516z M79.492,42.023C69.03,44.96,59.226,48.849,50.649,54.611
	C43.053,59.725,36.47,66.288,30.444,73.68c0.021,0.021,0.053,0.041,0.071,0.041c1.863-2.248,3.555-4.102,5.458-5.904
	c3.413-3.24,7.504-6.278,14.34-10.966c5.57-3.089,8.144-4.062,12.244-5.651c3.454-1.337,8.103-2.876,17.237-5.348
	C79.775,44.554,79.673,43.278,79.492,42.023z M34.658,75.93c0.041,0.02,0.08,0.029,0.121,0.049c1.154-1.326,2.289-2.521,3.525-3.695
	c3.21-3.1,7.118-6.077,14.066-10.907c5.711-3.18,8.203-4.112,12.313-5.742c3.079-1.205,7.182-2.633,14.808-4.76
	c0.191-1.377,0.294-2.754,0.304-4.111c-9.55,2.855-18.522,6.572-26.434,11.899C46.395,63.352,40.268,69.266,34.658,75.93z"/>
</svg>
