<?xml version="1.0" encoding="utf-8"?>
<!-- Generator: Adobe Illustrator 28.4.1, SVG Export Plug-In . SVG Version: 6.00 Build 0)  -->
<svg version="1.1" id="Vrstva_2_00000033329188428618859200000016112283586877733038_"
	 xmlns="http://www.w3.org/2000/svg" xmlns:xlink="http://www.w3.org/1999/xlink" x="0px" y="0px" viewBox="0 0 217.9 98"
	 style="enable-background:new 0 0 217.9 98;" xml:space="preserve">
<style type="text/css">
	.st0{fill:none;}
	.st1{fill:#00933B;stroke:#009640;stroke-width:2;stroke-miterlimit:10;}
	.st2{clip-path:url(#SVGID_00000138554822811356186370000001981418406350019723_);}
	.st3{clip-path:url(#SVGID_00000046341346404268789800000011428822258426755253_);}
	.st4{fill:#FFFFFF;stroke:#FFFFFF;stroke-width:2;stroke-miterlimit:10;}
	.st5{enable-background:new    ;}
	.st6{fill:#FFFFFF;}
	.st7{fill:#00933B;}
</style>
<g id="Vrstva_1-2">
	<g>
		<polygon class="st0" points="95,95 3,95 38.3,3 130.3,3 		"/>
		<g>
			<path class="st1" d="M95,97h-6.5c-1.1,0-2-0.9-2-2s0.9-2,2-2h5.1l1.8-4.8c0.4-1,1.6-1.5,2.6-1.2c1,0.4,1.6,1.6,1.2,2.6l-2.3,6.1
				C96.6,96.5,95.8,97,95,97L95,97z"/>
			<path class="st1" d="M77.2,97H65.9c-1.1,0-2-0.9-2-2s0.9-2,2-2h11.3c1.1,0,2,0.9,2,2S78.3,97,77.2,97z M54.6,97H43.3
				c-1.1,0-2-0.9-2-2s0.9-2,2-2h11.3c1.1,0,2,0.9,2,2S55.7,97,54.6,97z M32.1,97H20.8c-1.1,0-2-0.9-2-2s0.9-2,2-2h11.3
				c1.1,0,2,0.9,2,2S33.2,97,32.1,97z"/>
			<path class="st1" d="M9.5,97H3c-0.7,0-1.3-0.3-1.6-0.9s-0.4-1.2-0.2-1.8l2.3-6.1c0.4-1,1.6-1.5,2.6-1.2c1,0.4,1.6,1.6,1.2,2.6
				L5.9,93h3.6c1.1,0,2,0.9,2,2S10.6,97,9.5,97L9.5,97z"/>
			<path class="st1" d="M9.7,79.5c-0.2,0-0.5,0-0.7-0.1c-1-0.4-1.6-1.6-1.2-2.6l4.4-11.4c0.4-1,1.6-1.5,2.6-1.2
				c1,0.4,1.5,1.6,1.1,2.6l-4.4,11.4C11.3,79,10.5,79.5,9.7,79.5L9.7,79.5z M18.5,56.7c-0.2,0-0.5,0-0.7-0.1c-1-0.4-1.5-1.5-1.1-2.6
				L21,42.6c0.4-1,1.5-1.5,2.6-1.2c1,0.4,1.5,1.5,1.1,2.6l-4.4,11.4C20,56.2,19.3,56.7,18.5,56.7L18.5,56.7z M27.2,33.9
				c-0.2,0-0.5,0-0.7-0.1c-1-0.4-1.5-1.5-1.1-2.6l4.4-11.4c0.4-1,1.5-1.5,2.6-1.1c1,0.4,1.5,1.5,1.2,2.6l-4.4,11.4
				C28.8,33.4,28,33.9,27.2,33.9L27.2,33.9z"/>
			<path class="st1" d="M36,11.1c-0.2,0-0.5,0-0.7-0.1c-1-0.4-1.5-1.6-1.2-2.6l2.3-6.1c0.3-0.8,1-1.3,1.9-1.3h6.5c1.1,0,2,0.9,2,2
				s-0.9,2-2,2h-5.1l-1.8,4.8C37.5,10.6,36.8,11.1,36,11.1L36,11.1z"/>
			<path class="st1" d="M112.5,5h-11.3c-1.1,0-2-0.9-2-2s0.9-2,2-2h11.3c1.1,0,2,0.9,2,2S113.6,5,112.5,5z M90,5H78.7
				c-1.1,0-2-0.9-2-2s0.9-2,2-2H90c1.1,0,2,0.9,2,2S91.1,5,90,5z M67.4,5H56.1c-1.1,0-2-0.9-2-2s0.9-2,2-2h11.3c1.1,0,2,0.9,2,2
				S68.5,5,67.4,5z"/>
			<path class="st1" d="M128,11.1c-0.2,0-0.5,0-0.7-0.1c-1-0.4-1.6-1.6-1.2-2.6l1.3-3.4h-3.6c-1.1,0-2-0.9-2-2s0.9-2,2-2h6.5
				c0.7,0,1.3,0.3,1.6,0.9s0.4,1.2,0.2,1.9l-2.3,6.1C129.6,10.6,128.8,11.1,128,11.1L128,11.1z"/>
			<g>
				<defs>
					<rect id="SVGID_1_" x="88.8" y="70.8" width="25.7" height="9.4"/>
				</defs>
				<clipPath id="SVGID_00000173144091311443979650000007022160519115171215_">
					<use xlink:href="#SVGID_1_"  style="overflow:visible;"/>
				</clipPath>
				<g style="clip-path:url(#SVGID_00000173144091311443979650000007022160519115171215_);">
					<path class="st1" d="M101.7,79.5c-0.2,0-0.5,0-0.7-0.1c-1-0.4-1.6-1.6-1.2-2.6l4.4-11.4c0.4-1,1.6-1.5,2.6-1.2
						c1,0.4,1.6,1.6,1.2,2.6l-4.4,11.4C103.3,79,102.5,79.5,101.7,79.5L101.7,79.5z"/>
				</g>
			</g>
			<g>
				<defs>
					<rect id="SVGID_00000152240759955076770400000012242341464514210461_" x="110.8" y="15.7" width="24.6" height="11.3"/>
				</defs>
				<clipPath id="SVGID_00000067204118268821538990000008135773817127334048_">
					<use xlink:href="#SVGID_00000152240759955076770400000012242341464514210461_"  style="overflow:visible;"/>
				</clipPath>
				<g style="clip-path:url(#SVGID_00000067204118268821538990000008135773817127334048_);">
					<path class="st4" d="M119.2,33.9c-0.2,0-0.5,0-0.7-0.1c-1-0.4-1.6-1.5-1.2-2.6l4.4-11.4c0.4-1,1.6-1.5,2.6-1.1s1.6,1.5,1.2,2.6
						l-4.4,11.4C120.8,33.4,120,33.9,119.2,33.9L119.2,33.9z"/>
				</g>
			</g>
		</g>
	</g>
	<g class="st5">
		<path class="st6" d="M61.8,64.6h-6.6c-0.7,0-1.1-0.3-1.2-1l-7.8-29.9c-0.2-0.8,0.1-1.2,1-1.2H52c0.7,0,1.1,0.4,1.2,1.1l5.2,24.6
			h0.2l5.2-24.6c0.1-0.7,0.5-1.1,1.2-1.1h4.7c0.8,0,1.2,0.4,1,1.2L63,63.5C62.8,64.2,62.4,64.6,61.8,64.6z"/>
		<path class="st6" d="M81.4,33.5v30c0,0.7-0.4,1-1.1,1h-4.2c-0.7,0-1-0.3-1-1v-30c0-0.7,0.4-1.1,1-1.1h4.2
			C81,32.4,81.4,32.8,81.4,33.5z"/>
		<path class="st6" d="M105.6,64.6H89.2c-0.7,0-1-0.3-1-1v-30c0-0.7,0.4-1.1,1-1.1h4.2c0.7,0,1.1,0.4,1.1,1.1v25
			c0,0.4,0.2,0.5,0.6,0.5h10.5c0.7,0,1,0.4,1,1.1v3.4C106.6,64.2,106.3,64.6,105.6,64.6z"/>
		<path class="st6" d="M128,64.6h-16.3c-0.7,0-1-0.3-1-1v-30c0-0.7,0.3-1.1,1-1.1H128c0.7,0,1,0.4,1,1.1v3.4c0,0.7-0.3,1-1,1h-10.4
			c-0.4,0-0.6,0.2-0.6,0.6V45c0,0.4,0.2,0.5,0.6,0.5h8.5c0.7,0,1,0.3,1,1V50c0,0.7-0.3,1-1,1h-8.5c-0.4,0-0.6,0.2-0.6,0.5v7
			c0,0.4,0.2,0.5,0.6,0.5H128c0.7,0,1,0.3,1,1v3.4C129,64.2,128.6,64.6,128,64.6z"/>
		<path class="st6" d="M155.9,32.4h7.4c0.7,0,1,0.4,1,1.1v30c0,0.7-0.3,1-1,1h-4.1c-0.7,0-1-0.3-1-1V39.8h-0.2l-5.1,16.7
			c-0.2,0.7-0.6,1-1.2,1h-4.2c-0.6,0-1.1-0.3-1.2-1l-5.2-16.8h-0.2v23.7c0,0.4-0.1,0.7-0.2,0.8c-0.1,0.1-0.4,0.2-0.8,0.2h-4.1
			c-0.7,0-1-0.3-1-1v-30c0-0.7,0.4-1.1,1-1.1h7.5c0.5,0,0.8,0.2,1,0.7l5.3,17.6h0.3l5.4-17.6C155,32.7,155.3,32.4,155.9,32.4z"/>
	</g>
	<g class="st5">
		<path class="st7" d="M177.4,33.5v30c0,0.7-0.4,1-1.1,1h-4.2c-0.7,0-1-0.3-1-1v-30c0-0.7,0.4-1.1,1-1.1h4.2
			C177.1,32.4,177.4,32.8,177.4,33.5z"/>
		<path class="st7" d="M183.4,56.4v-1c0-0.7,0.3-1,1-1h4.2c0.7,0,1,0.3,1,1v0.4c0,1.3,0.2,2.1,0.8,2.6c0.5,0.5,1.4,0.7,2.8,0.7h2.3
			c1.3,0,2.2-0.2,2.7-0.8c0.5-0.5,0.8-1.4,0.8-2.8v-0.6c0-1-0.4-1.7-1.2-2.2c-0.8-0.5-1.8-0.8-2.9-0.9c-1.2-0.1-2.4-0.3-3.8-0.6
			c-1.3-0.3-2.6-0.7-3.8-1.1c-1.2-0.4-2.1-1.3-2.9-2.6c-0.8-1.3-1.2-3-1.2-5.1v-1.8c0-2.6,0.7-4.6,2.2-6c1.5-1.4,3.5-2.2,6.1-2.2h5
			c2.6,0,4.7,0.7,6.1,2.2c1.5,1.4,2.2,3.5,2.2,6v1c0,0.7-0.3,1-1,1h-4.2c-0.7,0-1-0.3-1-1v-0.3c0-1.3-0.2-2.2-0.8-2.7
			c-0.5-0.5-1.4-0.7-2.8-0.7h-2c-1.4,0-2.3,0.3-2.8,0.8c-0.5,0.5-0.7,1.5-0.7,3v0.9c0,1.6,1.4,2.5,4.1,2.7c2.8,0.2,5.4,0.8,7.5,1.7
			c1.2,0.5,2.1,1.4,2.9,2.7c0.8,1.3,1.2,2.9,1.2,4.9v1.7c0,2.6-0.7,4.6-2.2,6c-1.5,1.4-3.5,2.2-6.1,2.2h-5.5c-2.6,0-4.6-0.7-6.1-2.2
			C184.1,61,183.4,59,183.4,56.4z"/>
	</g>
</g>
</svg>
