<?xml version="1.0" encoding="UTF-8"?>
<svg id="Vrstva_1" data-name="Vrstva 1" xmlns="http://www.w3.org/2000/svg" viewBox="0 0 351 120">
  <defs>
    <style>
      .cls-1 {
        fill: #5ec2ee;
      }

      .cls-1, .cls-2, .cls-3, .cls-4, .cls-5 {
        stroke-width: 0px;
      }

      .cls-2, .cls-3 {
        fill: #fff;
      }

      .cls-3 {
        fill-rule: evenodd;
      }

      .cls-4 {
        fill: #e6007e;
      }

      .cls-5 {
        fill: #bccf0f;
      }
    </style>
  </defs>
  <g>
    <rect class="cls-2" y="52.71" width="66.62" height="67.29"/>
    <rect class="cls-2" x="19.06" y="8.24" width="31.43" height="31.74"/>
    <rect class="cls-2" x="66.62" y="0" width="52.2" height="52.71"/>
  </g>
  <path class="cls-2" d="m99.14,109.09l-11.17-34.7,3.34-1.2.19.56s.26.74.74,2.26c0,0,1.4,4.39,1.8,5.7l2.4,7.47c.87,2.68,1.69,5.22,2.43,7.62,0,0,2.64,8.17,2.79,8.65h7.69c.15-.49.42-1.34.81-2.54.44-1.3.92-2.78,1.46-4.45l3.02-9.28c.88-2.69,1.66-5.18,2.39-7.47.73-2.31,1.34-4.2,1.84-5.71.48-1.51.74-2.25.74-2.25l.2-.56,3.25,1.22-11.17,34.7h-12.78Z"/>
  <path class="cls-2" d="m317.91,109v-3.68h24.54c.71,0,1.36-.14,1.99-.42.61-.27,1.15-.66,1.61-1.16.45-.48.82-1.06,1.11-1.73.27-.65.4-1.33.4-2.06v-1.79c0-.75-.14-1.43-.41-2.09-.29-.68-.64-1.25-1.1-1.71-.46-.48-1.01-.88-1.63-1.18-.63-.29-1.27-.43-1.98-.43h-17.11c-1.19,0-2.32-.25-3.37-.74-1.03-.47-1.95-1.13-2.73-1.96-.77-.82-1.4-1.79-1.87-2.88-.46-1.14-.69-2.32-.69-3.53v-1.82c0-1.21.23-2.39.69-3.52.47-1.12,1.11-2.08,1.88-2.87.75-.79,1.67-1.44,2.72-1.93,1.05-.48,2.18-.73,3.37-.73h24.51v3.67h-24.51c-.68,0-1.33.15-1.99.45-.63.3-1.16.68-1.62,1.16-.46.49-.83,1.07-1.11,1.72-.27.66-.4,1.34-.4,2.06v1.82c0,.73.13,1.43.4,2.06.28.65.66,1.24,1.11,1.74.46.48,1.01.87,1.62,1.16.63.28,1.28.42,1.99.42h17.11c1.17,0,2.3.25,3.34.73,1.03.46,1.95,1.12,2.72,1.97.76.85,1.37,1.81,1.81,2.89.46,1.13.68,2.29.68,3.56v1.79c0,1.22-.23,2.41-.67,3.52-.45,1.08-1.06,2.06-1.81,2.9-.78.84-1.67,1.47-2.74,1.94-1.06.46-2.18.69-3.33.69h-24.54Z"/>
  <path class="cls-2" d="m156.09,109v-3.68h24.57c.71,0,1.35-.14,1.97-.42.62-.28,1.17-.67,1.61-1.16.44-.47.8-1.04,1.11-1.73.27-.65.4-1.32.4-2.06v-1.79c0-.75-.13-1.43-.41-2.09-.3-.71-.65-1.27-1.09-1.71-.45-.47-1-.87-1.64-1.18-.62-.29-1.27-.43-1.96-.43h-17.14c-1.18,0-2.31-.25-3.35-.74-1.02-.47-1.94-1.13-2.72-1.96-.78-.82-1.41-1.79-1.87-2.89-.46-1.11-.7-2.3-.7-3.53v-1.82c0-1.23.23-2.41.7-3.53.46-1.1,1.09-2.07,1.88-2.87.76-.79,1.68-1.44,2.72-1.93,1.04-.48,2.16-.73,3.35-.73h24.53v3.67h-24.53c-.67,0-1.32.15-1.98.45-.62.29-1.15.68-1.62,1.16-.45.49-.83,1.07-1.1,1.71-.27.66-.4,1.34-.4,2.06v1.82c0,.75.13,1.42.4,2.06.28.66.65,1.25,1.11,1.74.47.49,1,.87,1.61,1.16.64.28,1.29.42,1.98.42h17.14c1.17,0,2.29.25,3.34.73,1.03.47,1.95,1.13,2.71,1.98.75.83,1.36,1.79,1.82,2.88.46,1.14.68,2.3.68,3.56v1.79c0,1.22-.23,2.41-.68,3.53-.45,1.1-1.06,2.07-1.82,2.9-.75.82-1.67,1.47-2.72,1.93-1.07.46-2.19.69-3.33.69h-24.57Z"/>
  <path class="cls-2" d="m300.31,108.97v-25.84c0-.98-.16-1.84-.49-2.65-.34-.84-.81-1.58-1.39-2.21-.58-.6-1.26-1.09-2.07-1.47-.79-.35-1.62-.52-2.52-.52h-14.35c-.9,0-1.73.17-2.53.53-.8.37-1.48.86-2.06,1.47-.59.64-1.06,1.39-1.39,2.2-.34.83-.5,1.69-.5,2.65v25.84h-3.55v-25.84c0-1.43.28-2.81.82-4.1.55-1.28,1.27-2.41,2.16-3.35.89-.94,1.96-1.71,3.16-2.28,1.2-.57,2.51-.85,3.89-.85h14.35c1.38,0,2.69.29,3.88.85,1.19.56,2.22,1.31,3.16,2.28.9.97,1.63,2.09,2.15,3.36.54,1.27.82,2.65.82,4.1v25.84h-3.54Z"/>
  <rect class="cls-2" x="203.36" y="72.8" width="3.48" height="36.17"/>
  <rect class="cls-2" x="137.24" y="72.8" width="3.48" height="36.17"/>
  <path class="cls-2" d="m230.94,108.84c-1.37,0-2.67-.28-3.87-.83-1.23-.55-2.3-1.31-3.18-2.25-.88-.93-1.6-2.06-2.13-3.35-.52-1.28-.78-2.67-.78-4.13v-15.15c0-1.47.26-2.85.78-4.11.52-1.27,1.24-2.39,2.13-3.34.9-.94,1.97-1.7,3.18-2.25,1.19-.54,2.49-.82,3.87-.82h14.41c1.38,0,2.68.28,3.88.82,1.18.54,2.24,1.3,3.16,2.25.91.96,1.63,2.08,2.14,3.34.51,1.27.77,2.65.77,4.11v15.15c0,1.46-.26,2.85-.77,4.13-.53,1.29-1.25,2.42-2.14,3.36-.92.96-1.95,1.7-3.17,2.25-1.2.55-2.51.82-3.88.82h-14.41Zm0-32.58c-.9,0-1.74.18-2.48.52-.76.36-1.43.85-2.04,1.5-.58.63-1.05,1.37-1.4,2.21-.33.83-.49,1.7-.49,2.65v15.15c0,.95.16,1.82.49,2.67.34.81.81,1.56,1.4,2.19.62.66,1.28,1.14,2.04,1.49.78.36,1.62.55,2.49.55h14.41c.87,0,1.72-.18,2.51-.55.8-.36,1.46-.84,2.03-1.48.59-.65,1.06-1.39,1.38-2.2.35-.85.52-1.72.52-2.67v-15.15c0-.95-.17-1.82-.51-2.65-.33-.84-.79-1.58-1.38-2.22-.57-.64-1.23-1.12-2.03-1.49-.76-.35-1.6-.52-2.51-.52h-14.41Z"/>
  <g>
    <path class="cls-2" d="m239.91,43.87c-.1-.6-.39-1.37-.57-1.8l-10.08-25.89c-.25-.62-.58-1.16-1.02-1.66-.52-.6-1.1-1.11-1.75-1.55-.67-.42-1.38-.78-2.14-1.02-.67-.22-1.37-.36-2.07-.36-.75,0-1.43.13-2.11.36-.75.24-1.45.57-2.09,1.01-.64.44-1.24.96-1.75,1.55-.44.51-.79,1.06-1.03,1.68l-10.09,25.96c-.18.44-.45,1.14-.56,1.73h4.3v7.67h-6.19c-1.93,0-3.57-.83-4.66-2.45-.94-1.39-1.28-3.02-1.22-4.68.08-1.77.54-3.51,1.19-5.16l10.12-25.92c.54-1.39,1.33-2.65,2.3-3.79.96-1.14,2.07-2.14,3.31-2.96,1.25-.81,2.57-1.48,3.98-1.95,1.45-.51,2.97-.76,4.5-.76s3,.27,4.43.75c1.43.48,2.75,1.15,4,1.96,1.25.85,2.35,1.86,3.33,3.02.95,1.16,1.8,2.41,2.35,3.81l10.08,25.83c.65,1.66,1.05,3.39,1.12,5.16.06,1.66-.25,3.29-1.19,4.68-1.09,1.63-2.73,2.45-4.66,2.45h-6.2v-7.67h4.39Z"/>
    <rect class="cls-5" x="218.59" y="30.36" width="7.27" height="7.41"/>
  </g>
  <g>
    <rect class="cls-1" x="260.89" y="5.41" width="7.27" height="7.42"/>
    <path class="cls-3" d="m292.96,31.47l7.38,19.44h-8.44l-7.37-18.88h-16.27v19.34h-7.39v-26.8h26.97c.62,0,1.24-.12,1.81-.38.62-.25,1.12-.6,1.58-1.06.45-.44.78-.93,1.03-1.51.25-.6.37-1.23.37-1.88v-2.16c0-.65-.14-1.28-.37-1.88-.24-.56-.56-1.04-1-1.47-.48-.47-1.01-.83-1.62-1.09-.57-.26-1.17-.39-1.79-.39h-11.78v-7.39h11.78c1.64,0,3.23.33,4.73.99,1.42.63,2.7,1.5,3.81,2.59,1.13,1.1,2.01,2.4,2.64,3.87.67,1.5.98,3.11.98,4.76v2.16c0,4.61-2.69,9.83-7.04,11.72"/>
  </g>
  <path class="cls-2" d="m156.16,51.07v-6.76h18.38c.73,0,1.39-.14,2.04-.44.67-.3,1.26-.71,1.76-1.2.49-.5.87-1.06,1.16-1.72.28-.65.42-1.33.42-2.08v-2.25c0-.74-.14-1.41-.41-2.05-.29-.67-.7-1.28-1.21-1.82-.46-.48-1.03-.88-1.69-1.16-.63-.26-1.33-.39-2.07-.39h-7.65v-6.85h7.65c.75,0,1.42-.14,2.05-.42.67-.31,1.26-.72,1.75-1.2.5-.5.88-1.07,1.16-1.74.29-.67.43-1.33.43-2.07v-2.24c0-.75-.14-1.43-.42-2.07-.29-.67-.68-1.26-1.18-1.76-.49-.49-1.07-.89-1.72-1.18-.65-.28-1.33-.42-2.06-.42h-25.1v25.04h-7.32V4.44l4.44-.02h27.98c1.63,0,3.22.33,4.72.98,1.52.67,2.83,1.56,3.88,2.67,1.05,1.07,1.92,2.37,2.57,3.86.65,1.47.97,3.08.97,4.76v2.24c0,2.19-.54,4.23-1.6,6.08-.61,1.04-1.35,1.98-2.19,2.79.85.8,1.59,1.72,2.18,2.74,1.06,1.86,1.6,3.9,1.6,6.09v2.25c0,1.71-.32,3.27-.97,4.76-.66,1.5-1.53,2.79-2.61,3.85-1.09,1.09-2.38,1.97-3.85,2.6-1.48.65-3.06.98-4.71.98h-18.38Zm-14.05,0v-6.89h7.22v6.89h-7.22Z"/>
  <g>
    <rect class="cls-4" x="327.23" y="43.51" width="7.73" height="7.8"/>
    <polygon class="cls-3" points="310.97 5.06 310.97 12.71 327.33 12.71 327.33 35.91 334.95 35.91 334.95 12.71 351 12.71 351 5.06 310.97 5.06"/>
  </g>
</svg>