<svg xmlns="http://www.w3.org/2000/svg" id="SvgjsSvg414053" width="4096" height="1938.2086700798982" version="1.1"
     xmlns:xlink="http://www.w3.org/1999/xlink" xmlns:svgjs="http://svgjs.com/svgjs">
    <defs id="SvgjsDefs414054"></defs>
    <g id="SvgjsG414055" transform="translate(328, 328) scale(34.4)" opacity="1">
        <defs id="SvgjsDefs115526"></defs>
        <g id="SvgjsG115527" transform="scale(0.21645021645021645)" opacity="1">
            <g id="SvgjsG115528" class="c-R3GZ0gq"
               transform="translate(143.34461447260838, -33.96653706800263) scale(1.7893134419218586)"
               light-content="false" non-strokable="false" fill="#ffffff">
                <path d="M86.718 19.658C82.932 17.805 74.7 38.845 65.384 39.941c-9.317 1.096-16.858-.528-17.698 1.245-.84 1.771-1.23 2.025 4.457 2.192 5.688.169 8.553 1.295 6.733 5.481-1.817 4.188-7.588 21.173-7.588 21.173s-.037 1.469 2.034 1.225c2.07-.243 5.477-15.907 12.443-17.354 6.967-1.444 9.021 7.095 10.336 7.568 1.314.473 4.189-.076 2.121-3.388s-5.949-13.099-4.533-15.358c1.412-2.256 13.638-17.911 13.638-17.911s3.179-3.302-.609-5.156z"></path>
                <circle cx="62.332" cy="27.069" r="8.086"></circle>
                <path d="M2.268 35.794c2.813-3.142 18.348 13.261 27.395 10.774s15.423-6.825 16.871-5.5c1.442 1.325 1.899 1.416-3.308 3.709-5.207 2.292-7.436 4.414-4.178 7.607 3.257 3.197 14.989 16.771 14.989 16.771s.585 1.348-1.426 1.898c-2.01.553-11.054-12.684-18.054-11.402-7.003 1.274-5.693 9.962-6.735 10.894-1.042.935-3.91 1.509-3.238-2.338.672-3.849.589-14.376-1.569-15.937C20.856 50.711 3.644 40.8 3.644 40.8s-4.188-1.865-1.376-5.006z"></path>
                <circle cx="28.257" cy="37.112" r="8.086"></circle>
            </g>
            <g id="SvgjsG115529" class="text" transform="translate(230.74378293432227, 170.86911678420088) scale(1)"
               light-content="false" fill="#ffffff">
                <path d="M-230.68 -2.87C-230.5 -2.77 -230.37 -2.62 -230.29 -2.45C-230.2 -2.28 -230.13 -2.12 -230.09 -1.99C-230.05 -1.82 -230 -1.71 -229.96 -1.67L-229.57 -1.57L-229.53 -1.18C-229.51 -0.96 -229.39 -0.74 -229.18 -0.52C-228.96 -0.3 -228.72 -0.09 -228.46 0.13C-228.15 0.35 -227.88 0.56 -227.64 0.75L-227.02 0.29L-226.56 1.14C-226.39 1.19 -226.24 1.23 -226.11 1.27C-225.95 1.3 -225.81 1.31 -225.66 1.32C-225.52 1.33 -225.38 1.34 -225.22 1.34C-224.77 1.34 -224.35 1.31 -223.97 1.24C-223.59 1.18 -223.18 1.09 -222.74 0.98C-222.35 0.89 -221.93 0.81 -221.48 0.72C-221.04 0.63 -220.48 0.51 -219.8 0.36C-219.74 0.27 -219.67 0.19 -219.61 0.11C-219.54 0.04 -219.45 -0.04 -219.34 -0.13L-218.5 -0.69L-218.53 0C-218.22 -0.11 -217.93 -0.2 -217.65 -0.28C-217.36 -0.35 -217.07 -0.44 -216.76 -0.52C-215.37 -0.94 -214.05 -1.38 -212.8 -1.86C-211.54 -2.34 -210.49 -3 -209.64 -3.85C-209.56 -4.35 -209.52 -4.76 -209.55 -5.08C-209.57 -5.39 -209.74 -5.7 -210.07 -6.01L-210.75 -5.26L-210.88 -6.34C-210.91 -6.47 -210.96 -6.57 -211.05 -6.65C-211.14 -6.72 -211.28 -6.82 -211.47 -6.92C-211.6 -6.99 -211.74 -7.07 -211.88 -7.17C-212.02 -7.27 -212.15 -7.39 -212.26 -7.54C-212.56 -7.46 -212.86 -7.36 -213.16 -7.25C-213.45 -7.14 -213.75 -7.03 -214.05 -6.92C-214.55 -6.73 -215.07 -6.55 -215.59 -6.39C-216.11 -6.22 -216.66 -6.14 -217.22 -6.14C-217.42 -6.03 -217.62 -5.94 -217.83 -5.88C-218.03 -5.81 -218.22 -5.76 -218.4 -5.72C-218.61 -5.65 -218.83 -5.58 -219.03 -5.5C-219.24 -5.43 -219.51 -5.3 -219.83 -5.13L-220.19 -5.19C-220.3 -5.19 -220.44 -5.17 -220.6 -5.11L-221.14 -4.93C-221.34 -4.84 -221.55 -4.77 -221.78 -4.7C-222.01 -4.64 -222.24 -4.61 -222.48 -4.61C-222.92 -4.61 -223.29 -4.76 -223.59 -5.06L-223.95 -5.45L-223.53 -5.81C-222.76 -6.47 -221.97 -7.08 -221.16 -7.64C-220.34 -8.21 -219.52 -8.78 -218.69 -9.34C-217.54 -10.1 -216.4 -10.88 -215.28 -11.68C-214.16 -12.47 -213.17 -13.43 -212.32 -14.57C-212.13 -14.74 -211.92 -14.9 -211.7 -15.06C-211.48 -15.21 -211.3 -15.41 -211.15 -15.65C-210.62 -15.97 -210.09 -16.31 -209.55 -16.66C-209 -17.01 -208.53 -17.4 -208.14 -17.85C-207.75 -18.3 -207.47 -18.8 -207.31 -19.37C-207.15 -19.93 -207.16 -20.6 -207.36 -21.36C-207.68 -21.47 -207.95 -21.64 -208.14 -21.87C-208.34 -22.1 -208.46 -22.43 -208.5 -22.86C-209 -23.39 -209.6 -23.7 -210.3 -23.79C-210.99 -23.89 -211.69 -23.83 -212.39 -23.61C-213.37 -23.79 -214.33 -23.84 -215.28 -23.78C-216.23 -23.71 -217.16 -23.68 -218.07 -23.68C-218.81 -23.9 -219.64 -24.01 -220.55 -24.01C-221.38 -24.01 -222.45 -23.9 -223.75 -23.68C-223.86 -23.68 -223.96 -23.69 -224.03 -23.71C-224.11 -23.73 -224.27 -23.73 -224.51 -23.71C-224.64 -23.65 -224.77 -23.59 -224.91 -23.53C-225.05 -23.48 -225.21 -23.43 -225.39 -23.39C-225.54 -22.91 -225.6 -22.41 -225.58 -21.88C-225.56 -21.36 -225.47 -20.86 -225.31 -20.38C-225.14 -19.9 -224.91 -19.46 -224.62 -19.04C-224.33 -18.63 -223.97 -18.29 -223.56 -18.03C-223.06 -18.05 -222.61 -18.07 -222.2 -18.09C-221.8 -18.12 -221.4 -18.15 -221.01 -18.19C-220.53 -18.24 -219.96 -18.29 -219.3 -18.36C-218.63 -18.42 -218.01 -18.45 -217.42 -18.45L-216.24 -18.49L-217.09 -17.67C-217.2 -17.39 -217.41 -17.16 -217.73 -17C-218.04 -16.84 -218.29 -16.68 -218.46 -16.53C-218.53 -16.48 -218.59 -16.43 -218.64 -16.38C-218.7 -16.33 -218.76 -16.28 -218.82 -16.23C-218.8 -16.06 -218.84 -15.9 -218.95 -15.74C-219.1 -15.63 -219.29 -15.59 -219.51 -15.61C-219.97 -15.18 -220.47 -14.79 -221.01 -14.45C-221.55 -14.12 -222.11 -13.78 -222.68 -13.46C-223.35 -13.06 -224 -12.66 -224.64 -12.23C-225.27 -11.81 -225.8 -11.34 -226.24 -10.84L-226.56 -10.65C-226.76 -10.63 -226.96 -10.54 -227.17 -10.4C-227.37 -10.26 -227.59 -10.09 -227.8 -9.9C-228.02 -9.72 -228.25 -9.54 -228.49 -9.36C-228.73 -9.17 -229 -9.03 -229.31 -8.92C-229.57 -8.42 -229.8 -7.95 -230.01 -7.51C-230.22 -7.08 -230.38 -6.62 -230.5 -6.14C-230.62 -5.66 -230.69 -5.16 -230.73 -4.64C-230.76 -4.12 -230.74 -3.53 -230.68 -2.87Z M-205.71 -3.1L-205.22 -2.61C-205.13 -2.5 -205.07 -2.31 -205.03 -2.03C-204.98 -1.87 -204.95 -1.73 -204.93 -1.58C-204.91 -1.44 -204.85 -1.28 -204.76 -1.11L-204.57 -0.85C-204.35 -0.74 -204.16 -0.62 -204 -0.47C-203.83 -0.33 -203.62 -0.13 -203.36 0.13L-202.94 0.16C-202.78 0.16 -202.65 0.15 -202.53 0.13C-202.41 0.11 -202.21 0.07 -201.92 0L-201.43 -0.07L-201.33 -0.49C-201.25 -0.58 -201.1 -0.66 -200.88 -0.75C-200.72 -0.82 -200.57 -0.89 -200.4 -0.98C-200.24 -1.07 -200.1 -1.2 -200 -1.37L-199.86 -1.8C-199.86 -2.12 -199.82 -2.45 -199.72 -2.78C-199.62 -3.1 -199.52 -3.44 -199.41 -3.79C-199.32 -4.01 -199.24 -4.22 -199.16 -4.44C-199.09 -4.66 -199.03 -4.89 -198.98 -5.13C-198.94 -5.17 -198.89 -5.21 -198.82 -5.26C-198.75 -5.3 -198.7 -5.36 -198.66 -5.42L-198.33 -5.72L-198.46 -6.08C-198.48 -6.12 -198.48 -6.18 -198.44 -6.27C-198.41 -6.36 -198.37 -6.42 -198.33 -6.47L-197.91 -6.53L-197.77 -6.96C-197.73 -7.11 -197.68 -7.27 -197.63 -7.43C-197.57 -7.59 -197.5 -7.76 -197.42 -7.94C-197.39 -7.68 -197.31 -7.43 -197.15 -7.19C-197.24 -6.86 -197.21 -6.59 -197.06 -6.37C-196.9 -6.15 -196.77 -5.98 -196.66 -5.85L-196.52 -5.7C-196.46 -5.65 -196.44 -5.6 -196.44 -5.55L-196.34 -5.19L-195.98 -5.16C-195.56 -5.1 -195.17 -5.06 -194.8 -5.06C-194.24 -5.06 -193.71 -5.11 -193.23 -5.21C-192.76 -5.31 -192.27 -5.42 -191.76 -5.55C-191.42 -5.64 -191.07 -5.72 -190.72 -5.8C-190.37 -5.87 -189.92 -5.86 -189.38 -5.75C-189.34 -5.05 -189.42 -4.57 -189.64 -4.3C-189.86 -4.02 -190.29 -3.8 -190.95 -3.63L-192.03 -3.33L-191.37 -2.58C-191.29 -2.49 -191.21 -2.41 -191.14 -2.34C-191.08 -2.26 -191 -2.19 -190.92 -2.12C-190.68 -1.91 -190.52 -1.73 -190.44 -1.6C-190.37 -1.47 -190.36 -1.32 -190.43 -1.14L-190.56 -0.65L-190.13 -0.46C-190.02 -0.41 -189.88 -0.33 -189.71 -0.2C-189.6 -0.11 -189.47 -0.02 -189.33 0.07C-189.19 0.15 -188.97 0.23 -188.66 0.29C-188.12 0.27 -187.59 0.15 -187.09 -0.08C-186.59 -0.31 -186.14 -0.6 -185.74 -0.96C-185.34 -1.32 -184.99 -1.73 -184.69 -2.17C-184.4 -2.62 -184.14 -3.12 -183.93 -3.69C-183.86 -4.19 -183.86 -4.68 -183.91 -5.14C-183.96 -5.61 -184.03 -6.06 -184.12 -6.5C-184.17 -6.67 -184.19 -6.83 -184.2 -6.96C-184.21 -7.09 -184.24 -7.23 -184.29 -7.38C-183.68 -7.66 -183.13 -8.02 -182.64 -8.46C-182.15 -8.89 -181.78 -9.34 -181.54 -9.8L-181.21 -10.42L-181.8 -10.65C-181.85 -10.67 -181.9 -10.71 -181.97 -10.76C-182.03 -10.82 -182.09 -10.87 -182.13 -10.91C-182.24 -11.02 -182.37 -11.13 -182.54 -11.25C-182.7 -11.37 -182.96 -11.44 -183.31 -11.46C-183.39 -11.53 -183.47 -11.59 -183.53 -11.66C-183.6 -11.73 -183.65 -11.79 -183.7 -11.86L-183.83 -12.25L-184.25 -12.22C-184.6 -12.19 -184.91 -12.13 -185.17 -12.02C-185.21 -12.04 -185.34 -12.05 -185.56 -12.05C-185.78 -12.57 -185.95 -13.12 -186.08 -13.7C-186.21 -14.28 -186.33 -14.88 -186.44 -15.51C-186.53 -15.95 -186.62 -16.39 -186.72 -16.84C-186.82 -17.28 -186.92 -17.72 -187.03 -18.16C-187.05 -18.7 -187.09 -19.2 -187.16 -19.65C-187.22 -20.09 -187.3 -20.54 -187.39 -21C-187.43 -21.2 -187.47 -21.39 -187.5 -21.59C-187.53 -21.79 -187.57 -22 -187.62 -22.24L-187.78 -22.54C-188.02 -22.78 -188.36 -22.97 -188.79 -23.11C-189.23 -23.25 -189.67 -23.37 -190.13 -23.48C-190.39 -23.57 -190.64 -23.65 -190.88 -23.71C-191.12 -23.78 -191.3 -23.84 -191.41 -23.91L-191.93 -24.24L-192.32 -23.68C-192.89 -22.81 -193.45 -22.06 -194 -21.44C-194.56 -20.82 -195.19 -20.35 -195.91 -20.02L-196.5 -20.12C-196.65 -20.12 -196.78 -20.1 -196.88 -20.07C-196.97 -20.04 -197.07 -20 -197.15 -19.96L-197.51 -19.99L-197.74 -19.66C-198.09 -19.25 -198.38 -18.82 -198.61 -18.39C-198.84 -17.95 -199.05 -17.52 -199.24 -17.08C-199.42 -16.71 -199.6 -16.35 -199.78 -16C-199.97 -15.66 -200.21 -15.26 -200.52 -14.83C-200.56 -14.7 -200.58 -14.58 -200.58 -14.49C-200.58 -14.39 -200.57 -14.3 -200.55 -14.21C-200.75 -13.77 -200.95 -13.35 -201.16 -12.93C-201.36 -12.52 -201.56 -12.11 -201.76 -11.69C-202.39 -10.41 -202.99 -9.16 -203.57 -7.94C-204.15 -6.72 -204.71 -5.44 -205.25 -4.12L-205.29 -3.43ZM-195.29 -11.59L-195.26 -11.63C-194.93 -12.24 -194.52 -12.88 -194.02 -13.55C-193.52 -14.23 -192.99 -14.86 -192.45 -15.45L-192.29 -15.78C-192.05 -14.93 -191.82 -14.08 -191.62 -13.24C-191.41 -12.41 -191.22 -11.58 -191.05 -10.78C-191.81 -10.63 -192.52 -10.52 -193.17 -10.45C-193.82 -10.39 -194.53 -10.33 -195.29 -10.29C-195.44 -10.27 -195.59 -10.26 -195.73 -10.26C-195.87 -10.26 -196.02 -10.24 -196.17 -10.22C-195.89 -10.7 -195.6 -11.16 -195.29 -11.59ZM-185.26 -31.42C-185.09 -31.68 -185 -31.93 -184.99 -32.17C-184.98 -32.41 -185 -32.65 -185.07 -32.89C-185.13 -33.13 -185.23 -33.38 -185.36 -33.63C-185.49 -33.88 -185.62 -34.15 -185.75 -34.46C-185.93 -34.55 -186.13 -34.7 -186.34 -34.93C-186.56 -35.16 -186.68 -35.39 -186.7 -35.63C-186.81 -35.57 -186.97 -35.6 -187.18 -35.72C-187.38 -35.84 -187.51 -35.96 -187.55 -36.09C-187.79 -35.96 -188.01 -35.79 -188.22 -35.59L-188.83 -34.98C-189.02 -34.78 -189.22 -34.61 -189.43 -34.44C-189.64 -34.28 -189.85 -34.18 -190.07 -34.13C-190.59 -33.54 -191.15 -32.96 -191.75 -32.38C-192.35 -31.81 -192.9 -31.25 -193.4 -30.7C-193.48 -30.4 -193.64 -30.17 -193.87 -30.02C-194.1 -29.86 -194.31 -29.7 -194.49 -29.53C-194.68 -29.35 -194.79 -29.15 -194.83 -28.91C-194.88 -28.67 -194.76 -28.32 -194.48 -27.86C-194.61 -27.64 -194.66 -27.45 -194.64 -27.27C-194.62 -27.1 -194.56 -26.94 -194.46 -26.78C-194.36 -26.63 -194.24 -26.48 -194.08 -26.33L-193.63 -25.87C-193.1 -25.89 -192.56 -26.05 -191.99 -26.36C-191.43 -26.66 -190.88 -27.02 -190.34 -27.42C-189.81 -27.82 -189.32 -28.24 -188.86 -28.66C-188.4 -29.09 -188.01 -29.44 -187.68 -29.72C-187.05 -30.29 -186.53 -30.7 -186.13 -30.96C-185.73 -31.22 -185.44 -31.38 -185.26 -31.42Z M-177.38 -5.98C-177.45 -5.93 -177.47 -5.88 -177.46 -5.81C-177.45 -5.75 -177.49 -5.7 -177.58 -5.68C-177.69 -5.51 -177.72 -5.35 -177.69 -5.21C-177.66 -5.07 -177.61 -4.93 -177.54 -4.8C-177.48 -4.67 -177.44 -4.54 -177.43 -4.41C-177.42 -4.28 -177.49 -4.14 -177.64 -3.98C-177.42 -3.85 -177.2 -3.69 -176.96 -3.49C-177.13 -3.28 -177.19 -3.06 -177.14 -2.84C-177.08 -2.62 -176.99 -2.4 -176.87 -2.17C-176.75 -1.94 -176.63 -1.69 -176.51 -1.42C-176.4 -1.15 -176.34 -0.86 -176.34 -0.56C-176.14 -0.51 -175.97 -0.44 -175.81 -0.33C-175.66 -0.22 -175.51 -0.1 -175.36 0.02C-175.2 0.14 -175.04 0.23 -174.87 0.31C-174.69 0.39 -174.48 0.42 -174.24 0.42C-173.44 0.08 -172.77 -0.42 -172.24 -1.06C-171.7 -1.7 -171.2 -2.39 -170.72 -3.12C-170.24 -3.85 -169.74 -4.57 -169.23 -5.27C-168.72 -5.98 -168.08 -6.58 -167.32 -7.05C-167.21 -6.99 -167.1 -6.96 -166.98 -6.96C-166.86 -6.96 -166.77 -6.9 -166.7 -6.79C-166.37 -6.36 -166 -5.96 -165.57 -5.6C-165.15 -5.24 -164.71 -4.88 -164.25 -4.51C-163.88 -4.25 -163.47 -3.96 -163.03 -3.66C-162.58 -3.35 -162.26 -3.16 -162.06 -3.07C-161.91 -3 -161.72 -2.98 -161.51 -3C-161.29 -3.03 -161.09 -2.98 -160.92 -2.87C-160.88 -2.83 -160.83 -2.75 -160.77 -2.65C-160.72 -2.54 -160.66 -2.47 -160.59 -2.45C-159.68 -2.08 -158.75 -1.84 -157.82 -1.73C-156.88 -1.62 -155.78 -1.59 -154.52 -1.63C-153.6 -2.03 -152.87 -2.54 -152.31 -3.18C-151.76 -3.83 -151.46 -4.66 -151.41 -5.68C-151.65 -5.88 -151.87 -6.07 -152.05 -6.25C-152.24 -6.44 -152.43 -6.62 -152.62 -6.79C-152.82 -6.97 -153.03 -7.13 -153.24 -7.28C-153.46 -7.44 -153.73 -7.57 -154.06 -7.68C-154.19 -7.7 -154.25 -7.66 -154.24 -7.56C-154.23 -7.46 -154.28 -7.4 -154.39 -7.38C-155.37 -7.38 -156.31 -7.39 -157.23 -7.41C-158.14 -7.44 -158.99 -7.54 -159.78 -7.74C-160.56 -7.94 -161.27 -8.25 -161.9 -8.69C-162.53 -9.12 -163.04 -9.77 -163.43 -10.62C-163.37 -10.79 -163.25 -10.93 -163.09 -11.04C-162.93 -11.15 -162.8 -11.29 -162.72 -11.46C-162.63 -11.49 -162.55 -11.5 -162.49 -11.51C-162.42 -11.52 -162.35 -11.53 -162.26 -11.53C-162.15 -11.75 -162 -11.93 -161.82 -12.08C-161.63 -12.24 -161.44 -12.38 -161.23 -12.53C-161.02 -12.67 -160.82 -12.81 -160.62 -12.97C-160.43 -13.12 -160.27 -13.29 -160.13 -13.49C-159.55 -13.95 -158.96 -14.35 -158.39 -14.7C-157.81 -15.05 -157.24 -15.38 -156.69 -15.71C-156.13 -16.04 -155.59 -16.38 -155.06 -16.74C-154.52 -17.1 -153.99 -17.52 -153.47 -18C-153.38 -18.3 -153.28 -18.56 -153.16 -18.76C-153.04 -18.97 -152.94 -19.16 -152.85 -19.34C-152.87 -19.73 -152.95 -20.02 -153.08 -20.2C-153.21 -20.39 -153.37 -20.54 -153.55 -20.67C-153.74 -20.81 -153.92 -20.94 -154.11 -21.08C-154.29 -21.22 -154.45 -21.44 -154.58 -21.72C-154.95 -21.74 -155.25 -21.89 -155.46 -22.16C-155.68 -22.43 -155.9 -22.69 -156.12 -22.93C-156.44 -22.8 -156.75 -22.66 -157.05 -22.5C-157.34 -22.35 -157.67 -22.22 -158.04 -22.11C-158.07 -21.94 -158.03 -21.83 -157.95 -21.8C-157.86 -21.77 -157.83 -21.68 -157.85 -21.52C-157.96 -21.59 -158.07 -21.64 -158.19 -21.69C-158.31 -21.73 -158.48 -21.71 -158.7 -21.62C-159.13 -21.32 -159.56 -21.04 -159.99 -20.79C-160.41 -20.54 -160.82 -20.28 -161.21 -20.01C-161.6 -19.73 -161.99 -19.44 -162.37 -19.12C-162.75 -18.81 -163.19 -18.48 -163.7 -18.13C-164.33 -17.63 -165.07 -17.09 -165.92 -16.53C-166.77 -15.96 -167.51 -15.35 -168.14 -14.7C-168.12 -14.98 -168.07 -15.29 -167.99 -15.61C-167.91 -15.94 -167.81 -16.27 -167.68 -16.59C-167.55 -16.92 -167.39 -17.23 -167.19 -17.52C-166.99 -17.82 -166.78 -18.06 -166.54 -18.26C-166.62 -18.35 -166.67 -18.42 -166.67 -18.47C-166.67 -18.52 -166.65 -18.58 -166.62 -18.63C-166.59 -18.69 -166.56 -18.75 -166.54 -18.81C-166.51 -18.88 -166.51 -18.98 -166.54 -19.11C-166.14 -19.3 -165.89 -19.58 -165.79 -19.94C-165.68 -20.3 -165.67 -20.67 -165.75 -21.05C-165.84 -21.43 -165.99 -21.8 -166.21 -22.16C-166.43 -22.52 -166.68 -22.82 -166.96 -23.06L-167.55 -22.96C-167.66 -23.07 -167.75 -23.2 -167.81 -23.34C-167.88 -23.48 -167.95 -23.6 -168.04 -23.71C-168.24 -23.71 -168.42 -23.73 -168.59 -23.78C-168.77 -23.82 -168.93 -23.88 -169.08 -23.94C-169.24 -24.01 -169.39 -24.07 -169.56 -24.12C-169.72 -24.18 -169.9 -24.21 -170.1 -24.24C-170.53 -24 -170.88 -23.69 -171.13 -23.32C-171.38 -22.95 -171.59 -22.56 -171.78 -22.16C-171.96 -21.76 -172.15 -21.36 -172.33 -20.97C-172.52 -20.58 -172.75 -20.24 -173.04 -19.96C-173.3 -18.74 -173.63 -17.61 -174.03 -16.58C-174.44 -15.54 -174.84 -14.51 -175.24 -13.49C-175.64 -12.47 -176.01 -11.42 -176.35 -10.34C-176.69 -9.26 -176.91 -8.07 -177.02 -6.76L-177.35 -6.63C-177.46 -6.59 -177.49 -6.49 -177.45 -6.34C-177.36 -6.27 -177.32 -6.22 -177.33 -6.17Z M-146.86 -1.21C-146.82 -1.12 -146.77 -1.05 -146.73 -0.98C-146.69 -0.91 -146.62 -0.78 -146.53 -0.59C-145.75 0.07 -144.72 0.39 -143.43 0.39C-142.56 0.39 -141.7 0.27 -140.83 0.03C-139.97 -0.21 -139.17 -0.45 -138.43 -0.69C-138.33 -0.73 -138.22 -0.76 -138.11 -0.78C-138 -0.81 -137.81 -0.84 -137.55 -0.88C-137.23 -0.88 -136.9 -0.9 -136.57 -0.93C-136.25 -0.96 -135.92 -1 -135.59 -1.05C-135.29 -1.09 -134.98 -1.12 -134.66 -1.14C-134.35 -1.16 -134.04 -1.18 -133.73 -1.18C-132.95 -1.18 -132.23 -1.06 -131.58 -0.82C-131.12 -0.95 -130.67 -1.01 -130.24 -1.01C-130.02 -1.01 -129.79 -1.02 -129.55 -1.05C-129.4 -1.2 -129.26 -1.32 -129.13 -1.42C-129 -1.52 -128.72 -1.61 -128.31 -1.7L-128.37 -2.12C-128.29 -2.25 -128.24 -2.41 -128.24 -2.58C-128.22 -2.67 -128.3 -2.83 -128.47 -3.07L-128.77 -4.74C-129.03 -4.93 -129.29 -5.09 -129.57 -5.21C-129.84 -5.33 -130.12 -5.44 -130.4 -5.55C-130.73 -5.66 -131.03 -5.78 -131.31 -5.9C-131.6 -6.02 -131.89 -6.23 -132.2 -6.53C-132.3 -6.55 -132.39 -6.57 -132.46 -6.57L-132.65 -6.57C-132.81 -6.57 -132.91 -6.57 -132.98 -6.58C-133.05 -6.59 -133.19 -6.67 -133.4 -6.83C-134.06 -6.76 -134.77 -6.73 -135.53 -6.73C-136.44 -6.71 -137.36 -6.65 -138.29 -6.57C-139.21 -6.48 -140.07 -6.24 -140.85 -5.85C-141.11 -5.93 -141.38 -5.98 -141.67 -5.98C-141.89 -5.98 -142.13 -5.94 -142.39 -5.88C-142.34 -6.84 -142.19 -7.69 -141.93 -8.44C-141.67 -9.19 -141.38 -9.95 -141.08 -10.71C-140.91 -11.13 -140.73 -11.55 -140.56 -11.97C-140.38 -12.4 -140.25 -12.95 -140.17 -13.62C-140.03 -13.73 -139.94 -13.85 -139.87 -14C-139.81 -14.14 -139.75 -14.27 -139.71 -14.4C-139.66 -14.51 -139.63 -14.62 -139.59 -14.73C-139.56 -14.84 -139.48 -14.97 -139.35 -15.12C-139.24 -15.69 -139.11 -16.17 -138.96 -16.56C-138.8 -16.95 -138.64 -17.34 -138.47 -17.74C-138.31 -18.08 -138.16 -18.45 -138.01 -18.83C-137.86 -19.21 -137.72 -19.65 -137.59 -20.15C-137.5 -20.2 -137.39 -20.32 -137.26 -20.51C-137.17 -21.08 -137.23 -21.54 -137.44 -21.9C-137.64 -22.26 -137.89 -22.6 -138.17 -22.93L-138.73 -23.42C-139.16 -23.42 -139.69 -23.52 -140.31 -23.73C-140.93 -23.94 -141.47 -24.16 -141.93 -24.4C-142.02 -24.4 -142.09 -24.39 -142.16 -24.37C-142.22 -24.34 -142.28 -24.32 -142.32 -24.3C-142.45 -24.26 -142.6 -24.17 -142.78 -24.04C-143.1 -22.73 -143.47 -21.5 -143.87 -20.35C-144.28 -19.19 -144.69 -18.02 -145.13 -16.82C-145.37 -16.17 -145.61 -15.49 -145.86 -14.78C-146.12 -14.07 -146.37 -13.34 -146.63 -12.57C-146.65 -12.53 -146.68 -12.48 -146.7 -12.43C-146.72 -12.37 -146.75 -12.31 -146.8 -12.25C-146.9 -12.01 -147.01 -11.75 -147.12 -11.46C-147.23 -11.18 -147.24 -10.92 -147.16 -10.68C-147.37 -10.42 -147.54 -10.09 -147.64 -9.68C-147.75 -9.28 -147.86 -8.87 -147.97 -8.46C-148.02 -8.22 -148.07 -7.99 -148.13 -7.77C-148.24 -7.32 -148.32 -6.83 -148.36 -6.3C-148.41 -5.78 -148.4 -5.26 -148.33 -4.75C-148.27 -4.24 -148.15 -3.75 -147.97 -3.27C-147.8 -2.79 -147.56 -2.36 -147.25 -1.99C-147.21 -1.8 -147.16 -1.64 -147.09 -1.52C-147.02 -1.4 -146.95 -1.3 -146.86 -1.21Z M-125.06 -3.1L-124.57 -2.61C-124.49 -2.5 -124.42 -2.31 -124.38 -2.03C-124.33 -1.87 -124.3 -1.73 -124.28 -1.58C-124.26 -1.44 -124.2 -1.28 -124.12 -1.11L-123.92 -0.85C-123.7 -0.74 -123.51 -0.62 -123.35 -0.47C-123.18 -0.33 -122.97 -0.13 -122.71 0.13L-122.29 0.16C-122.13 0.16 -122 0.15 -121.88 0.13C-121.76 0.11 -121.56 0.07 -121.27 0L-120.78 -0.07L-120.69 -0.49C-120.6 -0.58 -120.45 -0.66 -120.23 -0.75C-120.08 -0.82 -119.92 -0.89 -119.75 -0.98C-119.59 -1.07 -119.46 -1.2 -119.35 -1.37L-119.22 -1.8C-119.22 -2.12 -119.17 -2.45 -119.07 -2.78C-118.97 -3.1 -118.87 -3.44 -118.76 -3.79C-118.67 -4.01 -118.59 -4.22 -118.51 -4.44C-118.44 -4.66 -118.38 -4.89 -118.33 -5.13C-118.29 -5.17 -118.24 -5.21 -118.17 -5.26C-118.11 -5.3 -118.05 -5.36 -118.01 -5.42L-117.68 -5.72L-117.81 -6.08C-117.83 -6.12 -117.83 -6.18 -117.8 -6.27C-117.76 -6.36 -117.72 -6.42 -117.68 -6.47L-117.26 -6.53L-117.13 -6.96C-117.08 -7.11 -117.03 -7.27 -116.98 -7.43C-116.92 -7.59 -116.85 -7.76 -116.77 -7.94C-116.74 -7.68 -116.66 -7.43 -116.51 -7.19C-116.59 -6.86 -116.56 -6.59 -116.41 -6.37C-116.25 -6.15 -116.12 -5.98 -116.02 -5.85L-115.87 -5.7C-115.81 -5.65 -115.79 -5.6 -115.79 -5.55L-115.69 -5.19L-115.33 -5.16C-114.92 -5.1 -114.52 -5.06 -114.15 -5.06C-113.59 -5.06 -113.06 -5.11 -112.59 -5.21C-112.11 -5.31 -111.62 -5.42 -111.12 -5.55C-110.77 -5.64 -110.42 -5.72 -110.07 -5.8C-109.72 -5.87 -109.28 -5.86 -108.73 -5.75C-108.69 -5.05 -108.78 -4.57 -108.99 -4.3C-109.21 -4.02 -109.65 -3.8 -110.3 -3.63L-111.38 -3.33L-110.72 -2.58C-110.64 -2.49 -110.56 -2.41 -110.5 -2.34C-110.43 -2.26 -110.35 -2.19 -110.27 -2.12C-110.03 -1.91 -109.87 -1.73 -109.79 -1.6C-109.72 -1.47 -109.71 -1.32 -109.78 -1.14L-109.91 -0.65L-109.48 -0.46C-109.37 -0.41 -109.23 -0.33 -109.06 -0.2C-108.95 -0.11 -108.82 -0.02 -108.68 0.07C-108.54 0.15 -108.32 0.23 -108.01 0.29C-107.47 0.27 -106.95 0.15 -106.45 -0.08C-105.94 -0.31 -105.49 -0.6 -105.09 -0.96C-104.69 -1.32 -104.34 -1.73 -104.04 -2.17C-103.75 -2.62 -103.49 -3.12 -103.28 -3.69C-103.21 -4.19 -103.21 -4.68 -103.26 -5.14C-103.31 -5.61 -103.39 -6.06 -103.47 -6.5C-103.52 -6.67 -103.54 -6.83 -103.55 -6.96C-103.57 -7.09 -103.59 -7.23 -103.64 -7.38C-103.03 -7.66 -102.48 -8.02 -101.99 -8.46C-101.5 -8.89 -101.13 -9.34 -100.89 -9.8L-100.57 -10.42L-101.15 -10.65C-101.2 -10.67 -101.25 -10.71 -101.32 -10.76C-101.38 -10.82 -101.44 -10.87 -101.48 -10.91C-101.59 -11.02 -101.73 -11.13 -101.89 -11.25C-102.05 -11.37 -102.31 -11.44 -102.66 -11.46C-102.74 -11.53 -102.82 -11.59 -102.89 -11.66C-102.95 -11.73 -103 -11.79 -103.05 -11.86L-103.18 -12.25L-103.6 -12.22C-103.95 -12.19 -104.26 -12.13 -104.52 -12.02C-104.56 -12.04 -104.69 -12.05 -104.91 -12.05C-105.13 -12.57 -105.3 -13.12 -105.43 -13.7C-105.56 -14.28 -105.68 -14.88 -105.79 -15.51C-105.88 -15.95 -105.97 -16.39 -106.07 -16.84C-106.17 -17.28 -106.27 -17.72 -106.38 -18.16C-106.4 -18.7 -106.45 -19.2 -106.51 -19.65C-106.58 -20.09 -106.65 -20.54 -106.74 -21C-106.78 -21.2 -106.82 -21.39 -106.85 -21.59C-106.89 -21.79 -106.92 -22 -106.97 -22.24L-107.13 -22.54C-107.37 -22.78 -107.71 -22.97 -108.14 -23.11C-108.58 -23.25 -109.03 -23.37 -109.48 -23.48C-109.74 -23.57 -109.99 -23.65 -110.23 -23.71C-110.47 -23.78 -110.65 -23.84 -110.76 -23.91L-111.28 -24.24L-111.67 -23.68C-112.24 -22.81 -112.8 -22.06 -113.35 -21.44C-113.91 -20.82 -114.55 -20.35 -115.26 -20.02L-115.85 -20.12C-116 -20.12 -116.13 -20.1 -116.23 -20.07C-116.33 -20.04 -116.42 -20 -116.51 -19.96L-116.86 -19.99L-117.09 -19.66C-117.44 -19.25 -117.73 -18.82 -117.96 -18.39C-118.19 -17.95 -118.4 -17.52 -118.6 -17.08C-118.77 -16.71 -118.95 -16.35 -119.13 -16C-119.32 -15.66 -119.56 -15.26 -119.87 -14.83C-119.91 -14.7 -119.93 -14.58 -119.93 -14.49C-119.93 -14.39 -119.92 -14.3 -119.9 -14.21C-120.1 -13.77 -120.3 -13.35 -120.51 -12.93C-120.71 -12.52 -120.91 -12.11 -121.11 -11.69C-121.74 -10.41 -122.35 -9.16 -122.92 -7.94C-123.5 -6.72 -124.06 -5.44 -124.61 -4.12L-124.64 -3.43ZM-114.64 -11.59L-114.61 -11.63C-114.28 -12.24 -113.87 -12.88 -113.37 -13.55C-112.87 -14.23 -112.35 -14.86 -111.8 -15.45L-111.64 -15.78C-111.4 -14.93 -111.18 -14.08 -110.97 -13.24C-110.76 -12.41 -110.57 -11.58 -110.4 -10.78C-111.16 -10.63 -111.87 -10.52 -112.52 -10.45C-113.17 -10.39 -113.88 -10.33 -114.64 -10.29C-114.8 -10.27 -114.94 -10.26 -115.08 -10.26C-115.23 -10.26 -115.37 -10.24 -115.53 -10.22C-115.24 -10.7 -114.95 -11.16 -114.64 -11.59Z M-94.18 0.36C-92.73 -0.32 -91.23 -0.95 -89.69 -1.55C-88.16 -2.15 -86.68 -2.81 -85.27 -3.53C-83.85 -4.25 -82.55 -5.07 -81.35 -6.01C-80.15 -6.95 -79.16 -8.1 -78.38 -9.47L-78.38 -9.93C-78.38 -10.04 -78.36 -10.14 -78.34 -10.22L-78.28 -10.48C-78.26 -10.57 -78.22 -10.68 -78.18 -10.81C-78.27 -12.2 -78.58 -13.41 -79.13 -14.44C-79.67 -15.46 -80.35 -16.37 -81.17 -17.16C-81.98 -17.96 -82.89 -18.69 -83.88 -19.35C-84.87 -20.02 -85.83 -20.69 -86.77 -21.36C-87.38 -21.51 -88 -21.71 -88.63 -21.97C-89.26 -22.22 -89.91 -22.48 -90.56 -22.75C-91.21 -23.02 -91.88 -23.3 -92.55 -23.58C-93.23 -23.86 -93.91 -24.12 -94.61 -24.33C-94.78 -24.03 -94.9 -23.69 -94.97 -23.32C-95.03 -22.95 -95.15 -22.57 -95.33 -22.18C-95.2 -21.68 -95.06 -21.24 -94.92 -20.85C-94.78 -20.47 -94.71 -20.09 -94.71 -19.7L-95.23 -19.7C-95.4 -19.7 -95.47 -19.6 -95.43 -19.4C-95.38 -19.31 -95.38 -19.21 -95.43 -19.09C-95.47 -18.97 -95.5 -18.79 -95.52 -18.55C-95.22 -17.44 -95 -16.23 -94.87 -14.93C-94.74 -13.62 -94.76 -12.35 -94.94 -11.11C-95.07 -11.04 -95.2 -10.91 -95.33 -10.71C-95.39 -10.02 -95.52 -9.34 -95.72 -8.69C-95.92 -8.03 -96.13 -7.36 -96.37 -6.66C-96.35 -6.31 -96.41 -6.04 -96.55 -5.85C-96.69 -5.65 -96.81 -5.41 -96.89 -5.13C-96.83 -4.5 -96.77 -3.89 -96.72 -3.3C-96.66 -2.71 -96.55 -2.17 -96.39 -1.68C-96.23 -1.19 -95.97 -0.77 -95.64 -0.41C-95.3 -0.05 -94.82 0.21 -94.18 0.36ZM-90.98 -18.16C-90.74 -17.94 -90.4 -17.77 -89.94 -17.65C-89.48 -17.53 -88.97 -17.32 -88.4 -17.02C-88.03 -17 -87.71 -16.92 -87.44 -16.79C-87.17 -16.66 -86.91 -16.52 -86.67 -16.38C-86.43 -16.24 -86.18 -16.1 -85.92 -15.96C-85.66 -15.81 -85.35 -15.72 -85.01 -15.68C-84.85 -15.35 -84.65 -15.06 -84.4 -14.81C-84.15 -14.56 -83.89 -14.32 -83.62 -14.09C-83.35 -13.86 -83.08 -13.64 -82.83 -13.41C-82.58 -13.18 -82.37 -12.9 -82.2 -12.57C-82.44 -12.03 -82.74 -11.56 -83.11 -11.17C-83.48 -10.78 -83.9 -10.43 -84.35 -10.13C-84.81 -9.82 -85.31 -9.55 -85.86 -9.31C-86.4 -9.07 -86.94 -8.84 -87.49 -8.62C-87.6 -8.51 -87.72 -8.41 -87.86 -8.31C-88.01 -8.21 -88.12 -8.08 -88.21 -7.9C-88.53 -7.88 -88.82 -7.83 -89.07 -7.74C-89.32 -7.65 -89.56 -7.56 -89.79 -7.45C-90.02 -7.34 -90.24 -7.24 -90.46 -7.15C-90.68 -7.07 -90.93 -7.01 -91.21 -6.99C-91.02 -8.06 -90.86 -9.05 -90.75 -9.96C-90.65 -10.88 -90.6 -11.77 -90.61 -12.64C-90.62 -13.51 -90.69 -14.38 -90.82 -15.25C-90.95 -16.12 -91.15 -17.05 -91.41 -18.03C-91.32 -18.12 -91.18 -18.16 -90.98 -18.16Z M-68.43 -3.07C-68.54 -3.31 -68.57 -3.53 -68.51 -3.72C-68.46 -3.92 -68.38 -4.1 -68.27 -4.26C-68.16 -4.43 -68.05 -4.59 -67.93 -4.75C-67.81 -4.92 -67.73 -5.1 -67.68 -5.29C-67.51 -5.29 -67.38 -5.39 -67.29 -5.59C-67.2 -5.78 -67.12 -6 -67.03 -6.24C-66.94 -6.48 -66.84 -6.71 -66.73 -6.92C-66.63 -7.14 -66.46 -7.28 -66.24 -7.35C-65.74 -5.96 -65.07 -4.75 -64.22 -3.72C-63.37 -2.7 -62.41 -1.8 -61.35 -1.01C-60.63 -0.75 -60.04 -0.66 -59.6 -0.73C-59.15 -0.81 -58.76 -0.97 -58.42 -1.21C-58.08 -1.45 -57.77 -1.71 -57.49 -1.99C-57.21 -2.28 -56.88 -2.5 -56.51 -2.68C-56.62 -2.94 -56.63 -3.1 -56.53 -3.15C-56.43 -3.21 -56.39 -3.33 -56.41 -3.53C-56.24 -3.51 -56.14 -3.47 -56.12 -3.41C-56.1 -3.36 -56.03 -3.38 -55.92 -3.46C-55.66 -3.94 -55.41 -4.42 -55.17 -4.9C-54.93 -5.38 -54.61 -5.78 -54.19 -6.11C-54.08 -6.67 -53.91 -7.29 -53.67 -7.95C-53.43 -8.62 -53.21 -9.27 -53.02 -9.9C-53.04 -10.59 -53.01 -11.24 -52.92 -11.82C-52.83 -12.41 -52.73 -12.98 -52.62 -13.52C-52.52 -14.07 -52.4 -14.62 -52.27 -15.19C-52.13 -15.75 -52.04 -16.36 -51.97 -17.02C-51.73 -17.17 -51.55 -17.35 -51.42 -17.57C-51.29 -17.79 -51.18 -18.03 -51.11 -18.29C-51.03 -18.55 -50.96 -18.81 -50.89 -19.07C-50.83 -19.34 -50.73 -19.58 -50.6 -19.79C-50.69 -20.29 -50.86 -20.75 -51.12 -21.15C-51.38 -21.55 -51.67 -21.97 -51.97 -22.41C-52.36 -22.47 -52.69 -22.6 -52.95 -22.8C-53.21 -22.99 -53.46 -23.21 -53.7 -23.43C-53.94 -23.66 -54.2 -23.87 -54.47 -24.06C-54.74 -24.24 -55.07 -24.35 -55.47 -24.4C-55.64 -24.09 -55.78 -23.75 -55.87 -23.37C-55.97 -22.99 -56.07 -22.61 -56.17 -22.24C-56.27 -21.87 -56.39 -21.51 -56.53 -21.16C-56.67 -20.82 -56.86 -20.52 -57.1 -20.28C-57.3 -19.02 -57.49 -17.78 -57.67 -16.56C-57.86 -15.34 -58.12 -14.2 -58.46 -13.13C-58.79 -12.06 -59.25 -11.09 -59.83 -10.22C-60.4 -9.35 -61.16 -8.64 -62.1 -8.1C-62.25 -8.78 -62.34 -9.43 -62.36 -10.06C-62.38 -10.69 -62.38 -11.31 -62.36 -11.91C-62.34 -12.5 -62.31 -13.09 -62.29 -13.67C-62.27 -14.25 -62.29 -14.82 -62.36 -15.38C-62.27 -15.36 -62.21 -15.37 -62.18 -15.4C-62.15 -15.43 -62.12 -15.47 -62.1 -15.51C-62.08 -15.56 -62.05 -15.6 -62.02 -15.63C-61.98 -15.66 -61.92 -15.68 -61.84 -15.68C-61.92 -15.96 -61.94 -16.18 -61.88 -16.35C-61.83 -16.51 -61.76 -16.66 -61.67 -16.8C-61.59 -16.95 -61.52 -17.1 -61.48 -17.28C-61.43 -17.45 -61.47 -17.69 -61.57 -18C-61.47 -17.95 -61.39 -17.96 -61.35 -18.01C-61.3 -18.07 -61.23 -18.08 -61.12 -18.06C-61.23 -18.21 -61.28 -18.33 -61.28 -18.42C-61.28 -18.51 -61.27 -18.58 -61.25 -18.63C-61.23 -18.69 -61.22 -18.74 -61.23 -18.8C-61.24 -18.85 -61.3 -18.94 -61.41 -19.07C-61.37 -19.16 -61.31 -19.18 -61.25 -19.14C-61.18 -19.1 -61.13 -19.14 -61.08 -19.27C-61.19 -19.92 -61.42 -20.51 -61.75 -21.02C-62.09 -21.53 -62.5 -21.98 -62.98 -22.37C-63.46 -22.77 -63.99 -23.11 -64.56 -23.4C-65.14 -23.7 -65.73 -23.95 -66.34 -24.17C-67.02 -22.69 -67.72 -21.18 -68.45 -19.65C-69.18 -18.11 -69.91 -16.59 -70.64 -15.07C-71.37 -13.56 -72.09 -12.07 -72.81 -10.6C-73.53 -9.13 -74.2 -7.72 -74.84 -6.37C-74.68 -6.19 -74.58 -5.97 -74.52 -5.7C-74.47 -5.43 -74.39 -5.18 -74.28 -4.96C-74.35 -4.96 -74.42 -4.97 -74.49 -4.98C-74.57 -4.99 -74.61 -4.95 -74.61 -4.87C-74.41 -4.5 -74.22 -4.06 -74.03 -3.56C-73.85 -3.06 -73.63 -2.57 -73.38 -2.09C-73.13 -1.61 -72.84 -1.17 -72.5 -0.77C-72.16 -0.36 -71.74 -0.09 -71.24 0.07C-71.05 0.02 -70.88 -0.04 -70.75 -0.13C-70.62 -0.22 -70.4 -0.24 -70.1 -0.2C-70.14 -0.37 -70.19 -0.47 -70.25 -0.49C-70.3 -0.51 -70.28 -0.58 -70.2 -0.69C-69.78 -0.66 -69.49 -0.75 -69.33 -0.93C-69.17 -1.12 -69.05 -1.34 -68.99 -1.6C-68.92 -1.86 -68.87 -2.13 -68.83 -2.4C-68.78 -2.67 -68.65 -2.9 -68.43 -3.07Z M-48.2 0.39C-47.42 0.37 -46.65 0.27 -45.88 0.08C-45.12 -0.1 -44.38 -0.28 -43.65 -0.44C-42.92 -0.6 -42.2 -0.71 -41.49 -0.75C-40.78 -0.79 -40.09 -0.71 -39.42 -0.49C-39.35 -0.53 -39.33 -0.6 -39.35 -0.7C-39.37 -0.8 -39.33 -0.86 -39.22 -0.88C-38.7 -0.93 -38.13 -0.98 -37.52 -1.05C-36.91 -1.11 -36.29 -1.1 -35.66 -1.01C-35.51 -1.19 -35.34 -1.34 -35.17 -1.49C-35 -1.63 -34.81 -1.68 -34.62 -1.63C-34.46 -1.83 -34.3 -2.06 -34.14 -2.32C-33.98 -2.58 -33.87 -2.84 -33.81 -3.09C-33.76 -3.34 -33.79 -3.57 -33.9 -3.79C-34.01 -4.01 -34.27 -4.17 -34.68 -4.28C-34.68 -4.5 -34.75 -4.65 -34.89 -4.75C-35.03 -4.85 -35.19 -4.93 -35.37 -5C-35.54 -5.06 -35.7 -5.14 -35.86 -5.23C-36.01 -5.31 -36.11 -5.48 -36.15 -5.72L-38.37 -5.72C-38.2 -6.09 -38.05 -6.42 -37.93 -6.71C-37.81 -7.01 -37.69 -7.31 -37.57 -7.61C-37.45 -7.92 -37.32 -8.24 -37.18 -8.59C-37.04 -8.94 -36.86 -9.36 -36.64 -9.86C-36.66 -10.08 -36.57 -10.56 -36.36 -11.28C-36.16 -12.01 -35.91 -12.84 -35.63 -13.77C-35.34 -14.69 -35.07 -15.64 -34.79 -16.61C-34.52 -17.58 -34.33 -18.42 -34.22 -19.14C-33.57 -19.16 -32.9 -19.19 -32.21 -19.22C-31.53 -19.25 -30.87 -19.32 -30.24 -19.42C-29.61 -19.52 -29.02 -19.65 -28.49 -19.81C-27.96 -19.97 -27.52 -20.19 -27.17 -20.45C-27.17 -20.66 -27.16 -20.89 -27.15 -21.12C-27.14 -21.34 -27.16 -21.55 -27.2 -21.74C-27.24 -21.92 -27.35 -22.08 -27.51 -22.21C-27.67 -22.34 -27.92 -22.43 -28.25 -22.47C-28.4 -23.02 -28.68 -23.4 -29.08 -23.61C-29.48 -23.83 -29.94 -23.97 -30.45 -24.04C-30.96 -24.1 -31.47 -24.14 -31.99 -24.14C-32.5 -24.14 -32.95 -24.2 -33.34 -24.33C-34.39 -24.27 -35.52 -24.21 -36.75 -24.17C-37.98 -24.13 -39.17 -24.08 -40.3 -24.04C-40.56 -23.86 -40.88 -23.75 -41.25 -23.7C-41.62 -23.64 -42 -23.6 -42.4 -23.57C-42.81 -23.53 -43.22 -23.5 -43.63 -23.47C-44.04 -23.43 -44.44 -23.36 -44.81 -23.26C-44.74 -23.12 -44.75 -22.93 -44.84 -22.68C-44.93 -22.43 -45.06 -22.29 -45.23 -22.24C-45.01 -22.07 -44.88 -21.79 -44.84 -21.41C-44.79 -21.03 -44.82 -20.74 -44.9 -20.54C-44.75 -20.24 -44.62 -19.95 -44.51 -19.66C-44.4 -19.38 -44.27 -19.13 -44.12 -18.91C-43.97 -18.69 -43.77 -18.51 -43.52 -18.36C-43.27 -18.2 -42.92 -18.12 -42.49 -18.09C-42.27 -18.2 -41.91 -18.32 -41.41 -18.44C-40.91 -18.56 -40.24 -18.68 -39.42 -18.81C-39.53 -17.92 -39.68 -17.15 -39.89 -16.51C-40.1 -15.87 -40.33 -15.17 -40.59 -14.4C-40.64 -13.92 -40.73 -13.47 -40.89 -13.05C-41.04 -12.62 -41.21 -12.2 -41.41 -11.77C-41.6 -11.35 -41.81 -10.9 -42.01 -10.44C-42.22 -9.97 -42.39 -9.46 -42.52 -8.92C-42.78 -8.35 -43.05 -7.76 -43.34 -7.14C-43.62 -6.52 -43.92 -5.87 -44.25 -5.19C-44.71 -5.19 -45.13 -5.17 -45.52 -5.11C-45.92 -5.06 -46.31 -5 -46.7 -4.93C-47.09 -4.87 -47.49 -4.8 -47.91 -4.74C-48.32 -4.67 -48.79 -4.63 -49.31 -4.61C-49.47 -4.47 -49.61 -4.34 -49.74 -4.2C-49.87 -4.06 -49.93 -3.83 -49.93 -3.53C-49.85 -3.18 -49.76 -2.81 -49.69 -2.43C-49.61 -2.05 -49.51 -1.69 -49.39 -1.34C-49.27 -0.99 -49.12 -0.66 -48.94 -0.36C-48.75 -0.05 -48.51 0.2 -48.2 0.39ZM-27.82 -32.43C-27.65 -32.69 -27.55 -32.94 -27.54 -33.18C-27.53 -33.42 -27.56 -33.66 -27.63 -33.9C-27.69 -34.14 -27.79 -34.39 -27.92 -34.64C-28.05 -34.89 -28.18 -35.17 -28.31 -35.47C-28.49 -35.56 -28.68 -35.72 -28.9 -35.94C-29.12 -36.17 -29.24 -36.41 -29.26 -36.65C-29.37 -36.58 -29.53 -36.61 -29.73 -36.73C-29.94 -36.85 -30.06 -36.97 -30.11 -37.1C-30.35 -36.97 -30.57 -36.8 -30.78 -36.6L-31.38 -35.99C-31.58 -35.8 -31.78 -35.62 -31.99 -35.45C-32.19 -35.29 -32.4 -35.19 -32.62 -35.14C-33.15 -34.56 -33.71 -33.97 -34.3 -33.4C-34.9 -32.82 -35.45 -32.26 -35.95 -31.71C-36.04 -31.41 -36.2 -31.18 -36.43 -31.03C-36.66 -30.88 -36.86 -30.71 -37.05 -30.54C-37.23 -30.36 -37.35 -30.16 -37.39 -29.92C-37.44 -29.68 -37.32 -29.33 -37.03 -28.87C-37.16 -28.66 -37.22 -28.46 -37.2 -28.29C-37.17 -28.11 -37.11 -27.95 -37.02 -27.8C-36.92 -27.64 -36.79 -27.49 -36.64 -27.34L-36.18 -26.88C-35.66 -26.9 -35.12 -27.07 -34.55 -27.37C-33.98 -27.68 -33.43 -28.03 -32.9 -28.43C-32.37 -28.84 -31.87 -29.25 -31.41 -29.67C-30.96 -30.1 -30.57 -30.45 -30.24 -30.73C-29.61 -31.3 -29.09 -31.71 -28.69 -31.98C-28.28 -32.24 -28 -32.39 -27.82 -32.43Z M-12.02 -14.73C-11.89 -14.49 -11.74 -14.28 -11.58 -14.09C-11.42 -13.91 -11.26 -13.71 -11.11 -13.49C-10.87 -13.53 -10.71 -13.51 -10.65 -13.41C-10.58 -13.31 -10.53 -13.2 -10.48 -13.06C-9.72 -12.74 -8.93 -12.51 -8.12 -12.38C-7.3 -12.25 -6.43 -12.16 -5.52 -12.12C-5.15 -12.03 -4.83 -11.94 -4.57 -11.86C-4.31 -11.77 -4.05 -11.81 -3.79 -11.99C-3.35 -11.75 -2.82 -11.53 -2.19 -11.33C-1.56 -11.14 -0.96 -10.9 -0.39 -10.62C-0.35 -10.62 -0.3 -10.6 -0.24 -10.58C-0.19 -10.56 -0.13 -10.54 -0.07 -10.52C-0.07 -10.43 -0.04 -10.36 0 -10.32C0.04 -10.28 0.09 -10.24 0.13 -10.21C0.17 -10.17 0.21 -10.14 0.23 -10.09C0.25 -10.05 0.25 -9.98 0.23 -9.9C0.16 -9.66 0.07 -9.46 -0.07 -9.29C-0.2 -9.13 -0.34 -8.98 -0.49 -8.84C-0.64 -8.69 -0.79 -8.55 -0.93 -8.39C-1.07 -8.24 -1.18 -8.06 -1.24 -7.84C-1.85 -7.53 -2.48 -7.2 -3.12 -6.84C-3.76 -6.48 -4.44 -6.15 -5.14 -5.85C-5.85 -5.54 -6.6 -5.3 -7.4 -5.13C-8.19 -4.95 -9.04 -4.91 -9.93 -5C-10.23 -4.82 -10.42 -4.61 -10.48 -4.36C-10.55 -4.11 -10.57 -3.84 -10.55 -3.56C-10.53 -3.28 -10.5 -3 -10.47 -2.73C-10.44 -2.46 -10.47 -2.22 -10.58 -2.03C-10.6 -1.96 -10.59 -1.91 -10.53 -1.86C-10.48 -1.82 -10.42 -1.78 -10.37 -1.75C-10.32 -1.71 -10.28 -1.68 -10.27 -1.65C-10.26 -1.62 -10.3 -1.57 -10.39 -1.5L-10.45 -1.37C-10.47 -1.33 -10.48 -1.26 -10.48 -1.18C-10.38 -1.18 -10.33 -1.12 -10.34 -1C-10.35 -0.88 -10.3 -0.81 -10.19 -0.78C-10.1 -0.54 -9.99 -0.34 -9.85 -0.16C-9.71 0.01 -9.55 0.19 -9.37 0.36C-9.09 0.32 -8.8 0.3 -8.51 0.33C-8.21 0.35 -7.92 0.36 -7.63 0.38C-7.33 0.39 -7.06 0.37 -6.81 0.33C-6.56 0.28 -6.34 0.17 -6.14 0C-6.21 0.15 -6.18 0.22 -6.06 0.2C-5.94 0.17 -5.84 0.17 -5.75 0.2C-4.79 -0.09 -3.82 -0.44 -2.84 -0.87C-1.86 -1.29 -0.93 -1.79 -0.05 -2.37C0.83 -2.95 1.62 -3.61 2.32 -4.38C3.02 -5.14 3.55 -6 3.92 -6.96C4.14 -7.46 4.23 -7.97 4.2 -8.49C4.16 -9.01 4.13 -9.6 4.08 -10.26C3.91 -10.67 3.66 -11.06 3.35 -11.42C3.03 -11.77 2.83 -12.12 2.74 -12.44C2.61 -12.6 2.5 -12.65 2.4 -12.61C2.3 -12.56 2.21 -12.65 2.12 -12.87C2.14 -13.11 2.11 -13.38 2.03 -13.67C1.94 -13.96 1.8 -14.24 1.6 -14.5C1.4 -14.76 1.16 -14.99 0.88 -15.17C0.6 -15.36 0.26 -15.46 -0.13 -15.48C-0.2 -15.74 -0.34 -15.93 -0.56 -16.05C-0.77 -16.17 -1.02 -16.27 -1.29 -16.33C-1.56 -16.4 -1.83 -16.47 -2.09 -16.54C-2.35 -16.62 -2.56 -16.76 -2.71 -16.95C-2.67 -17.08 -2.68 -17.17 -2.74 -17.21C-2.81 -17.26 -2.83 -17.33 -2.81 -17.44C-2.37 -17.48 -1.96 -17.54 -1.57 -17.62C-1.18 -17.7 -0.86 -17.84 -0.62 -18.06C-0.32 -18.02 0.01 -18.05 0.36 -18.14C0.71 -18.24 1.06 -18.34 1.42 -18.44C1.78 -18.54 2.12 -18.59 2.45 -18.6C2.78 -18.61 3.06 -18.49 3.3 -18.23C4.08 -18.31 4.96 -18.39 5.94 -18.45C6.92 -18.52 7.9 -18.43 8.88 -18.19C9.17 -18.35 9.44 -18.51 9.7 -18.68C9.96 -18.86 10.21 -19.03 10.45 -19.21C10.56 -19.66 10.53 -20.03 10.37 -20.3C10.21 -20.57 9.99 -20.83 9.73 -21.07C9.71 -21.31 9.64 -21.54 9.5 -21.75C9.37 -21.97 9.23 -22.19 9.06 -22.42C8.9 -22.65 8.74 -22.89 8.59 -23.12C8.44 -23.36 8.32 -23.61 8.23 -23.88C6.79 -24.29 5.42 -24.46 4.12 -24.38C2.81 -24.31 1.54 -24.1 0.29 -23.78C-0.95 -23.45 -2.16 -23.08 -3.35 -22.67C-4.53 -22.25 -5.72 -21.94 -6.89 -21.72C-6.94 -21.61 -6.91 -21.56 -6.83 -21.56C-6.74 -21.56 -6.7 -21.51 -6.7 -21.43C-7.15 -21.3 -7.64 -21.14 -8.17 -20.95C-8.69 -20.77 -9.19 -20.54 -9.67 -20.27C-10.15 -19.99 -10.59 -19.66 -10.99 -19.27C-11.39 -18.88 -11.69 -18.4 -11.89 -17.83C-11.85 -17.49 -11.85 -17.21 -11.91 -17.02C-11.96 -16.82 -12.03 -16.55 -12.12 -16.2C-11.94 -15.96 -11.87 -15.74 -11.89 -15.53C-11.91 -15.32 -11.95 -15.06 -12.02 -14.73ZM6.96 -35.21C6.87 -35.17 6.74 -35.2 6.58 -35.31C6.42 -35.42 6.31 -35.53 6.27 -35.63C6.08 -35.53 5.9 -35.38 5.73 -35.19C5.57 -35.01 5.41 -34.83 5.24 -34.65C5.08 -34.48 4.92 -34.32 4.75 -34.18C4.59 -34.04 4.42 -33.96 4.25 -33.94C3.81 -33.41 3.36 -32.9 2.89 -32.4C2.42 -31.9 1.98 -31.41 1.57 -30.93C1.15 -31.41 0.71 -31.9 0.24 -32.4C-0.22 -32.9 -0.68 -33.41 -1.11 -33.94C-1.28 -33.96 -1.45 -34.04 -1.62 -34.18C-1.78 -34.32 -1.94 -34.48 -2.11 -34.65C-2.27 -34.83 -2.43 -35.01 -2.6 -35.19C-2.76 -35.38 -2.94 -35.53 -3.14 -35.63C-3.18 -35.53 -3.28 -35.42 -3.45 -35.31C-3.61 -35.2 -3.73 -35.17 -3.82 -35.21C-3.84 -35.01 -3.94 -34.82 -4.12 -34.62C-4.29 -34.43 -4.44 -34.28 -4.57 -34.2C-4.68 -33.94 -4.79 -33.7 -4.9 -33.48C-5.01 -33.26 -5.1 -33.05 -5.16 -32.84C-5.23 -32.63 -5.25 -32.43 -5.23 -32.22C-5.2 -32.01 -5.13 -31.8 -5 -31.58C-4.82 -31.52 -4.58 -31.37 -4.26 -31.14C-3.95 -30.91 -3.54 -30.56 -3.04 -30.08C-2.8 -29.86 -2.51 -29.59 -2.19 -29.25C-1.86 -28.91 -1.5 -28.58 -1.11 -28.25C-0.72 -27.93 -0.32 -27.63 0.1 -27.35C0.51 -27.08 0.94 -26.88 1.37 -26.75L1.83 -26.82C2.22 -26.9 2.62 -27.08 3.04 -27.35C3.45 -27.63 3.85 -27.93 4.25 -28.25C4.64 -28.58 5 -28.91 5.32 -29.25C5.65 -29.59 5.93 -29.86 6.17 -30.08C6.67 -30.56 7.08 -30.91 7.4 -31.14C7.71 -31.37 7.96 -31.52 8.13 -31.58C8.26 -31.8 8.34 -32.01 8.36 -32.22C8.38 -32.43 8.36 -32.63 8.3 -32.84C8.23 -33.05 8.14 -33.26 8.03 -33.48C7.93 -33.7 7.82 -33.94 7.71 -34.2C7.58 -34.28 7.43 -34.43 7.25 -34.62C7.08 -34.82 6.98 -35.01 6.96 -35.21Z M10.82 -5.98C10.76 -5.93 10.73 -5.88 10.74 -5.81C10.75 -5.75 10.72 -5.7 10.63 -5.68C10.52 -5.51 10.48 -5.35 10.51 -5.21C10.55 -5.07 10.6 -4.93 10.66 -4.8C10.73 -4.67 10.76 -4.54 10.78 -4.41C10.79 -4.28 10.72 -4.14 10.56 -3.98C10.78 -3.85 11.01 -3.69 11.25 -3.49C11.07 -3.28 11.01 -3.06 11.07 -2.84C11.12 -2.62 11.21 -2.4 11.33 -2.17C11.45 -1.94 11.57 -1.69 11.69 -1.42C11.81 -1.15 11.87 -0.86 11.87 -0.56C12.07 -0.51 12.24 -0.44 12.39 -0.33C12.54 -0.22 12.7 -0.1 12.85 0.02C13 0.14 13.16 0.23 13.34 0.31C13.51 0.39 13.72 0.42 13.96 0.42C14.77 0.08 15.43 -0.42 15.97 -1.06C16.5 -1.7 17.01 -2.39 17.49 -3.12C17.97 -3.85 18.46 -4.57 18.97 -5.27C19.49 -5.98 20.12 -6.58 20.88 -7.05C20.99 -6.99 21.11 -6.96 21.23 -6.96C21.35 -6.96 21.44 -6.9 21.5 -6.79C21.83 -6.36 22.21 -5.96 22.63 -5.6C23.06 -5.24 23.5 -4.88 23.95 -4.51C24.32 -4.25 24.73 -3.96 25.18 -3.66C25.63 -3.35 25.95 -3.16 26.14 -3.07C26.3 -3 26.48 -2.98 26.7 -3C26.92 -3.03 27.11 -2.98 27.29 -2.87C27.33 -2.83 27.38 -2.75 27.43 -2.65C27.49 -2.54 27.55 -2.47 27.61 -2.45C28.53 -2.08 29.45 -1.84 30.39 -1.73C31.32 -1.62 32.42 -1.59 33.69 -1.63C34.6 -2.03 35.34 -2.54 35.89 -3.18C36.45 -3.83 36.75 -4.66 36.79 -5.68C36.55 -5.88 36.34 -6.07 36.15 -6.25C35.97 -6.44 35.78 -6.62 35.58 -6.79C35.39 -6.97 35.18 -7.13 34.96 -7.28C34.74 -7.44 34.47 -7.57 34.14 -7.68C34.01 -7.7 33.95 -7.66 33.97 -7.56C33.98 -7.46 33.93 -7.4 33.82 -7.38C32.84 -7.38 31.89 -7.39 30.98 -7.41C30.06 -7.44 29.21 -7.54 28.43 -7.74C27.65 -7.94 26.94 -8.25 26.31 -8.69C25.67 -9.12 25.16 -9.77 24.77 -10.62C24.84 -10.79 24.95 -10.93 25.11 -11.04C25.28 -11.15 25.4 -11.29 25.49 -11.46C25.58 -11.49 25.65 -11.5 25.72 -11.51C25.78 -11.52 25.86 -11.53 25.95 -11.53C26.06 -11.75 26.2 -11.93 26.39 -12.08C26.57 -12.24 26.77 -12.38 26.98 -12.53C27.18 -12.67 27.38 -12.81 27.58 -12.97C27.78 -13.12 27.94 -13.29 28.07 -13.49C28.66 -13.95 29.24 -14.35 29.82 -14.7C30.39 -15.05 30.96 -15.38 31.52 -15.71C32.07 -16.04 32.62 -16.38 33.15 -16.74C33.68 -17.1 34.21 -17.52 34.73 -18C34.82 -18.3 34.92 -18.56 35.04 -18.76C35.16 -18.97 35.27 -19.16 35.35 -19.34C35.33 -19.73 35.26 -20.02 35.12 -20.2C34.99 -20.39 34.84 -20.54 34.65 -20.67C34.47 -20.81 34.28 -20.94 34.1 -21.08C33.91 -21.22 33.75 -21.44 33.62 -21.72C33.25 -21.74 32.96 -21.89 32.74 -22.16C32.52 -22.43 32.3 -22.69 32.09 -22.93C31.76 -22.8 31.45 -22.66 31.16 -22.5C30.86 -22.35 30.53 -22.22 30.16 -22.11C30.14 -21.94 30.17 -21.83 30.26 -21.8C30.35 -21.77 30.38 -21.68 30.36 -21.52C30.25 -21.59 30.13 -21.64 30.01 -21.69C29.89 -21.73 29.72 -21.71 29.51 -21.62C29.07 -21.32 28.64 -21.04 28.22 -20.79C27.79 -20.54 27.38 -20.28 26.99 -20.01C26.6 -19.73 26.21 -19.44 25.83 -19.12C25.45 -18.81 25.01 -18.48 24.51 -18.13C23.88 -17.63 23.14 -17.09 22.29 -16.53C21.44 -15.96 20.7 -15.35 20.07 -14.7C20.09 -14.98 20.14 -15.29 20.21 -15.61C20.29 -15.94 20.39 -16.27 20.52 -16.59C20.66 -16.92 20.82 -17.23 21.01 -17.52C21.21 -17.82 21.43 -18.06 21.67 -18.26C21.58 -18.35 21.54 -18.42 21.54 -18.47C21.54 -18.52 21.55 -18.58 21.59 -18.63C21.62 -18.69 21.65 -18.75 21.67 -18.81C21.69 -18.88 21.69 -18.98 21.67 -19.11C22.06 -19.3 22.31 -19.58 22.42 -19.94C22.53 -20.3 22.54 -20.67 22.45 -21.05C22.36 -21.43 22.21 -21.8 21.99 -22.16C21.78 -22.52 21.53 -22.82 21.24 -23.06L20.66 -22.96C20.55 -23.07 20.46 -23.2 20.39 -23.34C20.33 -23.48 20.25 -23.6 20.17 -23.71C19.97 -23.71 19.78 -23.73 19.61 -23.78C19.44 -23.82 19.27 -23.88 19.12 -23.94C18.97 -24.01 18.81 -24.07 18.65 -24.12C18.48 -24.18 18.3 -24.21 18.11 -24.24C17.67 -24 17.33 -23.69 17.08 -23.32C16.83 -22.95 16.61 -22.56 16.43 -22.16C16.24 -21.76 16.06 -21.36 15.87 -20.97C15.69 -20.58 15.45 -20.24 15.17 -19.96C14.91 -18.74 14.57 -17.61 14.17 -16.58C13.77 -15.54 13.37 -14.51 12.96 -13.49C12.56 -12.47 12.19 -11.42 11.85 -10.34C11.52 -9.26 11.29 -8.07 11.18 -6.76L10.86 -6.63C10.75 -6.59 10.72 -6.49 10.76 -6.34C10.85 -6.27 10.88 -6.22 10.87 -6.17Z M46.7 0.13C47.7 0.35 48.57 0.4 49.31 0.29C50.05 0.19 50.82 -0.01 51.6 -0.29C51.93 -0.25 52.3 -0.27 52.71 -0.34C53.12 -0.42 53.54 -0.52 53.95 -0.65C54.36 -0.78 54.77 -0.93 55.16 -1.09C55.55 -1.26 55.89 -1.43 56.17 -1.6C56.54 -1.69 56.9 -1.77 57.25 -1.85C57.6 -1.92 57.92 -2.05 58.23 -2.22C58.67 -2.59 59.14 -2.91 59.67 -3.18C60.19 -3.46 60.62 -3.81 60.97 -4.25C61.26 -4.42 61.51 -4.68 61.72 -5.01C61.94 -5.35 62.12 -5.72 62.25 -6.11C62.38 -6.5 62.46 -6.91 62.51 -7.33C62.55 -7.76 62.55 -8.15 62.51 -8.52C62.46 -8.81 62.39 -9.09 62.28 -9.37C62.17 -9.66 62.06 -9.94 61.94 -10.22C61.82 -10.51 61.72 -10.79 61.64 -11.09C61.57 -11.38 61.55 -11.68 61.59 -11.99C60.96 -13.01 60.4 -14.08 59.9 -15.2C59.39 -16.33 58.84 -17.4 58.23 -18.42C58.32 -18.55 58.35 -18.72 58.33 -18.91C58.31 -19.06 58.23 -19.15 58.1 -19.16C57.97 -19.17 57.9 -19.26 57.9 -19.43C58.16 -19.54 58.34 -19.74 58.43 -20.04C58.51 -20.33 58.61 -20.61 58.72 -20.87C58.68 -21.02 58.63 -21.15 58.57 -21.26C58.52 -21.37 58.46 -21.47 58.41 -21.56C58.35 -21.64 58.31 -21.74 58.26 -21.85C58.22 -21.96 58.18 -22.1 58.13 -22.28C58.02 -22.3 57.95 -22.29 57.92 -22.24C57.89 -22.2 57.82 -22.18 57.71 -22.18C57.66 -22.42 57.57 -22.6 57.41 -22.73C57.26 -22.86 57.11 -22.99 56.96 -23.11C56.8 -23.23 56.66 -23.36 56.53 -23.5C56.4 -23.64 56.32 -23.84 56.3 -24.1C56 -24.41 55.66 -24.58 55.29 -24.61C54.92 -24.64 54.57 -24.75 54.24 -24.92C53.92 -24.7 53.67 -24.51 53.49 -24.33C53.32 -24.16 53.13 -23.89 52.94 -23.52C52.63 -23.47 52.41 -23.45 52.27 -23.45C52.13 -23.45 51.94 -23.44 51.7 -23.42C51.39 -23 51.13 -22.67 50.91 -22.41C50.7 -22.14 50.35 -21.91 49.87 -21.69L49.87 -21.26C49.65 -21.2 49.47 -21.11 49.31 -21C49.16 -20.89 49.01 -20.77 48.87 -20.64C48.73 -20.51 48.58 -20.39 48.41 -20.28C48.25 -20.17 48.06 -20.1 47.84 -20.05C47.73 -19.86 47.61 -19.7 47.47 -19.56C47.33 -19.43 47.17 -19.31 47.01 -19.19C46.85 -19.07 46.69 -18.94 46.55 -18.81C46.41 -18.68 46.3 -18.52 46.21 -18.32C46.08 -18.28 45.97 -18.2 45.87 -18.09C45.77 -17.99 45.68 -17.88 45.61 -17.77C45.53 -17.66 45.44 -17.57 45.34 -17.51C45.25 -17.44 45.12 -17.44 44.97 -17.51C44.27 -16.68 43.55 -15.82 42.8 -14.93C42.05 -14.03 41.38 -13.08 40.79 -12.05C40.2 -11.03 39.75 -9.91 39.45 -8.7C39.14 -7.5 39.09 -6.15 39.29 -4.67C39.57 -3.95 39.93 -3.28 40.38 -2.65C40.83 -2.01 41.36 -1.47 41.98 -1.01C42.6 -0.56 43.3 -0.22 44.09 0C44.87 0.22 45.74 0.26 46.7 0.13ZM47.12 -11.76C47.26 -11.8 47.33 -11.81 47.35 -11.79C47.38 -11.77 47.44 -11.79 47.55 -11.86C48.16 -12.62 48.84 -13.28 49.59 -13.85C50.34 -14.41 51.1 -15 51.86 -15.61C51.99 -15.5 52.14 -15.42 52.3 -15.35C52.46 -15.29 52.63 -15.25 52.79 -15.25C52.95 -15.25 53.1 -15.29 53.23 -15.37C53.36 -15.44 53.46 -15.59 53.53 -15.81C53.68 -15.66 53.82 -15.63 53.95 -15.74C54.08 -15.85 54.17 -15.96 54.21 -16.07C54.76 -15.24 55.24 -14.37 55.65 -13.44C56.06 -12.51 56.55 -11.66 57.12 -10.88C57.12 -10.62 57.14 -10.42 57.17 -10.29C57.2 -10.16 57.27 -9.99 57.38 -9.8C57.36 -9.43 57.26 -9.15 57.09 -8.95C56.91 -8.75 56.77 -8.52 56.66 -8.26C55.81 -7.83 55 -7.4 54.21 -6.97C53.43 -6.55 52.58 -6.29 51.66 -6.21C51.49 -6.21 51.4 -6.11 51.4 -5.91C50.9 -5.91 50.34 -5.86 49.7 -5.75C49.07 -5.64 48.44 -5.56 47.81 -5.5C47.18 -5.45 46.56 -5.46 45.97 -5.54C45.37 -5.61 44.85 -5.84 44.41 -6.21C44.44 -6.84 44.55 -7.39 44.76 -7.86C44.96 -8.32 45.21 -8.76 45.49 -9.18C45.77 -9.59 46.06 -10 46.36 -10.4C46.65 -10.81 46.91 -11.26 47.12 -11.76Z M68.92 -1.21C68.97 -1.12 69.01 -1.05 69.05 -0.98C69.1 -0.91 69.16 -0.78 69.25 -0.59C70.03 0.07 71.07 0.39 72.35 0.39C73.22 0.39 74.09 0.27 74.95 0.03C75.81 -0.21 76.61 -0.45 77.35 -0.69C77.46 -0.73 77.57 -0.76 77.68 -0.78C77.79 -0.81 77.97 -0.84 78.23 -0.88C78.56 -0.88 78.89 -0.9 79.21 -0.93C79.54 -0.96 79.86 -1 80.19 -1.05C80.5 -1.09 80.81 -1.12 81.12 -1.14C81.44 -1.16 81.75 -1.18 82.05 -1.18C82.84 -1.18 83.56 -1.06 84.21 -0.82C84.67 -0.95 85.11 -1.01 85.55 -1.01C85.77 -1.01 85.99 -1.02 86.23 -1.05C86.39 -1.2 86.53 -1.32 86.66 -1.42C86.79 -1.52 87.06 -1.61 87.48 -1.7L87.41 -2.12C87.5 -2.25 87.54 -2.41 87.54 -2.58C87.56 -2.67 87.49 -2.83 87.31 -3.07L87.02 -4.74C86.76 -4.93 86.49 -5.09 86.22 -5.21C85.95 -5.33 85.67 -5.44 85.38 -5.55C85.06 -5.66 84.75 -5.78 84.47 -5.9C84.19 -6.02 83.89 -6.23 83.59 -6.53C83.48 -6.55 83.39 -6.57 83.33 -6.57L83.13 -6.57C82.98 -6.57 82.87 -6.57 82.8 -6.58C82.74 -6.59 82.6 -6.67 82.38 -6.83C81.73 -6.76 81.02 -6.73 80.26 -6.73C79.34 -6.71 78.42 -6.65 77.5 -6.57C76.57 -6.48 75.72 -6.24 74.93 -5.85C74.67 -5.93 74.4 -5.98 74.12 -5.98C73.9 -5.98 73.66 -5.94 73.4 -5.88C73.44 -6.84 73.59 -7.69 73.86 -8.44C74.12 -9.19 74.4 -9.95 74.7 -10.71C74.88 -11.13 75.05 -11.55 75.23 -11.97C75.4 -12.4 75.53 -12.95 75.62 -13.62C75.75 -13.73 75.85 -13.85 75.91 -14C75.98 -14.14 76.03 -14.27 76.08 -14.4C76.12 -14.51 76.16 -14.62 76.19 -14.73C76.22 -14.84 76.3 -14.97 76.44 -15.12C76.54 -15.69 76.67 -16.17 76.83 -16.56C76.98 -16.95 77.14 -17.34 77.32 -17.74C77.47 -18.08 77.62 -18.45 77.77 -18.83C77.93 -19.21 78.07 -19.65 78.2 -20.15C78.29 -20.2 78.4 -20.32 78.53 -20.51C78.61 -21.08 78.55 -21.54 78.35 -21.9C78.14 -22.26 77.89 -22.6 77.61 -22.93L77.06 -23.42C76.62 -23.42 76.09 -23.52 75.47 -23.73C74.85 -23.94 74.31 -24.16 73.86 -24.4C73.77 -24.4 73.69 -24.39 73.63 -24.37C73.56 -24.34 73.51 -24.32 73.46 -24.3C73.33 -24.26 73.18 -24.17 73.01 -24.04C72.68 -22.73 72.31 -21.5 71.91 -20.35C71.51 -19.19 71.09 -18.02 70.65 -16.82C70.41 -16.17 70.17 -15.49 69.92 -14.78C69.67 -14.07 69.41 -13.34 69.15 -12.57C69.13 -12.53 69.11 -12.48 69.09 -12.43C69.06 -12.37 69.03 -12.31 68.99 -12.25C68.88 -12.01 68.77 -11.75 68.66 -11.46C68.55 -11.18 68.54 -10.92 68.63 -10.68C68.41 -10.42 68.25 -10.09 68.14 -9.68C68.03 -9.28 67.92 -8.87 67.81 -8.46C67.77 -8.22 67.71 -7.99 67.65 -7.77C67.54 -7.32 67.46 -6.83 67.42 -6.3C67.38 -5.78 67.39 -5.26 67.45 -4.75C67.52 -4.24 67.64 -3.75 67.81 -3.27C67.99 -2.79 68.23 -2.36 68.53 -1.99C68.57 -1.8 68.63 -1.64 68.69 -1.52C68.76 -1.4 68.84 -1.3 68.92 -1.21Z M90.72 -3.1L91.21 -2.61C91.3 -2.5 91.36 -2.31 91.41 -2.03C91.45 -1.87 91.48 -1.73 91.51 -1.58C91.53 -1.44 91.58 -1.28 91.67 -1.11L91.86 -0.85C92.08 -0.74 92.27 -0.62 92.44 -0.47C92.6 -0.33 92.81 -0.13 93.07 0.13L93.5 0.16C93.65 0.16 93.79 0.15 93.91 0.13C94.03 0.11 94.23 0.07 94.51 0L95 -0.07L95.1 -0.49C95.19 -0.58 95.34 -0.66 95.56 -0.75C95.71 -0.82 95.87 -0.89 96.03 -0.98C96.19 -1.07 96.33 -1.2 96.44 -1.37L96.57 -1.8C96.57 -2.12 96.62 -2.45 96.72 -2.78C96.81 -3.1 96.92 -3.44 97.03 -3.79C97.11 -4.01 97.19 -4.22 97.27 -4.44C97.35 -4.66 97.41 -4.89 97.45 -5.13C97.49 -5.17 97.55 -5.21 97.61 -5.26C97.68 -5.3 97.73 -5.36 97.78 -5.42L98.1 -5.72L97.97 -6.08C97.95 -6.12 97.96 -6.18 97.99 -6.27C98.02 -6.36 98.06 -6.42 98.1 -6.47L98.53 -6.53L98.66 -6.96C98.7 -7.11 98.75 -7.27 98.81 -7.43C98.86 -7.59 98.93 -7.76 99.02 -7.94C99.04 -7.68 99.13 -7.43 99.28 -7.19C99.19 -6.86 99.22 -6.59 99.38 -6.37C99.53 -6.15 99.66 -5.98 99.77 -5.85L99.92 -5.7C99.97 -5.65 100 -5.6 100 -5.55L100.1 -5.19L100.46 -5.16C100.87 -5.1 101.26 -5.06 101.63 -5.06C102.2 -5.06 102.72 -5.11 103.2 -5.21C103.68 -5.31 104.17 -5.42 104.67 -5.55C105.02 -5.64 105.37 -5.72 105.71 -5.8C106.06 -5.87 106.51 -5.86 107.05 -5.75C107.1 -5.05 107.01 -4.57 106.79 -4.3C106.57 -4.02 106.14 -3.8 105.48 -3.63L104.41 -3.33L105.06 -2.58C105.15 -2.49 105.22 -2.41 105.29 -2.34C105.35 -2.26 105.43 -2.19 105.52 -2.12C105.76 -1.91 105.92 -1.73 105.99 -1.6C106.07 -1.47 106.07 -1.32 106.01 -1.14L105.88 -0.65L106.3 -0.46C106.41 -0.41 106.55 -0.33 106.73 -0.2C106.83 -0.11 106.96 -0.02 107.1 0.07C107.24 0.15 107.47 0.23 107.77 0.29C108.32 0.27 108.84 0.15 109.34 -0.08C109.84 -0.31 110.29 -0.6 110.69 -0.96C111.1 -1.32 111.45 -1.73 111.74 -2.17C112.03 -2.62 112.29 -3.12 112.51 -3.69C112.57 -4.19 112.58 -4.68 112.52 -5.14C112.47 -5.61 112.4 -6.06 112.31 -6.5C112.27 -6.67 112.24 -6.83 112.23 -6.96C112.22 -7.09 112.19 -7.23 112.15 -7.38C112.76 -7.66 113.31 -8.02 113.8 -8.46C114.29 -8.89 114.65 -9.34 114.89 -9.8L115.22 -10.42L114.63 -10.65C114.59 -10.67 114.53 -10.71 114.47 -10.76C114.4 -10.82 114.35 -10.87 114.3 -10.91C114.19 -11.02 114.06 -11.13 113.9 -11.25C113.73 -11.37 113.48 -11.44 113.13 -11.46C113.04 -11.53 112.96 -11.59 112.9 -11.66C112.83 -11.73 112.78 -11.79 112.74 -11.86L112.61 -12.25L112.18 -12.22C111.83 -12.19 111.53 -12.13 111.27 -12.02C111.22 -12.04 111.09 -12.05 110.87 -12.05C110.66 -12.57 110.48 -13.12 110.35 -13.7C110.22 -14.28 110.1 -14.88 109.99 -15.51C109.91 -15.95 109.81 -16.39 109.71 -16.84C109.62 -17.28 109.51 -17.72 109.4 -18.16C109.38 -18.7 109.34 -19.2 109.27 -19.65C109.21 -20.09 109.13 -20.54 109.05 -21C109 -21.2 108.96 -21.39 108.93 -21.59C108.9 -21.79 108.86 -22 108.82 -22.24L108.65 -22.54C108.41 -22.78 108.08 -22.97 107.64 -23.11C107.21 -23.25 106.76 -23.37 106.3 -23.48C106.04 -23.57 105.79 -23.65 105.55 -23.71C105.31 -23.78 105.14 -23.84 105.03 -23.91L104.51 -24.24L104.11 -23.68C103.55 -22.81 102.99 -22.06 102.43 -21.44C101.88 -20.82 101.24 -20.35 100.52 -20.02L99.93 -20.12C99.78 -20.12 99.65 -20.1 99.56 -20.07C99.46 -20.04 99.37 -20 99.28 -19.96L98.92 -19.99L98.69 -19.66C98.34 -19.25 98.05 -18.82 97.83 -18.39C97.6 -17.95 97.38 -17.52 97.19 -17.08C97.01 -16.71 96.83 -16.35 96.65 -16C96.46 -15.66 96.22 -15.26 95.92 -14.83C95.87 -14.7 95.85 -14.58 95.85 -14.49C95.85 -14.39 95.86 -14.3 95.88 -14.21C95.69 -13.77 95.48 -13.35 95.28 -12.93C95.07 -12.52 94.87 -12.11 94.67 -11.69C94.04 -10.41 93.44 -9.16 92.86 -7.94C92.28 -6.72 91.72 -5.44 91.18 -4.12L91.15 -3.43ZM101.14 -11.59L101.17 -11.63C101.5 -12.24 101.91 -12.88 102.41 -13.55C102.92 -14.23 103.44 -14.86 103.98 -15.45L104.15 -15.78C104.39 -14.93 104.61 -14.08 104.82 -13.24C105.02 -12.41 105.21 -11.58 105.39 -10.78C104.62 -10.63 103.92 -10.52 103.26 -10.45C102.61 -10.39 101.9 -10.33 101.14 -10.29C100.99 -10.27 100.84 -10.26 100.7 -10.26C100.56 -10.26 100.41 -10.24 100.26 -10.22C100.54 -10.7 100.84 -11.16 101.14 -11.59Z M135.98 -1.21C136.03 -1.12 136.07 -1.05 136.12 -0.98C136.16 -0.91 136.22 -0.78 136.31 -0.59C137.1 0.07 138.13 0.39 139.41 0.39C140.29 0.39 141.15 0.27 142.01 0.03C142.87 -0.21 143.67 -0.45 144.41 -0.69C144.52 -0.73 144.63 -0.76 144.74 -0.78C144.85 -0.81 145.03 -0.84 145.29 -0.88C145.62 -0.88 145.95 -0.9 146.27 -0.93C146.6 -0.96 146.93 -1 147.25 -1.05C147.56 -1.09 147.87 -1.12 148.18 -1.14C148.5 -1.16 148.81 -1.18 149.11 -1.18C149.9 -1.18 150.62 -1.06 151.27 -0.82C151.73 -0.95 152.17 -1.01 152.61 -1.01C152.83 -1.01 153.06 -1.02 153.3 -1.05C153.45 -1.2 153.59 -1.32 153.72 -1.42C153.85 -1.52 154.12 -1.61 154.54 -1.7L154.47 -2.12C154.56 -2.25 154.6 -2.41 154.6 -2.58C154.62 -2.67 154.55 -2.83 154.37 -3.07L154.08 -4.74C153.82 -4.93 153.55 -5.09 153.28 -5.21C153.01 -5.33 152.73 -5.44 152.45 -5.55C152.12 -5.66 151.81 -5.78 151.53 -5.9C151.25 -6.02 150.95 -6.23 150.65 -6.53C150.54 -6.55 150.45 -6.57 150.39 -6.57L150.19 -6.57C150.04 -6.57 149.93 -6.57 149.87 -6.58C149.8 -6.59 149.66 -6.67 149.44 -6.83C148.79 -6.76 148.08 -6.73 147.32 -6.73C146.4 -6.71 145.48 -6.65 144.56 -6.57C143.63 -6.48 142.78 -6.24 141.99 -5.85C141.73 -5.93 141.46 -5.98 141.18 -5.98C140.96 -5.98 140.72 -5.94 140.46 -5.88C140.5 -6.84 140.66 -7.69 140.92 -8.44C141.18 -9.19 141.46 -9.95 141.77 -10.71C141.94 -11.13 142.11 -11.55 142.29 -11.97C142.46 -12.4 142.59 -12.95 142.68 -13.62C142.81 -13.73 142.91 -13.85 142.97 -14C143.04 -14.14 143.09 -14.27 143.14 -14.4C143.18 -14.51 143.22 -14.62 143.25 -14.73C143.28 -14.84 143.37 -14.97 143.5 -15.12C143.61 -15.69 143.74 -16.17 143.89 -16.56C144.04 -16.95 144.2 -17.34 144.38 -17.74C144.53 -18.08 144.68 -18.45 144.84 -18.83C144.99 -19.21 145.13 -19.65 145.26 -20.15C145.35 -20.2 145.46 -20.32 145.59 -20.51C145.67 -21.08 145.61 -21.54 145.41 -21.9C145.2 -22.26 144.96 -22.6 144.67 -22.93L144.12 -23.42C143.68 -23.42 143.15 -23.52 142.53 -23.73C141.91 -23.94 141.37 -24.16 140.92 -24.4C140.83 -24.4 140.75 -24.39 140.69 -24.37C140.62 -24.34 140.57 -24.32 140.52 -24.3C140.39 -24.26 140.24 -24.17 140.07 -24.04C139.74 -22.73 139.38 -21.5 138.97 -20.35C138.57 -19.19 138.15 -18.02 137.72 -16.82C137.48 -16.17 137.23 -15.49 136.98 -14.78C136.73 -14.07 136.47 -13.34 136.21 -12.57C136.19 -12.53 136.17 -12.48 136.15 -12.43C136.13 -12.37 136.09 -12.31 136.05 -12.25C135.94 -12.01 135.83 -11.75 135.72 -11.46C135.61 -11.18 135.6 -10.92 135.69 -10.68C135.47 -10.42 135.31 -10.09 135.2 -9.68C135.09 -9.28 134.98 -8.87 134.87 -8.46C134.83 -8.22 134.78 -7.99 134.71 -7.77C134.6 -7.32 134.53 -6.83 134.48 -6.3C134.44 -5.78 134.45 -5.26 134.51 -4.75C134.58 -4.24 134.7 -3.75 134.87 -3.27C135.05 -2.79 135.29 -2.36 135.59 -1.99C135.64 -1.8 135.69 -1.64 135.76 -1.52C135.82 -1.4 135.9 -1.3 135.98 -1.21Z M159.64 -16.17L159.58 -16C159.19 -14.85 158.99 -13.52 158.98 -12C158.96 -10.49 159 -8.84 159.09 -7.05L159.09 -6.43C159.16 -6.35 159.23 -6.27 159.3 -6.21C159.38 -6.14 159.45 -6.08 159.51 -6.01L160.36 -5.03L159.71 -4.83C159.88 -4.59 160.03 -4.34 160.15 -4.08C160.27 -3.82 160.39 -3.56 160.49 -3.3C160.73 -2.82 160.96 -2.38 161.18 -1.99C161.4 -1.6 161.72 -1.3 162.16 -1.08C162.29 -1.08 162.43 -1.03 162.58 -0.95C162.74 -0.86 162.86 -0.72 162.94 -0.52C163.31 -0.48 163.64 -0.45 163.92 -0.42C164.21 -0.4 164.5 -0.39 164.81 -0.39C165.11 -0.37 165.42 -0.35 165.74 -0.34C166.05 -0.33 166.43 -0.29 166.86 -0.23C167.97 -0.69 168.96 -1.12 169.82 -1.52C170.68 -1.92 171.45 -2.35 172.14 -2.81C172.82 -3.27 173.44 -3.79 174 -4.38C174.56 -4.96 175.08 -5.69 175.58 -6.57L175.98 -7.02L176.5 -7.15L176.69 -8.17L177.48 -7.87C177.54 -7.94 177.61 -8.05 177.69 -8.2C177.77 -8.35 177.83 -8.46 177.87 -8.52C177.96 -8.7 178.05 -8.87 178.15 -9.05C178.25 -9.22 178.36 -9.37 178.49 -9.5C178.73 -10.03 179.04 -10.64 179.42 -11.35C179.8 -12.06 180.19 -12.75 180.58 -13.42L180.65 -13.78C180.73 -14.41 180.83 -15.02 180.92 -15.6C181.02 -16.17 181.18 -16.79 181.4 -17.44C181.35 -17.94 181.27 -18.37 181.15 -18.72C181.03 -19.06 180.9 -19.42 180.74 -19.79C180.59 -20.19 180.45 -20.59 180.32 -21.02C180.19 -21.44 180.1 -21.95 180.06 -22.54C179.78 -22.84 179.47 -23.15 179.13 -23.45C178.79 -23.76 178.43 -24.04 178.03 -24.3C177.47 -24.06 177.1 -23.69 176.92 -23.19C176.88 -23.1 176.85 -23.01 176.84 -22.91C176.83 -22.81 176.86 -22.71 176.92 -22.6L177.02 -22.18C176.98 -21.74 176.75 -21.43 176.34 -21.23C176.29 -20.51 176.19 -19.74 176.04 -18.91C175.89 -18.08 175.68 -17.26 175.4 -16.43C175.13 -15.6 174.79 -14.8 174.38 -14.03C173.96 -13.26 173.49 -12.56 172.97 -11.95C172.43 -11.34 171.9 -10.82 171.4 -10.37C170.9 -9.92 170.38 -9.53 169.84 -9.18C169.29 -8.83 168.7 -8.53 168.07 -8.28C167.44 -8.03 166.73 -7.81 165.95 -7.61L165.23 -7.54L165.03 -8.07C164.88 -8.48 164.77 -8.99 164.71 -9.6C164.64 -10.21 164.63 -10.85 164.66 -11.51C164.69 -12.18 164.78 -12.84 164.92 -13.49C165.06 -14.14 165.26 -14.72 165.52 -15.22C165.5 -15.66 165.4 -16.12 165.23 -16.61C165.06 -17.1 164.87 -17.57 164.67 -18.03C164.57 -18.27 164.47 -18.5 164.38 -18.72C164.29 -18.93 164.22 -19.16 164.15 -19.4C163.76 -19.55 163.47 -19.77 163.27 -20.04C163.07 -20.31 162.92 -20.57 162.81 -20.81C162.66 -21.11 162.52 -21.33 162.4 -21.46C162.29 -21.59 162.03 -21.64 161.64 -21.62C161.53 -21.45 161.38 -21.25 161.2 -21.02C161.01 -20.79 160.73 -20.63 160.36 -20.54C160.28 -20.3 160.21 -20.05 160.15 -19.79C160.1 -19.53 160.05 -19.25 160 -18.94C159.96 -18.6 159.9 -18.23 159.82 -17.85C159.75 -17.47 159.63 -17.08 159.48 -16.69C159.55 -16.62 159.6 -16.45 159.64 -16.17Z M183.63 -2.87C183.81 -2.77 183.94 -2.62 184.02 -2.45C184.11 -2.28 184.18 -2.12 184.22 -1.99C184.26 -1.82 184.31 -1.71 184.35 -1.67L184.74 -1.57L184.78 -1.18C184.8 -0.96 184.92 -0.74 185.13 -0.52C185.35 -0.3 185.59 -0.09 185.85 0.13C186.16 0.35 186.43 0.56 186.67 0.75L187.29 0.29L187.75 1.14C187.92 1.19 188.07 1.23 188.2 1.27C188.36 1.3 188.5 1.31 188.65 1.32C188.79 1.33 188.93 1.34 189.09 1.34C189.54 1.34 189.96 1.31 190.34 1.24C190.72 1.18 191.13 1.09 191.57 0.98C191.96 0.89 192.38 0.81 192.83 0.72C193.27 0.63 193.83 0.51 194.51 0.36C194.57 0.27 194.64 0.19 194.7 0.11C194.77 0.04 194.86 -0.04 194.97 -0.13L195.81 -0.69L195.78 0C196.09 -0.11 196.38 -0.2 196.66 -0.28C196.95 -0.35 197.24 -0.44 197.55 -0.52C198.94 -0.94 200.26 -1.38 201.51 -1.86C202.77 -2.34 203.82 -3 204.67 -3.85C204.75 -4.35 204.79 -4.76 204.76 -5.08C204.74 -5.39 204.57 -5.7 204.24 -6.01L203.56 -5.26L203.43 -6.34C203.4 -6.47 203.35 -6.57 203.26 -6.65C203.17 -6.72 203.03 -6.82 202.84 -6.92C202.71 -6.99 202.57 -7.07 202.43 -7.17C202.29 -7.27 202.16 -7.39 202.05 -7.54C201.75 -7.46 201.45 -7.36 201.16 -7.25C200.86 -7.14 200.56 -7.03 200.26 -6.92C199.76 -6.73 199.24 -6.55 198.72 -6.39C198.2 -6.22 197.65 -6.14 197.09 -6.14C196.89 -6.03 196.69 -5.94 196.48 -5.88C196.28 -5.81 196.09 -5.76 195.91 -5.72C195.7 -5.65 195.48 -5.58 195.28 -5.5C195.07 -5.43 194.8 -5.3 194.48 -5.13L194.12 -5.19C194.01 -5.19 193.87 -5.17 193.71 -5.11L193.17 -4.93C192.97 -4.84 192.76 -4.77 192.53 -4.7C192.3 -4.64 192.07 -4.61 191.83 -4.61C191.39 -4.61 191.02 -4.76 190.72 -5.06L190.36 -5.45L190.78 -5.81C191.55 -6.47 192.34 -7.08 193.15 -7.64C193.97 -8.21 194.79 -8.78 195.62 -9.34C196.77 -10.1 197.91 -10.88 199.03 -11.68C200.15 -12.47 201.14 -13.43 201.99 -14.57C202.18 -14.74 202.39 -14.9 202.61 -15.06C202.83 -15.21 203.01 -15.41 203.16 -15.65C203.69 -15.97 204.22 -16.31 204.76 -16.66C205.31 -17.01 205.78 -17.4 206.17 -17.85C206.56 -18.3 206.84 -18.8 207 -19.37C207.16 -19.93 207.15 -20.6 206.95 -21.36C206.63 -21.47 206.36 -21.64 206.17 -21.87C205.97 -22.1 205.85 -22.43 205.81 -22.86C205.31 -23.39 204.71 -23.7 204.01 -23.79C203.32 -23.89 202.62 -23.83 201.92 -23.61C200.94 -23.79 199.98 -23.84 199.03 -23.78C198.08 -23.71 197.15 -23.68 196.24 -23.68C195.5 -23.9 194.67 -24.01 193.76 -24.01C192.93 -24.01 191.86 -23.9 190.56 -23.68C190.45 -23.68 190.35 -23.69 190.28 -23.71C190.2 -23.73 190.04 -23.73 189.8 -23.71C189.67 -23.65 189.54 -23.59 189.4 -23.53C189.26 -23.48 189.1 -23.43 188.92 -23.39C188.77 -22.91 188.71 -22.41 188.73 -21.88C188.75 -21.36 188.84 -20.86 189 -20.38C189.17 -19.9 189.4 -19.46 189.69 -19.04C189.98 -18.63 190.34 -18.29 190.75 -18.03C191.25 -18.05 191.7 -18.07 192.11 -18.09C192.51 -18.12 192.91 -18.15 193.3 -18.19C193.78 -18.24 194.35 -18.29 195.01 -18.36C195.68 -18.42 196.3 -18.45 196.89 -18.45L198.07 -18.49L197.22 -17.67C197.11 -17.39 196.9 -17.16 196.58 -17C196.27 -16.84 196.02 -16.68 195.85 -16.53C195.78 -16.48 195.72 -16.43 195.67 -16.38C195.61 -16.33 195.55 -16.28 195.49 -16.23C195.51 -16.06 195.47 -15.9 195.36 -15.74C195.21 -15.63 195.02 -15.59 194.8 -15.61C194.34 -15.18 193.84 -14.79 193.3 -14.45C192.76 -14.12 192.2 -13.78 191.63 -13.46C190.96 -13.06 190.31 -12.66 189.67 -12.23C189.04 -11.81 188.51 -11.34 188.07 -10.84L187.75 -10.65C187.55 -10.63 187.35 -10.54 187.14 -10.4C186.94 -10.26 186.72 -10.09 186.51 -9.9C186.29 -9.72 186.06 -9.54 185.82 -9.36C185.58 -9.17 185.31 -9.03 185 -8.92C184.74 -8.42 184.51 -7.95 184.3 -7.51C184.09 -7.08 183.93 -6.62 183.81 -6.14C183.69 -5.66 183.62 -5.16 183.58 -4.64C183.55 -4.12 183.57 -3.53 183.63 -2.87ZM206.27 -35.54C206.18 -35.49 206.05 -35.53 205.89 -35.63C205.73 -35.74 205.62 -35.85 205.58 -35.96C205.38 -35.85 205.21 -35.7 205.04 -35.52C204.88 -35.33 204.72 -35.16 204.55 -34.98C204.39 -34.81 204.23 -34.65 204.06 -34.51C203.9 -34.37 203.73 -34.28 203.56 -34.26C203.12 -33.74 202.67 -33.23 202.2 -32.73C201.73 -32.23 201.29 -31.74 200.88 -31.26C200.46 -31.74 200.02 -32.23 199.55 -32.73C199.09 -33.23 198.63 -33.74 198.2 -34.26C198.02 -34.28 197.86 -34.37 197.69 -34.51C197.53 -34.65 197.37 -34.81 197.2 -34.98C197.04 -35.16 196.88 -35.33 196.71 -35.52C196.55 -35.7 196.37 -35.85 196.17 -35.96C196.13 -35.85 196.03 -35.74 195.86 -35.63C195.7 -35.53 195.58 -35.49 195.49 -35.54C195.47 -35.34 195.37 -35.14 195.19 -34.95C195.02 -34.75 194.87 -34.61 194.74 -34.52C194.63 -34.26 194.52 -34.02 194.41 -33.81C194.3 -33.59 194.21 -33.38 194.15 -33.17C194.08 -32.96 194.06 -32.75 194.08 -32.55C194.11 -32.34 194.18 -32.13 194.31 -31.91C194.49 -31.85 194.73 -31.7 195.05 -31.47C195.36 -31.24 195.77 -30.89 196.27 -30.41C196.51 -30.19 196.79 -29.91 197.12 -29.58C197.45 -29.24 197.81 -28.91 198.2 -28.58C198.59 -28.25 198.99 -27.95 199.41 -27.68C199.82 -27.41 200.25 -27.21 200.68 -27.08L201.14 -27.14C201.53 -27.23 201.93 -27.41 202.35 -27.68C202.76 -27.95 203.16 -28.25 203.56 -28.58C203.95 -28.91 204.31 -29.24 204.63 -29.58C204.96 -29.91 205.24 -30.19 205.48 -30.41C205.98 -30.89 206.39 -31.24 206.71 -31.47C207.02 -31.7 207.27 -31.85 207.44 -31.91C207.57 -32.13 207.65 -32.34 207.67 -32.55C207.69 -32.75 207.67 -32.96 207.61 -33.17C207.54 -33.38 207.45 -33.59 207.34 -33.81C207.24 -34.02 207.13 -34.26 207.02 -34.52C206.89 -34.61 206.73 -34.75 206.56 -34.95C206.39 -35.14 206.29 -35.34 206.27 -35.54Z M211.28 -1.11C211.8 -0.61 212.45 -0.26 213.24 -0.07C214.02 0.13 214.84 0.24 215.69 0.26C216.54 0.28 217.38 0.24 218.22 0.13C219.06 0.02 219.78 -0.09 220.39 -0.2C220.56 -0.2 220.73 -0.17 220.9 -0.11C221.06 -0.06 221.26 -0.05 221.5 -0.1C222.48 -0.27 223.37 -0.42 224.16 -0.54C224.96 -0.66 225.68 -0.84 226.32 -1.09C226.96 -1.34 227.54 -1.7 228.05 -2.16C228.56 -2.61 229.02 -3.27 229.44 -4.12C229.26 -4.09 229.14 -4.12 229.08 -4.2C229.01 -4.27 228.96 -4.38 228.93 -4.51C228.9 -4.64 228.87 -4.78 228.83 -4.93C228.8 -5.08 228.73 -5.22 228.62 -5.32C228.38 -5.28 228.18 -5.32 228.03 -5.45C227.88 -5.59 227.73 -5.74 227.59 -5.93C227.45 -6.11 227.3 -6.3 227.15 -6.48C227 -6.67 226.81 -6.79 226.6 -6.86C225.99 -6.66 225.33 -6.52 224.62 -6.42C223.91 -6.32 223.29 -6.14 222.74 -5.88C221.94 -5.9 221.26 -5.88 220.7 -5.81C220.14 -5.75 219.61 -5.68 219.08 -5.62C218.56 -5.55 218.01 -5.51 217.42 -5.49C216.83 -5.47 216.09 -5.52 215.2 -5.65C215.46 -6.35 215.76 -7.01 216.11 -7.63C216.46 -8.25 216.83 -8.84 217.22 -9.41C217.53 -9.3 217.88 -9.24 218.28 -9.24C218.69 -9.24 219.04 -9.19 219.34 -9.08C219.58 -9.19 219.88 -9.23 220.24 -9.19C220.6 -9.16 220.89 -9.2 221.11 -9.31C221.22 -9.22 221.31 -9.18 221.39 -9.18L221.66 -9.18C222.27 -9.16 222.84 -9.22 223.36 -9.37C223.88 -9.53 224.37 -9.72 224.82 -9.96C225.26 -10.2 225.69 -10.47 226.11 -10.76C226.52 -11.06 226.94 -11.34 227.38 -11.63C227.49 -11.89 227.52 -12.14 227.48 -12.38C227.43 -12.62 227.36 -12.85 227.25 -13.06C226.99 -13.04 226.76 -13.09 226.56 -13.21C226.37 -13.33 226.18 -13.48 225.99 -13.67C225.81 -13.85 225.63 -14.04 225.45 -14.24C225.28 -14.44 225.09 -14.6 224.9 -14.73C224.9 -14.84 224.92 -14.92 224.96 -14.96C225.01 -15 225.02 -15.08 224.99 -15.19C223.93 -15.14 222.84 -15.07 221.73 -14.98C220.62 -14.88 219.61 -14.87 218.69 -14.96C218.63 -15.13 218.6 -15.34 218.61 -15.58C218.62 -15.82 218.57 -16.06 218.46 -16.3C218.7 -16.36 218.94 -16.43 219.16 -16.49C219.39 -16.56 219.59 -16.67 219.77 -16.82C220.03 -16.78 220.25 -16.78 220.44 -16.82C220.62 -16.86 220.79 -16.91 220.94 -16.95C221.1 -16.99 221.24 -17.02 221.39 -17.03C221.53 -17.04 221.69 -17.02 221.86 -16.95C222.43 -17.3 223 -17.56 223.59 -17.74C224.18 -17.91 224.76 -18.05 225.34 -18.14C225.91 -18.24 226.48 -18.33 227.04 -18.42C227.59 -18.51 228.12 -18.64 228.62 -18.81C229.12 -18.99 229.59 -19.24 230.04 -19.56C230.49 -19.89 230.88 -20.35 231.23 -20.94C231.19 -21.11 231.17 -21.25 231.17 -21.34C231.17 -21.44 231.18 -21.53 231.2 -21.61C231.22 -21.68 231.24 -21.76 231.25 -21.85C231.26 -21.94 231.26 -22.08 231.23 -22.28C230.73 -22.49 230.28 -22.75 229.86 -23.04C229.45 -23.34 229.11 -23.71 228.85 -24.17C228.87 -24.06 228.86 -23.99 228.82 -23.96C228.77 -23.92 228.72 -23.92 228.67 -23.94C228.61 -23.96 228.55 -23.98 228.47 -24.01C228.4 -24.03 228.34 -24.04 228.29 -24.04C228.29 -24 228.3 -23.95 228.31 -23.89C228.32 -23.84 228.33 -23.78 228.33 -23.71C228.15 -23.71 228.03 -23.79 227.97 -23.94L227.75 -23.94C227.7 -23.94 227.66 -23.97 227.64 -24.04C226.53 -23.84 225.55 -23.7 224.7 -23.6C223.85 -23.5 223.04 -23.39 222.25 -23.27C221.47 -23.15 220.66 -23 219.83 -22.81C219.01 -22.63 218.07 -22.37 217.03 -22.05C216.44 -21.92 215.88 -21.8 215.36 -21.7C214.84 -21.61 214.35 -21.48 213.91 -21.31C213.46 -21.15 213.05 -20.94 212.68 -20.69C212.31 -20.44 212 -20.12 211.73 -19.73C211.86 -19.29 211.95 -18.86 212 -18.44C212.04 -18.01 212.1 -17.59 212.19 -17.18C212.28 -16.77 212.4 -16.36 212.57 -15.96C212.73 -15.55 213 -15.18 213.37 -14.83C213.19 -14.33 213 -13.88 212.8 -13.47C212.59 -13.07 212.39 -12.67 212.19 -12.28C212 -11.89 211.81 -11.49 211.64 -11.07C211.46 -10.66 211.3 -10.21 211.15 -9.73C210.97 -9.78 210.87 -9.74 210.84 -9.62C210.8 -9.5 210.72 -9.43 210.59 -9.41C210.63 -9.23 210.63 -9.06 210.57 -8.88C210.52 -8.71 210.44 -8.54 210.35 -8.38C210.25 -8.21 210.15 -8.05 210.05 -7.87C209.95 -7.7 209.88 -7.51 209.84 -7.32C209.77 -6.95 209.76 -6.54 209.79 -6.09C209.82 -5.65 209.88 -5.2 209.95 -4.75C210.03 -4.31 210.11 -3.87 210.18 -3.45C210.26 -3.02 210.32 -2.65 210.36 -2.32C210.65 -2.17 210.83 -1.97 210.9 -1.73C210.98 -1.49 211.1 -1.28 211.28 -1.11Z"></path>
            </g>
            <g id="SvgjsG115530" class="text" transform="translate(223.61709651711763, 121.39350501495844) scale(1)"
               light-content="false" fill="#ffffff">
                <path d="M-118.9 -13.57C-119.86 -13.57 -121.18 -13.03 -122.86 -11.94C-124.55 -10.85 -125.39 -9.84 -125.39 -8.91C-125.39 -8.41 -125.14 -7.9 -124.65 -7.38C-124.16 -6.85 -123.63 -6.41 -123.06 -6.05C-122.48 -5.69 -121.95 -5.3 -121.46 -4.88C-120.97 -4.46 -120.73 -4.08 -120.73 -3.73C-120.73 -3.39 -121.37 -3.22 -122.64 -3.22C-123.92 -3.22 -124.99 -3.47 -125.85 -3.97C-126.16 -4.14 -126.43 -4.22 -126.65 -4.22C-127.2 -4.22 -127.47 -3.89 -127.47 -3.22C-127.47 -2.55 -126.98 -1.9 -125.98 -1.26C-124.98 -0.63 -123.79 -0.31 -122.39 -0.31C-120.99 -0.31 -119.77 -0.67 -118.73 -1.39C-117.69 -2.11 -117.17 -2.83 -117.17 -3.54C-117.17 -4.25 -117.4 -4.91 -117.87 -5.52C-118.33 -6.13 -118.84 -6.61 -119.39 -6.95C-119.94 -7.3 -120.44 -7.63 -120.91 -7.96C-121.37 -8.28 -121.6 -8.53 -121.6 -8.7C-121.6 -9.15 -121.21 -9.51 -120.43 -9.79C-119.65 -10.06 -119.06 -10.2 -118.65 -10.2C-118.25 -10.2 -117.85 -10.12 -117.46 -9.95C-117.06 -9.79 -116.76 -9.71 -116.55 -9.71C-116.19 -9.71 -116.01 -9.91 -116.01 -10.33C-116.01 -10.94 -116.33 -11.64 -116.97 -12.41C-117.6 -13.19 -118.25 -13.57 -118.9 -13.57ZM-116.97 -18.75C-117.77 -18.75 -118.89 -18.23 -120.31 -17.2C-120.69 -17.51 -121.08 -17.89 -121.47 -18.35C-121.87 -18.8 -122.19 -19.13 -122.45 -19.33C-122.71 -19.52 -123.01 -19.62 -123.35 -19.62C-123.7 -19.62 -123.98 -19.49 -124.19 -19.22C-124.4 -18.96 -124.51 -18.63 -124.51 -18.23C-124.51 -17.6 -123.97 -16.74 -122.88 -15.67C-121.79 -14.6 -121.04 -14.06 -120.65 -14.06C-120.37 -14.06 -120.05 -14.22 -119.67 -14.52C-119.53 -14.64 -119.34 -14.81 -119.08 -15.03C-118.82 -15.24 -118.61 -15.41 -118.43 -15.54C-118.26 -15.67 -118.03 -15.83 -117.75 -16.03C-117.47 -16.23 -117.25 -16.39 -117.08 -16.51C-116.92 -16.63 -116.7 -16.81 -116.43 -17.05C-116.15 -17.29 -116.01 -17.55 -116.01 -17.85C-116.01 -18.45 -116.33 -18.75 -116.97 -18.75Z M-104.97 -0.31C-104.45 -0.31 -103.42 -1.42 -101.88 -3.66L-101.26 -3.04C-99.47 -1.22 -98.04 -0.31 -96.96 -0.31C-96.05 -0.31 -95.59 -0.64 -95.59 -1.31C-95.59 -1.52 -95.77 -1.77 -96.12 -2.07C-96.47 -2.37 -96.85 -2.67 -97.27 -2.96C-97.68 -3.25 -98.06 -3.68 -98.41 -4.24C-98.76 -4.79 -98.94 -5.37 -98.94 -5.96C-98.94 -6.55 -98.57 -7.23 -97.85 -7.98C-97.12 -8.74 -96.39 -9.43 -95.66 -10.04C-94.93 -10.66 -94.56 -11.06 -94.56 -11.23C-94.56 -11.66 -94.82 -12.16 -95.33 -12.73C-95.85 -13.31 -96.32 -13.6 -96.75 -13.6C-96.97 -13.6 -97.29 -13.41 -97.7 -13.03C-97.93 -12.84 -98.15 -12.64 -98.36 -12.43C-98.57 -12.21 -98.83 -11.93 -99.12 -11.58C-99.41 -11.22 -99.68 -10.91 -99.92 -10.62C-100.16 -10.34 -100.45 -9.97 -100.81 -9.53C-101.16 -9.08 -101.45 -8.7 -101.7 -8.4C-101.94 -8.09 -102.25 -7.69 -102.64 -7.2C-103.02 -6.71 -103.33 -6.32 -103.55 -6.03C-102.88 -7.54 -102.21 -9.61 -101.53 -12.23C-100.85 -14.86 -100.51 -16.64 -100.51 -17.59C-100.51 -18.24 -100.85 -18.94 -101.53 -19.69C-102.21 -20.43 -102.75 -20.81 -103.16 -20.81C-103.64 -20.81 -103.88 -20.54 -103.88 -20.01C-103.88 -17.97 -104.17 -15.58 -104.75 -12.85C-105.32 -10.12 -105.9 -7.79 -106.47 -5.85C-107.05 -3.91 -107.33 -2.88 -107.33 -2.78C-107.33 -2.4 -107.04 -1.9 -106.45 -1.26C-105.85 -0.63 -105.36 -0.31 -104.97 -0.31Z M-80.89 -5.43C-81.57 -4.18 -82.38 -3.35 -83.31 -2.94C-83.51 -3.21 -83.62 -3.87 -83.62 -4.91C-83.62 -5.94 -83.25 -7.15 -82.52 -8.52C-81.79 -9.9 -81.06 -10.8 -80.32 -11.23C-80.01 -10.82 -79.86 -10.06 -79.86 -8.96C-79.86 -7.86 -80.2 -6.69 -80.89 -5.43ZM-85.07 -10.74C-86.4 -8.82 -87.07 -6.78 -87.07 -4.64C-87.07 -3.43 -86.72 -2.41 -86.04 -1.57C-85.35 -0.73 -84.54 -0.31 -83.59 -0.31C-82.32 -0.31 -81.13 -0.75 -80.01 -1.64C-78.9 -2.52 -78.03 -3.63 -77.41 -4.97C-76.79 -6.31 -76.48 -7.63 -76.48 -8.92C-76.48 -10.22 -76.93 -11.33 -77.82 -12.25C-78.72 -13.16 -79.81 -13.62 -81.12 -13.62C-82.42 -13.62 -83.74 -12.66 -85.07 -10.74Z M-62.24 -19.67C-62.9 -20.43 -63.43 -20.81 -63.84 -20.81C-64.37 -20.81 -64.64 -20.56 -64.64 -20.06C-64.64 -17.55 -64.87 -14.92 -65.35 -12.17C-65.82 -9.41 -66.29 -7.16 -66.75 -5.41C-67.21 -3.66 -67.44 -2.76 -67.44 -2.73C-67.44 -2.33 -67.17 -1.83 -66.61 -1.22C-66.05 -0.61 -65.58 -0.31 -65.2 -0.31C-64.64 -0.31 -63.64 -3.42 -62.22 -9.63C-61.99 -10.68 -61.78 -12.08 -61.57 -13.84C-61.37 -15.6 -61.26 -16.82 -61.26 -17.51C-61.26 -18.2 -61.59 -18.92 -62.24 -19.67Z M-41.95 -7.62C-41.44 -8.53 -41.18 -9.34 -41.18 -10.03C-41.18 -10.73 -41.65 -11.49 -42.59 -12.34C-43.54 -13.18 -44.37 -13.6 -45.09 -13.6C-46.35 -13.6 -47.61 -12.95 -48.89 -11.67C-50.17 -10.38 -51.18 -8.98 -51.92 -7.47C-52.65 -5.96 -53.02 -4.79 -53.02 -3.98C-53.02 -3.16 -52.59 -2.35 -51.74 -1.53C-50.88 -0.72 -50.08 -0.31 -49.34 -0.31C-48.24 -0.31 -46.89 -1.13 -45.27 -2.78C-45.1 -2.09 -44.84 -1.51 -44.49 -1.03C-44.13 -0.55 -43.84 -0.31 -43.6 -0.31C-43.36 -0.31 -43.19 -0.38 -43.08 -0.52C-43.01 -0.6 -42.95 -0.68 -42.9 -0.76C-42.85 -0.84 -42.8 -0.95 -42.76 -1.09C-42.72 -1.24 -42.68 -1.37 -42.66 -1.48C-42.63 -1.59 -42.6 -1.74 -42.56 -1.93C-42.51 -2.12 -42.48 -2.28 -42.47 -2.41C-42.45 -2.54 -42.42 -2.71 -42.38 -2.94C-42.33 -3.16 -42.28 -3.46 -42.21 -3.85C-42.14 -4.24 -42 -4.78 -41.8 -5.49C-41.59 -6.19 -41.49 -6.65 -41.49 -6.88C-41.49 -7.1 -41.64 -7.35 -41.95 -7.62ZM-49.44 -3.55C-49.62 -3.55 -49.72 -3.58 -49.77 -3.62C-49.81 -3.66 -49.83 -3.75 -49.83 -3.89C-49.83 -4.37 -49.56 -5.12 -49.02 -6.13C-48.48 -7.14 -47.78 -8.09 -46.93 -8.99C-46.08 -9.88 -45.32 -10.33 -44.63 -10.33C-44.35 -10.33 -44.19 -9.84 -44.14 -8.86C-44.41 -8.82 -44.56 -8.7 -44.58 -8.5C-44.85 -7.07 -45.56 -5.89 -46.7 -4.96C-47.84 -4.02 -48.76 -3.55 -49.44 -3.55Z M-5.05 -13.57C-6.39 -13.57 -7.79 -12.88 -9.25 -11.51C-9.4 -12.25 -9.79 -12.85 -10.43 -13.31C-11.06 -13.78 -11.59 -14.01 -12 -14.01C-12.5 -14.01 -12.75 -13.75 -12.75 -13.24C-12.75 -10.18 -13.49 -5.65 -14.96 0.36C-15.46 2.39 -15.71 3.6 -15.71 3.99C-15.71 4.39 -15.51 4.88 -15.1 5.49C-14.7 6.09 -14.32 6.39 -13.96 6.39C-13.51 6.39 -12.75 4.14 -11.67 -0.36L-11.36 -0.36C-10.31 -0.36 -9.21 -0.65 -8.05 -1.24C-6.89 -1.82 -5.87 -2.53 -4.98 -3.36C-4.1 -4.19 -3.36 -5.08 -2.78 -6.03C-2.2 -6.97 -1.91 -7.79 -1.91 -8.47C-1.91 -9.61 -2.27 -10.74 -3 -11.87C-3.73 -13 -4.41 -13.57 -5.05 -13.57ZM-7.07 -5.64C-8.26 -4.42 -9.53 -3.68 -10.87 -3.43L-10.43 -5.05C-10.14 -5.94 -9.79 -6.72 -9.4 -7.39C-9 -8.06 -8.64 -8.57 -8.32 -8.91C-7.51 -9.73 -6.75 -10.15 -6.03 -10.15C-5.53 -10.15 -5.28 -9.7 -5.28 -8.81C-5.28 -7.91 -5.88 -6.86 -7.07 -5.64Z M8.6 -9.25C8.6 -8.39 8.54 -7.63 8.41 -6.97C8.28 -6.3 8.05 -5.52 7.71 -4.61C7.38 -3.7 7.21 -3.02 7.21 -2.56C7.21 -2.11 7.34 -1.62 7.61 -1.11C7.88 -0.59 8.28 -0.33 8.82 -0.33C9.36 -0.33 9.85 -0.82 10.29 -1.79C10.73 -2.76 11.18 -4.23 11.64 -6.21C11.91 -7.41 12.33 -8.35 12.88 -9.03C13.43 -9.7 14.09 -10.28 14.86 -10.76C15.03 -10.87 15.31 -11.05 15.71 -11.31C15.78 -11.36 15.88 -11.44 16.03 -11.55C16.18 -11.66 16.28 -11.75 16.34 -11.82C16.4 -11.89 16.49 -12 16.6 -12.14C16.71 -12.29 16.76 -12.52 16.76 -12.82C16.76 -13.43 16.14 -13.73 14.88 -13.73C14.35 -13.73 13.74 -13.57 13.04 -13.25C12.35 -12.93 11.71 -12.52 11.12 -12C10.95 -12.55 10.7 -12.95 10.37 -13.21C10.03 -13.47 9.69 -13.6 9.35 -13.6C8.75 -13.6 8.45 -13.12 8.45 -12.16Z M30.28 -5.43C29.6 -4.18 28.79 -3.35 27.86 -2.94C27.66 -3.21 27.55 -3.87 27.55 -4.91C27.55 -5.94 27.92 -7.15 28.65 -8.52C29.38 -9.9 30.11 -10.8 30.85 -11.23C31.16 -10.82 31.31 -10.06 31.31 -8.96C31.31 -7.86 30.97 -6.69 30.28 -5.43ZM26.1 -10.74C24.77 -8.82 24.1 -6.78 24.1 -4.64C24.1 -3.43 24.45 -2.41 25.13 -1.57C25.82 -0.73 26.64 -0.31 27.58 -0.31C28.85 -0.31 30.04 -0.75 31.16 -1.64C32.28 -2.52 33.14 -3.63 33.76 -4.97C34.38 -6.31 34.69 -7.63 34.69 -8.92C34.69 -10.22 34.24 -11.33 33.35 -12.25C32.46 -13.16 31.36 -13.62 30.05 -13.62C28.75 -13.62 27.43 -12.66 26.1 -10.74Z M72.34 -20.81C71.84 -20.81 71.59 -20.55 71.59 -20.04C71.63 -18.7 71.18 -15.99 70.25 -11.92C69.55 -13.04 68.65 -13.6 67.55 -13.6C66.81 -13.6 66.09 -13.34 65.4 -12.84C64.7 -12.33 64.11 -11.69 63.62 -10.91C63.13 -10.12 62.7 -9.29 62.32 -8.4C61.94 -7.5 61.66 -6.66 61.48 -5.86C61.3 -5.06 61.21 -4.33 61.21 -3.68C61.21 -3.03 61.56 -2.3 62.26 -1.51C62.95 -0.71 63.67 -0.31 64.42 -0.31C65.17 -0.31 66.4 -1.01 68.11 -2.42C68.1 -2.37 68.09 -2.3 68.09 -2.21C68.09 -1.8 68.31 -1.38 68.76 -0.95C69.2 -0.52 69.61 -0.31 69.97 -0.31C70.6 -0.31 71.61 -3.27 72.98 -9.19C73.1 -9.69 73.46 -11.13 74.06 -13.52C74.66 -15.91 74.96 -17.26 74.96 -17.59C74.96 -18.24 74.63 -18.94 73.96 -19.69C73.29 -20.43 72.75 -20.81 72.34 -20.81ZM64.74 -3.58C64.59 -3.58 64.49 -3.6 64.44 -3.64C64.4 -3.69 64.38 -3.78 64.38 -3.91C64.38 -4.74 64.67 -5.95 65.26 -7.55C65.53 -8.3 65.9 -8.95 66.38 -9.5C66.85 -10.05 67.34 -10.33 67.86 -10.33C68.11 -10.33 68.4 -10.12 68.71 -9.71C69.02 -9.3 69.17 -8.86 69.17 -8.4C69.17 -7.93 69.18 -7.63 69.2 -7.49C68.7 -6.36 67.94 -5.43 66.92 -4.69C65.9 -3.95 65.17 -3.58 64.74 -3.58Z M92.51 -6.52C93.66 -7.18 94.23 -7.94 94.23 -8.78C94.23 -9.85 93.76 -10.91 92.84 -11.99C91.91 -13.06 90.9 -13.6 89.81 -13.6C88.72 -13.6 87.63 -13.14 86.53 -12.22C85.43 -11.3 84.51 -10.16 83.78 -8.81C83.05 -7.45 82.69 -6.15 82.69 -4.91C82.69 -3.66 83.13 -2.58 84 -1.67C84.88 -0.76 86.04 -0.31 87.49 -0.31C88.94 -0.31 90.22 -0.61 91.33 -1.21C92.44 -1.81 92.99 -2.45 92.99 -3.12C92.99 -3.58 92.64 -3.81 91.94 -3.81C91.9 -3.81 91.42 -3.69 90.51 -3.45C89.59 -3.21 88.48 -3.09 87.2 -3.09C86.58 -3.09 86.19 -3.19 86.04 -3.39C85.88 -3.58 85.81 -3.91 85.81 -4.38C85.81 -4.84 85.88 -5.3 86.04 -5.77C86.81 -5.6 87.8 -5.51 89 -5.51C90.2 -5.51 91.37 -5.85 92.51 -6.52ZM90.7 -9.94C91.06 -9.61 91.24 -9.37 91.24 -9.19C91.24 -8.37 90.06 -7.96 87.71 -7.96C87.42 -7.96 87.2 -7.97 87.04 -7.98C87.49 -8.7 87.96 -9.29 88.46 -9.75C88.96 -10.2 89.36 -10.43 89.68 -10.43C90 -10.43 90.34 -10.27 90.7 -9.94ZM89.21 -14.06C89.48 -14.06 89.81 -14.22 90.18 -14.52C90.32 -14.64 90.52 -14.81 90.78 -15.03C91.03 -15.24 91.25 -15.41 91.42 -15.54C91.59 -15.67 91.82 -15.83 92.1 -16.03C92.39 -16.23 92.61 -16.39 92.77 -16.51C92.94 -16.63 93.15 -16.81 93.43 -17.05C93.7 -17.29 93.84 -17.55 93.84 -17.85C93.84 -18.45 93.52 -18.75 92.89 -18.75C92.08 -18.75 90.97 -18.23 89.54 -17.2C89.16 -17.51 88.78 -17.89 88.38 -18.35C87.99 -18.8 87.66 -19.13 87.4 -19.33C87.15 -19.52 86.84 -19.62 86.5 -19.62C86.16 -19.62 85.88 -19.49 85.66 -19.22C85.45 -18.96 85.34 -18.63 85.34 -18.23C85.34 -17.6 85.89 -16.74 86.98 -15.67C88.07 -14.6 88.81 -14.06 89.21 -14.06Z M108.43 -8.59C108.7 -9.42 108.9 -10.07 109.03 -10.53C110.58 -10.84 111.73 -11.13 112.47 -11.4C113.22 -11.66 113.59 -11.98 113.59 -12.36C113.59 -12.94 112.95 -13.24 111.66 -13.24C111.23 -13.24 110.61 -13.22 109.78 -13.19C110 -14.13 110.12 -14.86 110.12 -15.39C110.12 -15.91 109.77 -16.44 109.07 -16.98C108.38 -17.52 107.81 -17.79 107.36 -17.79C106.85 -17.79 106.59 -17.54 106.59 -17.02C106.59 -15.85 106.43 -14.47 106.1 -12.88C103.44 -12.5 102.11 -12.03 102.11 -11.49C102.11 -11.06 102.3 -10.61 102.67 -10.13C103.05 -9.66 103.41 -9.43 103.76 -9.43C104.1 -9.43 104.61 -9.52 105.27 -9.71C105.09 -9.09 104.73 -7.95 104.21 -6.3C103.68 -4.64 103.42 -3.55 103.42 -3.04C103.42 -2.42 103.8 -1.81 104.55 -1.21C105.31 -0.61 105.96 -0.31 106.51 -0.31C107.76 -0.31 108.97 -0.72 110.12 -1.53C111.27 -2.35 111.84 -3.05 111.84 -3.63C111.84 -4.21 111.63 -4.51 111.2 -4.51C111.01 -4.51 110.38 -4.31 109.32 -3.93C108.25 -3.54 107.58 -3.35 107.3 -3.35C107.01 -3.35 106.87 -3.39 106.87 -3.46C106.87 -3.54 107.06 -4.21 107.45 -5.46C107.84 -6.71 108.16 -7.76 108.43 -8.59Z M124.83 -18.19C124.43 -17.72 124.23 -17.26 124.23 -16.82C124.23 -16.37 124.55 -15.82 125.21 -15.17C125.86 -14.52 126.43 -14.19 126.93 -14.19C127.22 -14.19 127.51 -14.3 127.78 -14.52C128.06 -14.75 128.19 -15.07 128.19 -15.49C128.19 -15.91 127.93 -16.58 127.4 -17.51C126.86 -18.44 126.4 -18.9 126.02 -18.9C125.63 -18.9 125.24 -18.67 124.83 -18.19ZM124.61 -13.6C124.34 -13.6 124.1 -13.3 123.91 -12.71C123.71 -12.12 123.49 -11.18 123.26 -9.9C123.03 -8.62 122.7 -7.08 122.26 -5.27C121.82 -3.46 121.6 -2.32 121.6 -1.87C121.6 -1.41 121.74 -1.04 122.03 -0.76C122.31 -0.48 122.64 -0.33 123.02 -0.33C123.65 -0.33 124.07 -0.67 124.28 -1.34C124.86 -3.14 125.45 -5.05 126.04 -7.07C126.64 -9.09 126.93 -10.26 126.93 -10.58C126.93 -11.22 126.7 -11.88 126.22 -12.57C125.75 -13.25 125.22 -13.6 124.61 -13.6Z"></path>
            </g>
        </g>
    </g>
</svg>