<?xml version="1.0" encoding="utf-8"?>
<!-- Generator: Adobe Illustrator 26.0.2, SVG Export Plug-In . SVG Version: 6.00 Build 0)  -->
<svg version="1.1" id="Vrstva_1" xmlns="http://www.w3.org/2000/svg" xmlns:xlink="http://www.w3.org/1999/xlink" x="0px" y="0px"
	 viewBox="0 0 1190.3 126.1" style="enable-background:new 0 0 1190.3 126.1;" xml:space="preserve">
<style type="text/css">
	.st0{fill:none;}
	.st1{fill:#FFFFFF;}
	.st2{fill:#ECCD40;}
	.st3{display:none;}
	.st4{display:inline;}
</style>
<g>
	<rect x="-60.1" class="st0" width="1309" height="1249.8"/>
	<path class="st1" d="M8.5,88.7l10.9-51.1c4-18.7,18.6-29.8,38.2-29.8h88.2L141,29.9h-81c-10.3,0-15.6,4.9-17.3,13.3l-8.4,39.2
		c-1.6,8.4,2.4,13,10.5,13h60.9l8.2-38.9h25l-13.1,61.1H34.4C15.1,117.6,4.6,106.9,8.5,88.7z"/>
	<path class="st1" d="M169.1,7.9h117.1l-4.7,22.1h-92.2l-4.4,20.8H267L262.2,73h-82.1l-4.9,22.4h92.2l-4.5,22.2H145.9L169.1,7.9z"/>
	<path class="st1" d="M303.7,7.9h95c18,0,26.8,11.2,23.3,28.4l-3.3,15.4c-3.9,18.2-16.8,28.7-36.4,28.7H313l-7.9,37.3h-24.7
		L303.7,7.9z M382.3,58.1c7.5,0,11.6-4.2,12.6-9.1l2.1-10.2c1.1-5.1-2.6-8.9-8.8-8.9h-64.6l-6,28.2H382.3z"/>
	<path class="st1" d="M447.9,7.9h24.7l-9.1,43.1h71.9l9.3-43.1h24.5l-23.3,109.7h-24.5l9.3-44.3h-71.9l-9.5,44.3h-24.7L447.9,7.9z"
		/>
	<path class="st1" d="M669.1,96.6h-64.2l-15.6,21h-28.7L642.9,7.9H667l35.7,109.7h-27L669.1,96.6z M662.1,74.4l-12.2-38.7
		l-28.5,38.7H662.1z"/>
	<path class="st1" d="M859.5,34.6l-3.1,14.2c-3.2,15.2-14,25.9-29.1,28l16.3,40.8h-27.8l-17-40.4h-48.1l-8.6,40.4h-24.7L740.7,7.9
		h95.4C853.2,7.9,862.8,18.5,859.5,34.6z M826.3,29.9h-65.6l-5.3,25.2H821c6.3,0,10.3-3.7,11.5-9.3l1.6-6.8
		C835.4,33.4,831.9,29.9,826.3,29.9z"/>
	<path class="st1" d="M924.4,29.9h-48.3l4.7-22.1h122l-4.7,22.1h-48.8l-18.6,87.7h-24.8L924.4,29.9z"/>
	<path class="st2" d="M1021,7.9h24.7l-23.3,109.7h-24.7L1021,7.9z"/>
	<path class="st2" d="M1050.6,95.4h88.6c5.4,0,8.8-2.8,9.5-7l0.9-4.2c0.9-3-1-5.4-4.2-6l-68.8-8.9c-13.6-1.9-21.5-8.8-18.4-23.3
		l2.8-13.7c3.5-15.8,15.6-24.5,32.6-24.5h90.3l-4.5,22.1h-85.6c-5.1,0-8.2,3.2-9.1,6.8l-1,4.7c-0.5,2.6,0.5,5.6,4.5,6.3l70.4,8.9
		c12.6,1.9,19.6,9.4,16.6,23.5l-3,13.6c-3,14.5-16.6,23.8-32.7,23.8h-93.5L1050.6,95.4z"/>
</g>
<g transform="translate(-109.15496,-58.85274)" class="st3">
	<g transform="matrix(2.0572293,0,0,1.9826263,-11.038962,-132.24999)" class="st4">
		<path d="M93.3,126.5l-7.8,31.3H46.3c-13,0-17.9-6.5-14.7-19.6l4.9-19.6c3.3-13,11.4-19.6,24.5-19.6h39.1l-2.9,11.7H59.7
			c-6.3,0-10.2,3.1-11.8,9.4l-4.1,16.4c-1.6,6.3,0.8,9.4,7.1,9.4h25.8l4.9-19.6H93.3z"/>
		<path d="M111.9,146h47l-2.9,11.7H97.2l14.6-58.7h58.7l-2.9,11.7h-47l-2.9,11.7h47l-2.9,11.7h-47L111.9,146L111.9,146z"/>
		<path d="M213.7,122.5c6.5,0,10.3-2,11.3-5.9c1-3.9-1.8-5.9-8.3-5.9h-25.4l-2.9,11.7H213.7z M179.4,157.8h-11.7l14.6-58.7h39.1
			c13,0,18.1,5.9,15.2,17.6s-10.9,17.6-24,17.6h-27.4L179.4,157.8z"/>
		<path d="M293.9,122.5l5.9-23.4l11.7,0l-14.6,58.7h-11.7l5.9-23.5h-35.2l-5.9,23.5h-11.7l14.6-58.7h11.7l-5.9,23.5H293.9z"/>
		<path d="M325,146l-8,11.7h-12.8l40.1-58.7h12.8l10.8,58.7h-12.8L353,146H325z M350.8,134.3l-3.8-20.5l-14,20.5L350.8,134.3
			L350.8,134.3z"/>
		<path d="M421.1,122.5c6.5,0,10.3-2,11.3-5.9c1-3.9-1.8-5.9-8.3-5.9h-25.4l-2.9,11.7H421.1z M398.5,134.3h-5.7l-5.9,23.5h-11.7
			l14.6-58.7H429c13,0,18.1,5.9,15.2,17.6c-2.9,11.7-10.9,17.6-24,17.6h-3.6l21.7,23.5h-18L398.5,134.3z"/>
		<path d="M480.8,110.8h-23.4l2.9-11.7H519l-2.9,11.7h-23.5l-11.7,47h-11.7L480.8,110.8z"/>
	</g>
</g>
</svg>
