<?xml version="1.0" encoding="utf-8"?>
<!-- Generator: Adobe Illustrator 28.4.1, SVG Export Plug-In . SVG Version: 6.00 Build 0)  -->
<svg version="1.1" id="Vrstva_2_00000010997632065464256180000009903311604132241319_"
	 xmlns="http://www.w3.org/2000/svg" xmlns:xlink="http://www.w3.org/1999/xlink" x="0px" y="0px" viewBox="0 0 217.9 96"
	 style="enable-background:new 0 0 217.9 96;" xml:space="preserve">
<style type="text/css">
	.st0{fill:#00933B;}
	.st1{enable-background:new    ;}
	.st2{fill:#FFFFFF;}
	.st3{clip-path:url(#SVGID_00000052071225250185002160000012010986799945071759_);}
	.st4{clip-path:url(#SVGID_00000138539252880805046740000016637643937965120944_);}
	.st5{fill:#1D1D1B;}
</style>
<g id="Vrstva_1-2">
	<g>
		<g>
			<path class="st0" d="M94,96h-6.5c-1.1,0-2-0.9-2-2s0.9-2,2-2h5.1l1.8-4.8c0.4-1,1.6-1.5,2.6-1.2c1,0.4,1.6,1.6,1.2,2.6l-2.3,6.1
				C95.6,95.5,94.8,96,94,96L94,96z"/>
			<path class="st0" d="M76.2,96H64.9c-1.1,0-2-0.9-2-2s0.9-2,2-2h11.3c1.1,0,2,0.9,2,2S77.3,96,76.2,96z M53.6,96H42.3
				c-1.1,0-2-0.9-2-2s0.9-2,2-2h11.3c1.1,0,2,0.9,2,2S54.7,96,53.6,96z M31.1,96H19.8c-1.1,0-2-0.9-2-2s0.9-2,2-2h11.3
				c1.1,0,2,0.9,2,2S32.2,96,31.1,96z"/>
			<path class="st0" d="M8.5,96H2c-0.7,0-1.3-0.3-1.6-0.9s-0.4-1.2-0.2-1.8l2.3-6.1c0.4-1,1.6-1.5,2.6-1.2c1,0.4,1.6,1.6,1.2,2.6
				L4.9,92h3.6c1.1,0,2,0.9,2,2S9.6,96,8.5,96L8.5,96z"/>
			<path class="st0" d="M8.7,78.5c-0.2,0-0.5,0-0.7-0.1c-1-0.4-1.6-1.6-1.2-2.6l4.4-11.4c0.4-1,1.6-1.5,2.6-1.2
				c1,0.4,1.6,1.6,1.1,2.6l-4.4,11.4C10.3,78,9.5,78.5,8.7,78.5L8.7,78.5z M17.5,55.7c-0.2,0-0.5,0-0.7-0.1c-1-0.4-1.6-1.5-1.1-2.6
				L20,41.6c0.4-1,1.5-1.5,2.6-1.2c1,0.4,1.5,1.5,1.1,2.6l-4.4,11.4C19,55.2,18.3,55.7,17.5,55.7L17.5,55.7z M26.2,32.9
				c-0.2,0-0.5,0-0.7-0.1c-1-0.4-1.5-1.5-1.1-2.6l4.4-11.4c0.4-1,1.5-1.5,2.6-1.1c1,0.4,1.6,1.5,1.1,2.6l-4.4,11.4
				C27.8,32.4,27,32.9,26.2,32.9L26.2,32.9z"/>
			<path class="st0" d="M35,10.1c-0.2,0-0.5,0-0.7-0.1c-1-0.4-1.5-1.6-1.2-2.6l2.3-6.1c0.3-0.8,1-1.3,1.9-1.3h6.5c1.1,0,2,0.9,2,2
				s-0.9,2-2,2h-5.1l-1.8,4.8C36.5,9.6,35.8,10.1,35,10.1L35,10.1z"/>
			<path class="st0" d="M111.5,4h-11.3c-1.1,0-2-0.9-2-2s0.9-2,2-2h11.3c1.1,0,2,0.9,2,2S112.6,4,111.5,4z M89,4H77.7
				c-1.1,0-2-0.9-2-2s0.9-2,2-2H89c1.1,0,2,0.9,2,2S90.1,4,89,4z M66.4,4H55.1c-1.1,0-2-0.9-2-2s0.9-2,2-2h11.3c1.1,0,2,0.9,2,2
				S67.5,4,66.4,4z"/>
			<path class="st0" d="M127,10.1c-0.2,0-0.5,0-0.7-0.1c-1-0.4-1.6-1.6-1.2-2.6l1.3-3.3h-3.6c-1.1,0-2-0.9-2-2s0.9-2,2-2h6.5
				c0.7,0,1.3,0.3,1.6,0.9s0.4,1.2,0.2,1.9l-2.3,6.1C128.6,9.6,127.8,10.1,127,10.1L127,10.1z"/>
		</g>
		<g class="st1">
			<path class="st2" d="M60.8,63.6h-5c-0.6,0-0.9-0.3-1-0.8l-8.3-30.4c-0.2-0.6,0.1-1,0.8-1h3.6c0.5,0,0.9,0.3,0.9,0.9l6.5,26.1h0.2
				l6.4-26.1c0.1-0.6,0.5-0.9,1-0.9h3.5c0.7,0,1,0.3,0.8,1l-8.4,30.4C61.6,63.3,61.3,63.6,60.8,63.6z"/>
			<path class="st2" d="M79.9,32.3v30.4c0,0.6-0.3,0.8-0.9,0.8h-3.1c-0.6,0-0.9-0.3-0.9-0.8V32.3c0-0.6,0.3-0.9,0.9-0.9H79
				C79.6,31.4,79.9,31.7,79.9,32.3z"/>
			<path class="st2" d="M104.5,63.6H88.3c-0.6,0-0.9-0.3-0.9-0.8V32.3c0-0.6,0.3-0.9,0.9-0.9h3.1c0.6,0,0.9,0.3,0.9,0.9v26.4
				c0,0.3,0.2,0.5,0.6,0.5h11.6c0.6,0,0.8,0.3,0.8,0.9v2.6C105.3,63.3,105,63.6,104.5,63.6z"/>
			<path class="st2" d="M126.8,63.6h-16c-0.6,0-0.9-0.3-0.9-0.8V32.3c0-0.6,0.3-0.9,0.9-0.9h16c0.5,0,0.8,0.3,0.8,0.9v2.5
				c0,0.6-0.3,0.8-0.8,0.8h-11.4c-0.4,0-0.6,0.2-0.6,0.5v8.5c0,0.3,0.2,0.5,0.6,0.5h9.6c0.6,0,0.9,0.3,0.9,0.9v2.5
				c0,0.6-0.3,0.8-0.9,0.8h-9.6c-0.4,0-0.6,0.2-0.6,0.5v8.9c0,0.4,0.2,0.5,0.6,0.5h11.4c0.5,0,0.8,0.3,0.8,0.8v2.6
				C127.6,63.3,127.3,63.6,126.8,63.6z"/>
			<path class="st2" d="M155.9,31.4h5.6c0.6,0,0.8,0.3,0.8,0.9v30.4c0,0.6-0.3,0.8-0.8,0.8h-3.1c-0.6,0-0.8-0.3-0.8-0.8V37.5h-0.2
				l-6.5,18.3c-0.2,0.5-0.6,0.8-1.1,0.8h-3.2c-0.5,0-0.8-0.3-1-0.8l-6.7-18.4h-0.2v25.3c0,0.3-0.1,0.6-0.2,0.7
				c-0.1,0.1-0.3,0.2-0.7,0.2h-3c-0.6,0-0.9-0.3-0.9-0.8V32.3c0-0.6,0.3-0.9,0.9-0.9h5.6c0.4,0,0.6,0.2,0.8,0.6l6.9,19.3h0.2
				l6.9-19.3C155.2,31.6,155.5,31.4,155.9,31.4z"/>
		</g>
		<g class="st1">
			<path class="st0" d="M174.8,32.3v30.4c0,0.6-0.3,0.8-0.8,0.8h-3.2c-0.6,0-0.8-0.3-0.8-0.8V32.3c0-0.6,0.3-0.9,0.8-0.9h3.2
				C174.5,31.4,174.8,31.7,174.8,32.3z"/>
			<path class="st0" d="M181.7,55.8v-1.3c0-0.6,0.3-0.9,0.9-0.9h3.2c0.6,0,0.8,0.3,0.8,0.9v0.9c0,1.4,0.3,2.4,0.9,3
				c0.6,0.6,1.6,0.9,3.1,0.9h3.5c1.4,0,2.5-0.3,3.1-1c0.6-0.7,1-1.7,1-3.2V54c0-1.1-0.4-1.9-1.2-2.5c-0.8-0.6-1.8-1-3-1.2
				c-1.2-0.2-2.5-0.4-4-0.8c-1.4-0.3-2.8-0.7-4-1.1c-1.2-0.4-2.2-1.2-3-2.5c-0.8-1.2-1.2-2.7-1.2-4.6v-2.1c0-2.4,0.7-4.3,2.1-5.7
				c1.4-1.4,3.3-2.1,5.7-2.1h5.3c2.5,0,4.4,0.7,5.8,2.1c1.4,1.4,2.1,3.3,2.1,5.7v1.1c0,0.6-0.3,0.8-0.8,0.8h-3.2
				c-0.6,0-0.8-0.3-0.8-0.8v-0.7c0-1.4-0.3-2.5-0.9-3.1s-1.6-0.9-3.1-0.9h-3.2c-1.4,0-2.5,0.3-3.1,1c-0.6,0.6-0.9,1.8-0.9,3.3v1.5
				c0,1.5,1.1,2.5,3.2,3c1,0.2,2,0.4,3.2,0.6c1.2,0.2,2.3,0.4,3.5,0.8c1.2,0.3,2.2,0.8,3.2,1.3s1.8,1.4,2.4,2.5
				c0.6,1.1,0.9,2.5,0.9,4.1v2c0,2.4-0.7,4.3-2.1,5.7c-1.4,1.4-3.3,2.1-5.7,2.1h-5.6c-2.4,0-4.4-0.7-5.8-2.1
				C182.4,60.1,181.7,58.2,181.7,55.8z"/>
		</g>
		<g>
			<defs>
				<rect id="SVGID_1_" x="114.6" y="15.4" width="16.2" height="11.8"/>
			</defs>
			<clipPath id="SVGID_00000174580060224713075500000009380210598227721376_">
				<use xlink:href="#SVGID_1_"  style="overflow:visible;"/>
			</clipPath>
			<g style="clip-path:url(#SVGID_00000174580060224713075500000009380210598227721376_);">
				<g>
					<path class="st0" d="M93.9,96.1h-6.5c-1.1,0-2-0.9-2-2s0.9-2,2-2h5.1l1.8-4.8c0.4-1,1.6-1.5,2.6-1.2c1,0.4,1.6,1.6,1.2,2.6
						l-2.3,6.1C95.5,95.6,94.8,96.1,93.9,96.1L93.9,96.1z"/>
					<path class="st0" d="M76.2,96.1H64.9c-1.1,0-2-0.9-2-2s0.9-2,2-2h11.3c1.1,0,2,0.9,2,2S77.3,96.1,76.2,96.1z M53.6,96.1H42.3
						c-1.1,0-2-0.9-2-2s0.9-2,2-2h11.3c1.1,0,2,0.9,2,2S54.7,96.1,53.6,96.1z M31,96.1H19.7c-1.1,0-2-0.9-2-2s0.9-2,2-2H31
						c1.1,0,2,0.9,2,2S32.1,96.1,31,96.1z"/>
					<path class="st0" d="M8.4,96.1H2c-0.7,0-1.3-0.3-1.6-0.9s-0.4-1.2-0.2-1.8l2.3-6.1c0.4-1,1.5-1.5,2.6-1.2
						c1,0.4,1.6,1.6,1.2,2.6l-1.3,3.3h3.6c1.1,0,2,0.9,2,2S9.5,96.1,8.4,96.1L8.4,96.1z"/>
					<path class="st0" d="M8.7,78.6c-0.2,0-0.5,0-0.7-0.1c-1-0.4-1.6-1.6-1.2-2.6l4.4-11.4c0.4-1,1.6-1.5,2.6-1.2
						c1,0.4,1.6,1.6,1.1,2.6l-4.4,11.4C10.2,78.1,9.5,78.6,8.7,78.6L8.7,78.6z M17.4,55.8c-0.2,0-0.5,0-0.7-0.1
						c-1-0.4-1.6-1.5-1.1-2.6l4.4-11.4c0.4-1,1.5-1.5,2.6-1.2c1,0.4,1.5,1.5,1.1,2.6l-4.4,11.4C19,55.3,18.2,55.8,17.4,55.8
						L17.4,55.8z M26.2,33c-0.2,0-0.5,0-0.7-0.1c-1-0.4-1.5-1.5-1.1-2.6l4.4-11.4c0.4-1,1.5-1.5,2.6-1.1c1,0.4,1.6,1.5,1.1,2.6
						L28,31.7C27.7,32.5,27,33,26.2,33L26.2,33z"/>
					<path class="st0" d="M34.9,10.2c-0.2,0-0.5,0-0.7-0.1c-1-0.4-1.5-1.6-1.2-2.6l2.3-6.1c0.3-0.8,1-1.3,1.9-1.3h6.5
						c1.1,0,2,0.9,2,2s-0.9,2-2,2h-5.1l-1.8,4.8C36.5,9.7,35.7,10.2,34.9,10.2L34.9,10.2z"/>
					<path class="st0" d="M111.5,4.1h-11.3c-1.1,0-2-0.9-2-2s0.9-2,2-2h11.3c1.1,0,2,0.9,2,2S112.6,4.1,111.5,4.1z M88.9,4.1H77.6
						c-1.1,0-2-0.9-2-2s0.9-2,2-2h11.3c1.1,0,2,0.9,2,2S90,4.1,88.9,4.1z M66.3,4.1H55c-1.1,0-2-0.9-2-2s0.9-2,2-2h11.3
						c1.1,0,2,0.9,2,2S67.4,4.1,66.3,4.1z"/>
					<path class="st0" d="M126.9,10.2c-0.2,0-0.5,0-0.7-0.1c-1-0.4-1.6-1.6-1.2-2.6l1.3-3.3h-3.6c-1.1,0-2-0.9-2-2s0.9-2,2-2h6.5
						c0.7,0,1.3,0.3,1.6,0.9s0.4,1.2,0.2,1.9l-2.3,6.1C128.5,9.7,127.8,10.2,126.9,10.2L126.9,10.2z"/>
					<path class="st0" d="M100.7,78.6c-0.2,0-0.5,0-0.7-0.1c-1-0.4-1.6-1.6-1.2-2.6l4.4-11.4c0.4-1,1.6-1.5,2.6-1.2
						c1,0.4,1.6,1.6,1.2,2.6l-4.4,11.4C102.2,78.1,101.5,78.6,100.7,78.6L100.7,78.6z"/>
					<path class="st0" d="M109.4,55.8c-0.2,0-0.5,0-0.7-0.1c-1-0.4-1.6-1.5-1.2-2.6l4.4-11.4c0.4-1,1.6-1.5,2.6-1.2
						c1,0.4,1.6,1.5,1.2,2.6l-4.4,11.4C111,55.3,110.2,55.8,109.4,55.8L109.4,55.8z"/>
					<path class="st2" d="M118.2,33c-0.2,0-0.5,0-0.7-0.1c-1-0.4-1.6-1.5-1.2-2.6l4.4-11.4c0.4-1,1.6-1.5,2.6-1.1s1.6,1.5,1.2,2.6
						L120,31.7C119.7,32.5,119,33,118.2,33L118.2,33z"/>
				</g>
			</g>
		</g>
		<g>
			<defs>
				<rect id="SVGID_00000021826558554551878770000016089808443984160433_" x="97" y="68.9" width="9.6" height="10"/>
			</defs>
			<clipPath id="SVGID_00000117667809076437019130000010830173543836148352_">
				<use xlink:href="#SVGID_00000021826558554551878770000016089808443984160433_"  style="overflow:visible;"/>
			</clipPath>
			<g style="clip-path:url(#SVGID_00000117667809076437019130000010830173543836148352_);">
				<g>
					<path class="st0" d="M94,96h-6.5c-1.1,0-2-0.9-2-2s0.9-2,2-2h5.1l1.8-4.8c0.4-1,1.6-1.5,2.6-1.2c1,0.4,1.6,1.6,1.2,2.6
						l-2.3,6.1C95.6,95.4,94.9,96,94,96L94,96z"/>
					<path class="st0" d="M76.2,96H64.9c-1.1,0-2-0.9-2-2s0.9-2,2-2h11.3c1.1,0,2,0.9,2,2S77.3,96,76.2,96z M53.7,96H42.4
						c-1.1,0-2-0.9-2-2s0.9-2,2-2h11.3c1.1,0,2,0.9,2,2S54.8,96,53.7,96z M31.1,96H19.8c-1.1,0-2-0.9-2-2s0.9-2,2-2h11.3
						c1.1,0,2,0.9,2,2S32.2,96,31.1,96z"/>
					<path class="st0" d="M8.5,96H2c-0.7,0-1.3-0.3-1.6-0.9s-0.4-1.2-0.2-1.8l2.3-6.1c0.4-1,1.5-1.5,2.6-1.2c1,0.4,1.6,1.6,1.2,2.6
						L4.9,92h3.6c1.1,0,2,0.9,2,2S9.6,96,8.5,96L8.5,96z"/>
					<path class="st0" d="M8.7,78.5c-0.2,0-0.5,0-0.7-0.1c-1-0.4-1.6-1.6-1.2-2.6l4.4-11.4c0.4-1,1.6-1.5,2.6-1.2
						c1,0.4,1.6,1.6,1.1,2.6l-4.4,11.4C10.3,78,9.5,78.5,8.7,78.5L8.7,78.5z M17.5,55.7c-0.2,0-0.5,0-0.7-0.1
						c-1-0.4-1.6-1.5-1.1-2.6L20,41.6c0.4-1,1.5-1.5,2.6-1.2c1,0.4,1.5,1.5,1.1,2.6l-4.4,11.4C19,55.2,18.3,55.7,17.5,55.7
						L17.5,55.7z M26.2,32.9c-0.2,0-0.5,0-0.7-0.1c-1-0.4-1.5-1.5-1.1-2.6l4.4-11.4c0.4-1,1.5-1.5,2.6-1.1c1,0.4,1.6,1.5,1.1,2.6
						l-4.4,11.4C27.8,32.4,27.1,32.9,26.2,32.9L26.2,32.9z"/>
					<path class="st0" d="M35,10c-0.2,0-0.5,0-0.7-0.1c-1-0.4-1.5-1.6-1.2-2.6l2.3-6.1c0.3-0.8,1-1.3,1.9-1.3h6.5c1.1,0,2,0.9,2,2
						s-0.9,2-2,2h-5.1l-1.8,4.8C36.6,9.6,35.8,10,35,10L35,10z"/>
					<path class="st0" d="M111.6,4h-11.3c-1.1,0-2-0.9-2-2s0.9-2,2-2h11.3c1.1,0,2,0.9,2,2S112.7,4,111.6,4z M89,4H77.7
						c-1.1,0-2-0.9-2-2s0.9-2,2-2H89c1.1,0,2,0.9,2,2S90.1,4,89,4L89,4z M66.4,4H55.1c-1.1,0-2-0.9-2-2s0.9-2,2-2h11.3
						c1.1,0,2,0.9,2,2S67.5,4,66.4,4L66.4,4z"/>
					<path class="st0" d="M127,10c-0.2,0-0.5,0-0.7-0.1c-1-0.4-1.6-1.6-1.2-2.6l1.3-3.3h-3.6c-1.1,0-2-0.9-2-2s0.9-2,2-2h6.5
						c0.7,0,1.3,0.3,1.6,0.9s0.4,1.2,0.2,1.9l-2.3,6.1C128.6,9.6,127.8,10,127,10L127,10z"/>
					<path class="st0" d="M100.7,78.5c-0.2,0-0.5,0-0.7-0.1c-1-0.4-1.6-1.6-1.2-2.6l4.4-11.4c0.4-1,1.6-1.5,2.6-1.2
						c1,0.4,1.6,1.6,1.2,2.6l-4.4,11.4C102.3,78,101.5,78.5,100.7,78.5L100.7,78.5z"/>
					<path class="st0" d="M109.5,55.7c-0.2,0-0.5,0-0.7-0.1c-1-0.4-1.6-1.5-1.2-2.6l4.4-11.4c0.4-1,1.6-1.5,2.6-1.2
						c1,0.4,1.6,1.5,1.2,2.6l-4.4,11.4C111,55.2,110.3,55.7,109.5,55.7L109.5,55.7z"/>
					<path class="st5" d="M118.2,32.9c-0.2,0-0.5,0-0.7-0.1c-1-0.4-1.6-1.5-1.2-2.6l4.4-11.4c0.4-1,1.6-1.5,2.6-1.1s1.6,1.5,1.2,2.6
						l-4.4,11.4C119.8,32.4,119.1,32.9,118.2,32.9L118.2,32.9z"/>
				</g>
			</g>
		</g>
	</g>
</g>
</svg>
