<?xml version="1.0" encoding="UTF-8"?>
<svg id="Vrstva_2" data-name="Vrstva 2" xmlns="http://www.w3.org/2000/svg" xmlns:xlink="http://www.w3.org/1999/xlink" viewBox="0 0 217.91 96">
  <defs>
    <style>
      .cls-1 {
        fill: none;
      }

      .cls-1, .cls-2, .cls-3 {
        stroke-width: 0px;
      }

      .cls-4 {
        clip-path: url(#clippath-1);
      }

      .cls-5, .cls-2 {
        fill: #1d1d1b;
      }

      .cls-6 {
        clip-path: url(#clippath);
      }

      .cls-7, .cls-3 {
        fill: #00933b;
      }

      .cls-8 {
        font-family: Rajdhani-SemiBold, Rajdhani;
        font-size: 50px;
        font-weight: 600;
      }
    </style>
    <clipPath id="clippath">
      <rect class="cls-1" x="114.6" y="15.36" width="16.22" height="11.78"/>
    </clipPath>
    <clipPath id="clippath-1">
      <rect class="cls-1" x="96.97" y="68.86" width="9.56" height="10"/>
    </clipPath>
  </defs>
  <g id="Vrstva_1-2" data-name="Vrstva 1">
    <g>
      <g>
        <path class="cls-3" d="M94,96h-6.5c-1.1,0-2-.9-2-2s.9-2,2-2h5.13l1.84-4.79c.4-1.03,1.55-1.54,2.58-1.15,1.03.4,1.55,1.55,1.15,2.58l-2.33,6.07c-.3.77-1.04,1.28-1.87,1.28Z"/>
        <path class="cls-3" d="M76.21,96h-11.29c-1.1,0-2-.9-2-2s.9-2,2-2h11.29c1.1,0,2,.9,2,2s-.9,2-2,2ZM53.64,96h-11.29c-1.1,0-2-.9-2-2s.9-2,2-2h11.29c1.1,0,2,.9,2,2s-.9,2-2,2ZM31.07,96h-11.29c-1.1,0-2-.9-2-2s.9-2,2-2h11.29c1.1,0,2,.9,2,2s-.9,2-2,2Z"/>
        <path class="cls-3" d="M8.5,96H2c-.66,0-1.28-.32-1.65-.87s-.45-1.23-.22-1.85l2.33-6.07c.4-1.03,1.55-1.54,2.58-1.15,1.03.4,1.55,1.55,1.15,2.58l-1.29,3.35h3.59c1.1,0,2,.9,2,2s-.9,2-2,2Z"/>
        <path class="cls-3" d="M8.71,78.52c-.24,0-.48-.04-.72-.13-1.03-.4-1.55-1.55-1.15-2.58l4.38-11.41c.4-1.03,1.55-1.54,2.58-1.15,1.03.4,1.55,1.55,1.15,2.58l-4.38,11.41c-.31.8-1.06,1.28-1.87,1.28ZM17.47,55.7c-.24,0-.48-.04-.72-.13-1.03-.4-1.55-1.55-1.15-2.58l4.38-11.41c.4-1.03,1.55-1.54,2.58-1.15,1.03.4,1.55,1.55,1.15,2.58l-4.38,11.41c-.31.8-1.06,1.28-1.87,1.28ZM26.23,32.89c-.24,0-.48-.04-.72-.13-1.03-.4-1.55-1.55-1.15-2.58l4.38-11.41c.4-1.03,1.55-1.54,2.58-1.15,1.03.4,1.55,1.55,1.15,2.58l-4.38,11.41c-.31.8-1.06,1.28-1.87,1.28Z"/>
        <path class="cls-3" d="M34.99,10.07c-.24,0-.48-.04-.72-.13-1.03-.4-1.55-1.55-1.15-2.58l2.33-6.07c.3-.77,1.04-1.28,1.87-1.28h6.5c1.1,0,2,.9,2,2s-.9,2-2,2h-5.13l-1.84,4.79c-.31.8-1.06,1.28-1.87,1.28Z"/>
        <path class="cls-3" d="M111.53,4h-11.29c-1.1,0-2-.9-2-2s.9-2,2-2h11.29c1.1,0,2,.9,2,2s-.9,2-2,2ZM88.96,4h-11.29c-1.1,0-2-.9-2-2s.9-2,2-2h11.29c1.1,0,2,.9,2,2s-.9,2-2,2ZM66.39,4h-11.29c-1.1,0-2-.9-2-2s.9-2,2-2h11.29c1.1,0,2,.9,2,2s-.9,2-2,2Z"/>
        <path class="cls-3" d="M126.99,10.07c-.24,0-.48-.04-.72-.13-1.03-.4-1.55-1.55-1.15-2.58l1.29-3.35h-3.59c-1.1,0-2-.9-2-2s.9-2,2-2h6.5c.66,0,1.28.32,1.65.87s.45,1.23.22,1.85l-2.33,6.07c-.31.8-1.06,1.28-1.87,1.28Z"/>
      </g>
      <text class="cls-8" transform="translate(45.46 63.57)"><tspan class="cls-5" x="0" y="0">VILEM</tspan><tspan class="cls-7" x="120.55" y="0">IS</tspan></text>
      <g class="cls-6">
        <g>
          <path class="cls-3" d="M93.95,96.1h-6.5c-1.1,0-2-.9-2-2s.9-2,2-2h5.13l1.84-4.79c.4-1.03,1.55-1.54,2.58-1.15,1.03.4,1.55,1.55,1.15,2.58l-2.33,6.07c-.3.77-1.04,1.28-1.87,1.28Z"/>
          <path class="cls-3" d="M76.17,96.1h-11.29c-1.1,0-2-.9-2-2s.9-2,2-2h11.29c1.1,0,2,.9,2,2s-.9,2-2,2ZM53.6,96.1h-11.29c-1.1,0-2-.9-2-2s.9-2,2-2h11.29c1.1,0,2,.9,2,2s-.9,2-2,2ZM31.02,96.1h-11.29c-1.1,0-2-.9-2-2s.9-2,2-2h11.29c1.1,0,2,.9,2,2s-.9,2-2,2Z"/>
          <path class="cls-3" d="M8.45,96.1H1.95c-.66,0-1.28-.32-1.65-.87s-.45-1.23-.22-1.85l2.33-6.07c.4-1.03,1.55-1.54,2.58-1.15,1.03.4,1.55,1.55,1.15,2.58l-1.29,3.35h3.59c1.1,0,2,.9,2,2s-.9,2-2,2Z"/>
          <path class="cls-3" d="M8.66,78.63c-.24,0-.48-.04-.72-.13-1.03-.4-1.55-1.55-1.15-2.58l4.38-11.41c.4-1.03,1.55-1.54,2.58-1.15,1.03.4,1.55,1.55,1.15,2.58l-4.38,11.41c-.31.8-1.06,1.28-1.87,1.28ZM17.42,55.81c-.24,0-.48-.04-.72-.13-1.03-.4-1.55-1.55-1.15-2.58l4.38-11.41c.4-1.03,1.55-1.54,2.58-1.15,1.03.4,1.55,1.55,1.15,2.58l-4.38,11.41c-.31.8-1.06,1.28-1.87,1.28ZM26.18,32.99c-.24,0-.48-.04-.72-.13-1.03-.4-1.55-1.55-1.15-2.58l4.38-11.41c.4-1.03,1.55-1.54,2.58-1.15,1.03.4,1.55,1.55,1.15,2.58l-4.38,11.41c-.31.8-1.06,1.28-1.87,1.28Z"/>
          <path class="cls-3" d="M34.94,10.17c-.24,0-.48-.04-.72-.13-1.03-.4-1.55-1.55-1.15-2.58l2.33-6.07c.3-.77,1.04-1.28,1.87-1.28h6.5c1.1,0,2,.9,2,2s-.9,2-2,2h-5.13l-1.84,4.79c-.31.8-1.06,1.28-1.87,1.28Z"/>
          <path class="cls-3" d="M111.48,4.1h-11.29c-1.1,0-2-.9-2-2s.9-2,2-2h11.29c1.1,0,2,.9,2,2s-.9,2-2,2ZM88.91,4.1h-11.29c-1.1,0-2-.9-2-2s.9-2,2-2h11.29c1.1,0,2,.9,2,2s-.9,2-2,2ZM66.34,4.1h-11.29c-1.1,0-2-.9-2-2s.9-2,2-2h11.29c1.1,0,2,.9,2,2s-.9,2-2,2Z"/>
          <path class="cls-3" d="M126.94,10.17c-.24,0-.48-.04-.72-.13-1.03-.4-1.55-1.55-1.15-2.58l1.29-3.35h-3.59c-1.1,0-2-.9-2-2s.9-2,2-2h6.5c.66,0,1.28.32,1.65.87s.45,1.23.22,1.85l-2.33,6.07c-.31.8-1.06,1.28-1.87,1.28Z"/>
          <path class="cls-3" d="M100.66,78.63c-.24,0-.48-.04-.72-.13-1.03-.4-1.55-1.55-1.15-2.58l4.38-11.41c.4-1.03,1.55-1.55,2.58-1.15,1.03.4,1.55,1.55,1.15,2.58l-4.38,11.41c-.31.8-1.06,1.28-1.87,1.28Z"/>
          <path class="cls-3" d="M109.42,55.81c-.24,0-.48-.04-.72-.13-1.03-.4-1.55-1.55-1.15-2.58l4.38-11.41c.4-1.03,1.55-1.54,2.58-1.15,1.03.4,1.55,1.55,1.15,2.58l-4.38,11.41c-.31.8-1.06,1.28-1.87,1.28Z"/>
          <path class="cls-2" d="M118.18,32.99c-.24,0-.48-.04-.72-.13-1.03-.4-1.55-1.55-1.15-2.58l4.38-11.41c.4-1.03,1.55-1.55,2.58-1.15,1.03.4,1.55,1.55,1.15,2.58l-4.38,11.41c-.31.8-1.06,1.28-1.87,1.28Z"/>
        </g>
      </g>
      <g class="cls-4">
        <g>
          <path class="cls-3" d="M94.03,95.97h-6.5c-1.1,0-2-.9-2-2s.9-2,2-2h5.13l1.84-4.79c.4-1.03,1.55-1.54,2.58-1.15,1.03.4,1.55,1.55,1.15,2.58l-2.33,6.07c-.3.77-1.04,1.28-1.87,1.28Z"/>
          <path class="cls-3" d="M76.24,95.97h-11.29c-1.1,0-2-.9-2-2s.9-2,2-2h11.29c1.1,0,2,.9,2,2s-.9,2-2,2ZM53.67,95.97h-11.29c-1.1,0-2-.9-2-2s.9-2,2-2h11.29c1.1,0,2,.9,2,2s-.9,2-2,2ZM31.1,95.97h-11.29c-1.1,0-2-.9-2-2s.9-2,2-2h11.29c1.1,0,2,.9,2,2s-.9,2-2,2Z"/>
          <path class="cls-3" d="M8.53,95.97H2.03c-.66,0-1.28-.32-1.65-.87s-.45-1.23-.22-1.85l2.33-6.07c.4-1.03,1.55-1.54,2.58-1.15,1.03.4,1.55,1.55,1.15,2.58l-1.29,3.35h3.59c1.1,0,2,.9,2,2s-.9,2-2,2Z"/>
          <path class="cls-3" d="M8.74,78.5c-.24,0-.48-.04-.72-.13-1.03-.4-1.55-1.55-1.15-2.58l4.38-11.41c.4-1.03,1.55-1.54,2.58-1.15,1.03.4,1.55,1.55,1.15,2.58l-4.38,11.41c-.31.8-1.06,1.28-1.87,1.28ZM17.49,55.68c-.24,0-.48-.04-.72-.13-1.03-.4-1.55-1.55-1.15-2.58l4.38-11.41c.4-1.03,1.55-1.54,2.58-1.15,1.03.4,1.55,1.55,1.15,2.58l-4.38,11.41c-.31.8-1.06,1.28-1.87,1.28ZM26.25,32.86c-.24,0-.48-.04-.72-.13-1.03-.4-1.55-1.55-1.15-2.58l4.38-11.41c.4-1.03,1.55-1.54,2.58-1.15,1.03.4,1.55,1.55,1.15,2.58l-4.38,11.41c-.31.8-1.06,1.28-1.87,1.28Z"/>
          <path class="cls-3" d="M35.01,10.04c-.24,0-.48-.04-.72-.13-1.03-.4-1.55-1.55-1.15-2.58l2.33-6.07c.3-.77,1.04-1.28,1.87-1.28h6.5c1.1,0,2,.9,2,2s-.9,2-2,2h-5.13l-1.84,4.79c-.31.8-1.06,1.28-1.87,1.28Z"/>
          <path class="cls-3" d="M111.56,3.97h-11.29c-1.1,0-2-.9-2-2S99.17-.03,100.27-.03h11.29c1.1,0,2,.9,2,2s-.9,2-2,2ZM88.98,3.97h-11.29c-1.1,0-2-.9-2-2S76.59-.03,77.7-.03h11.29c1.1,0,2,.9,2,2s-.9,2-2,2ZM66.41,3.97h-11.29c-1.1,0-2-.9-2-2S54.02-.03,55.13-.03h11.29c1.1,0,2,.9,2,2s-.9,2-2,2Z"/>
          <path class="cls-3" d="M127.01,10.04c-.24,0-.48-.04-.72-.13-1.03-.4-1.55-1.55-1.15-2.58l1.29-3.35h-3.59c-1.1,0-2-.9-2-2S121.74-.03,122.84-.03h6.5c.66,0,1.28.32,1.65.87s.45,1.23.22,1.85l-2.33,6.07c-.31.8-1.06,1.28-1.87,1.28Z"/>
          <path class="cls-3" d="M100.73,78.5c-.24,0-.48-.04-.72-.13-1.03-.4-1.55-1.55-1.15-2.58l4.38-11.41c.4-1.03,1.55-1.55,2.58-1.15,1.03.4,1.55,1.55,1.15,2.58l-4.38,11.41c-.31.8-1.06,1.28-1.87,1.28Z"/>
          <path class="cls-3" d="M109.49,55.68c-.24,0-.48-.04-.72-.13-1.03-.4-1.55-1.55-1.15-2.58l4.38-11.41c.4-1.03,1.55-1.54,2.58-1.15,1.03.4,1.55,1.55,1.15,2.58l-4.38,11.41c-.31.8-1.06,1.28-1.87,1.28Z"/>
          <path class="cls-2" d="M118.25,32.86c-.24,0-.48-.04-.72-.13-1.03-.4-1.55-1.55-1.15-2.58l4.38-11.41c.4-1.03,1.55-1.55,2.58-1.15,1.03.4,1.55,1.55,1.15,2.58l-4.38,11.41c-.31.8-1.06,1.28-1.87,1.28Z"/>
        </g>
      </g>
    </g>
  </g>
</svg>